<svg width="418" height="659" viewBox="0 0 418 659" fill="none" xmlns="http://www.w3.org/2000/svg">
<g filter="url(#filter0_d_101_6)">
<path d="M88.208 55.001H279.442C297.782 55.001 312.65 69.236 312.65 86.796V522.066C312.65 539.626 297.783 553.862 279.442 553.862H88.208C69.868 553.862 55 539.626 55 522.066V86.796C55 69.236 69.868 55 88.208 55V55.001Z" fill="black"/>
</g>
<path d="M88.208 55.001H279.442C297.782 55.001 312.65 69.236 312.65 86.796V522.066C312.65 539.626 297.783 553.862 279.442 553.862H88.208C69.868 553.862 55 539.626 55 522.066V86.796C55 69.236 69.868 55 88.208 55V55.001Z" fill="#213648"/>
<path opacity="0.596" fill-rule="evenodd" clip-rule="evenodd" d="M280.18 54.431H87.356C78.352 54.98 70.05 59.088 62.447 66.755C67.337 62.487 76.057 56.775 87.587 56.775H279.949C291.479 56.775 300.199 62.487 305.089 66.755C297.486 59.088 289.183 54.98 280.18 54.431Z" fill="url(#paint0_linear_101_6)" fill-opacity="0.65"/>
<path opacity="0.75" fill-rule="evenodd" clip-rule="evenodd" d="M307.431 517.101V89.414C307.431 77.938 303.214 73.696 300.698 70.972C298.182 68.249 298.075 66.859 301.69 68.916C305.305 70.972 312.535 76.963 312.535 89.414V517.101C312.535 529.552 305.305 535.542 301.69 537.599C298.075 539.655 298.182 538.266 300.698 535.542C303.214 532.818 307.431 528.576 307.431 517.101Z" fill="url(#paint1_linear_101_6)"/>
<path opacity="0.75" fill-rule="evenodd" clip-rule="evenodd" d="M60.104 517.101V89.414C60.104 77.938 64.321 73.696 66.837 70.972C69.353 68.249 69.46 66.859 65.845 68.916C62.23 70.972 55 76.963 55 89.414V517.101C55 529.552 62.23 535.542 65.845 537.599C69.46 539.655 69.353 538.266 66.837 535.542C64.321 532.818 60.104 528.576 60.104 517.101Z" fill="url(#paint2_linear_101_6)"/>
<path fill-rule="evenodd" clip-rule="evenodd" d="M54.432 155.988H55.397C55.9274 155.988 56.4361 156.199 56.8112 156.574C57.1863 156.949 57.397 157.458 57.397 157.988V218.338C57.397 218.868 57.1863 219.377 56.8112 219.752C56.4361 220.127 55.9274 220.338 55.397 220.338H54.432C53.9016 220.338 53.3929 220.127 53.0178 219.752C52.6427 219.377 52.432 218.868 52.432 218.338V157.988C52.432 157.458 52.6427 156.949 53.0178 156.574C53.3929 156.199 53.9016 155.988 54.432 155.988ZM311.967 208.475H312.932C313.462 208.475 313.971 208.686 314.346 209.061C314.721 209.436 314.932 209.945 314.932 210.475V253.425C314.932 253.955 314.721 254.464 314.346 254.839C313.971 255.214 313.462 255.425 312.932 255.425H311.967C311.437 255.425 310.928 255.214 310.553 254.839C310.178 254.464 309.967 253.955 309.967 253.425V210.475C309.967 209.945 310.178 209.436 310.553 209.061C310.928 208.686 311.437 208.475 311.967 208.475Z" fill="#2E423C"/>
<path d="M161.108 66.875H86.702C75.596 66.875 67.506 74.438 67.506 84.316V506.706C67.506 519.586 80.008 530.998 94.146 530.998H273.478C287.096 530.998 300.118 519.498 300.118 506.706V85.458C300.118 73.618 291.328 66.945 280.922 66.875H205.336C205.049 66.922 199.857 69.057 197.663 74.438C195.468 79.82 191.053 84.11 186.218 84.11H180.603C178.305 84.11 172.255 81.88 169.192 74.438C166.129 66.996 161.394 66.922 161.108 66.875Z" fill="white"/>
<mask id="mask0_101_6" style="mask-type:luminance" maskUnits="userSpaceOnUse" x="67" y="66" width="234" height="465">
<path d="M161.108 66.875H86.702C75.596 66.875 67.506 74.438 67.506 84.316V506.706C67.506 519.586 80.008 530.998 94.146 530.998H273.478C287.096 530.998 300.118 519.498 300.118 506.706V85.458C300.118 73.618 291.328 66.945 280.922 66.875H205.336C205.049 66.922 199.857 69.057 197.663 74.438C195.468 79.82 191.053 84.11 186.218 84.11H180.603C178.305 84.11 172.255 81.88 169.192 74.438C166.129 66.996 161.394 66.922 161.108 66.875Z" fill="white"/>
</mask>
<g mask="url(#mask0_101_6)">
<path fill-rule="evenodd" clip-rule="evenodd" d="M67.432 66.875H300.432V531.875H67.432V66.875Z" fill="url(#paint3_linear_101_6)"/>
</g>
<mask id="mask1_101_6" style="mask-type:luminance" maskUnits="userSpaceOnUse" x="67" y="66" width="234" height="465">
<path d="M161.108 66.875H86.702C75.596 66.875 67.506 74.438 67.506 84.316V506.706C67.506 519.586 80.008 530.998 94.146 530.998H273.478C287.096 530.998 300.118 519.498 300.118 506.706V85.458C300.118 73.618 291.328 66.945 280.922 66.875H205.336C205.049 66.922 199.857 69.057 197.663 74.438C195.468 79.82 191.053 84.11 186.218 84.11H180.603C178.305 84.11 172.255 81.88 169.192 74.438C166.129 66.996 161.394 66.922 161.108 66.875Z" fill="white"/>
</mask>
<g mask="url(#mask1_101_6)">
<path d="M146.936 193.431V176.103H142.808V173.463C144.131 173.463 145.197 173.34 146.008 173.095C146.829 172.839 147.443 172.476 147.848 172.007C148.253 171.527 148.493 170.956 148.568 170.295H151.672V193.431H146.936ZM156.928 193.431V191.127V189.943C156.928 188.77 157.146 187.756 157.584 186.903C158.021 186.039 158.597 185.292 159.312 184.663C160.037 184.023 160.826 183.463 161.68 182.983C162.544 182.503 163.408 182.05 164.272 181.623C165.136 181.196 165.925 180.77 166.64 180.343C167.365 179.906 167.946 179.42 168.384 178.887C168.821 178.354 169.04 177.724 169.04 176.999C169.04 176.071 168.714 175.314 168.064 174.727C167.424 174.14 166.544 173.847 165.424 173.847C164.261 173.847 163.274 174.183 162.464 174.855C161.653 175.527 161.152 176.54 160.96 177.895H156.496C156.517 176.423 156.858 175.09 157.52 173.895C158.192 172.69 159.194 171.735 160.528 171.031C161.861 170.327 163.536 169.975 165.552 169.975C167.28 169.975 168.768 170.268 170.016 170.855C171.274 171.442 172.245 172.258 172.928 173.303C173.61 174.348 173.952 175.57 173.952 176.967C173.952 178.13 173.738 179.132 173.312 179.975C172.885 180.818 172.32 181.538 171.616 182.135C170.912 182.732 170.138 183.255 169.296 183.703C168.453 184.151 167.61 184.567 166.768 184.951C165.936 185.335 165.168 185.73 164.464 186.135C163.76 186.53 163.194 186.978 162.768 187.479C162.341 187.98 162.128 188.583 162.128 189.287V189.495H173.92V193.431H156.928ZM177.016 182.295V177.287H182.136V182.295H177.016ZM177.016 193.335V188.343H182.136V193.335H177.016ZM195.979 193.431L195.995 188.311H185.339V184.471L195.883 170.295H200.475V184.391H204.043V188.311H200.475V193.431H195.979ZM189.659 184.391H195.995V175.911L189.659 184.391ZM214.867 193.783C213.427 193.783 212.083 193.506 210.835 192.951C209.587 192.396 208.569 191.618 207.779 190.615C206.99 189.602 206.547 188.418 206.451 187.063H210.899C211.091 187.959 211.518 188.69 212.179 189.255C212.841 189.81 213.673 190.087 214.675 190.087C215.785 190.087 216.755 189.826 217.587 189.303C218.43 188.78 219.059 187.948 219.475 186.807C219.902 185.666 220.051 184.172 219.923 182.327C219.625 182.892 219.209 183.388 218.675 183.815C218.153 184.231 217.539 184.556 216.835 184.791C216.131 185.015 215.347 185.127 214.483 185.127C212.915 185.127 211.523 184.834 210.307 184.247C209.102 183.65 208.153 182.807 207.459 181.719C206.777 180.62 206.435 179.319 206.435 177.815C206.435 176.3 206.798 174.951 207.523 173.767C208.249 172.583 209.262 171.655 210.563 170.983C211.865 170.311 213.39 169.975 215.139 169.975C217.102 169.975 218.793 170.444 220.211 171.383C221.641 172.311 222.734 173.634 223.491 175.351C224.259 177.058 224.643 179.068 224.643 181.383C224.643 184.146 224.249 186.45 223.459 188.295C222.681 190.13 221.561 191.506 220.099 192.423C218.638 193.33 216.894 193.783 214.867 193.783ZM215.283 181.415C215.934 181.415 216.563 181.271 217.171 180.983C217.79 180.684 218.297 180.311 218.691 179.863C219.086 179.415 219.283 178.951 219.283 178.471C219.294 177.436 219.129 176.551 218.787 175.815C218.457 175.068 217.987 174.498 217.379 174.103C216.782 173.708 216.083 173.511 215.283 173.511C214.547 173.511 213.891 173.682 213.315 174.023C212.739 174.364 212.286 174.844 211.955 175.463C211.625 176.082 211.459 176.796 211.459 177.607C211.459 178.812 211.811 179.751 212.515 180.423C213.219 181.084 214.142 181.415 215.283 181.415Z" fill="white"/>
</g>
<g filter="url(#filter1_d_101_6)">
<path d="M287.432 221.431H79.432C76.6706 221.431 74.432 223.67 74.432 226.431V303.431C74.432 306.192 76.6706 308.431 79.432 308.431H287.432C290.193 308.431 292.432 306.192 292.432 303.431V226.431C292.432 223.67 290.193 221.431 287.432 221.431Z" fill="black"/>
</g>
<path d="M287.432 221.431H79.432C76.6706 221.431 74.432 223.67 74.432 226.431V303.431C74.432 306.192 76.6706 308.431 79.432 308.431H287.432C290.193 308.431 292.432 306.192 292.432 303.431V226.431C292.432 223.67 290.193 221.431 287.432 221.431Z" fill="#FBFCFE"/>
<path d="M91.242 246.431V239.201H93.902C94.4287 239.201 94.9003 239.293 95.317 239.476C95.7337 239.656 96.062 239.923 96.302 240.276C96.5453 240.629 96.667 241.061 96.667 241.571C96.667 242.051 96.5603 242.461 96.347 242.801C96.1337 243.141 95.8337 243.401 95.447 243.581C95.0637 243.761 94.612 243.851 94.092 243.851H92.712V246.431H91.242ZM92.697 242.721H94.052C94.4187 242.721 94.7187 242.604 94.952 242.371C95.1853 242.134 95.302 241.843 95.302 241.496C95.302 241.136 95.1787 240.851 94.932 240.641C94.6853 240.428 94.3853 240.321 94.032 240.321H92.697V242.721ZM98.9787 246.531C98.6521 246.531 98.3554 246.469 98.0887 246.346C97.8254 246.223 97.6171 246.044 97.4637 245.811C97.3104 245.574 97.2337 245.288 97.2337 244.951C97.2337 244.384 97.4454 243.954 97.8687 243.661C98.2921 243.364 98.9604 243.211 99.8737 243.201L100.524 243.191V242.881C100.524 242.644 100.454 242.463 100.314 242.336C100.177 242.206 99.9621 242.143 99.6687 242.146C99.4587 242.149 99.2571 242.199 99.0637 242.296C98.8737 242.393 98.7421 242.561 98.6687 242.801H97.4537C97.4737 242.428 97.5821 242.121 97.7787 241.881C97.9787 241.638 98.2471 241.458 98.5837 241.341C98.9204 241.221 99.3054 241.161 99.7387 241.161C100.265 241.161 100.689 241.228 101.009 241.361C101.329 241.491 101.56 241.679 101.704 241.926C101.85 242.169 101.924 242.459 101.924 242.796V246.431H100.704L100.584 245.541C100.407 245.914 100.185 246.173 99.9187 246.316C99.6554 246.459 99.3421 246.531 98.9787 246.531ZM99.4737 245.571C99.6037 245.571 99.7304 245.548 99.8537 245.501C99.9804 245.451 100.094 245.386 100.194 245.306C100.294 245.223 100.372 245.129 100.429 245.026C100.489 244.923 100.52 244.816 100.524 244.706V243.941L99.9987 243.951C99.7554 243.954 99.5287 243.984 99.3187 244.041C99.1087 244.094 98.9387 244.183 98.8087 244.306C98.6821 244.429 98.6187 244.596 98.6187 244.806C98.6187 245.046 98.7004 245.234 98.8637 245.371C99.0304 245.504 99.2337 245.571 99.4737 245.571ZM103.732 248.081C103.379 248.081 103.129 248.051 102.982 247.991C102.836 247.934 102.762 247.906 102.762 247.906V246.976L103.277 246.996C103.501 247.009 103.681 246.998 103.817 246.961C103.954 246.928 104.057 246.883 104.127 246.826C104.197 246.769 104.247 246.709 104.277 246.646C104.311 246.586 104.334 246.538 104.347 246.501L104.442 246.216L102.432 241.261H103.877L105.117 244.631L106.367 241.261H107.797L105.702 246.461C105.522 246.901 105.331 247.238 105.127 247.471C104.927 247.704 104.711 247.864 104.477 247.951C104.247 248.038 103.999 248.081 103.732 248.081ZM107.592 246.431L110.177 239.201H111.722L114.307 246.431H112.852L112.262 244.756H109.657L109.057 246.431H107.592ZM109.987 243.481H111.907L110.952 240.606L109.987 243.481ZM115.392 246.431V239.201H118.052C118.579 239.201 119.051 239.293 119.467 239.476C119.884 239.656 120.212 239.923 120.452 240.276C120.696 240.629 120.817 241.061 120.817 241.571C120.817 242.051 120.711 242.461 120.497 242.801C120.284 243.141 119.984 243.401 119.597 243.581C119.214 243.761 118.762 243.851 118.242 243.851H116.862V246.431H115.392ZM116.847 242.721H118.202C118.569 242.721 118.869 242.604 119.102 242.371C119.336 242.134 119.452 241.843 119.452 241.496C119.452 241.136 119.329 240.851 119.082 240.641C118.836 240.428 118.536 240.321 118.182 240.321H116.847V242.721ZM121.916 246.431V239.201H123.371V246.431H121.916Z" fill="#BA4270"/>
<path d="M236.067 246.531C235.81 246.531 235.569 246.501 235.342 246.441C235.119 246.381 234.97 246.336 234.897 246.306L234.962 245.421C235.065 245.458 235.184 245.504 235.317 245.561C235.454 245.614 235.622 245.641 235.822 245.641C236.149 245.641 236.372 245.551 236.492 245.371C236.615 245.191 236.677 244.888 236.677 244.461V239.201H237.602V244.726C237.602 245.109 237.559 245.436 237.472 245.706C237.385 245.976 237.23 246.181 237.007 246.321C236.787 246.461 236.474 246.531 236.067 246.531ZM241.034 246.531C240.764 246.528 240.509 246.489 240.269 246.416C240.032 246.339 239.822 246.228 239.639 246.081C239.455 245.934 239.31 245.753 239.204 245.536C239.1 245.316 239.049 245.061 239.049 244.771V241.261H239.974V244.676C239.974 245.013 240.077 245.286 240.284 245.496C240.494 245.706 240.809 245.811 241.229 245.811C241.609 245.811 241.914 245.713 242.144 245.516C242.377 245.316 242.494 245.019 242.494 244.626V241.261H243.414V246.431H242.679L242.584 245.441C242.52 245.701 242.412 245.911 242.259 246.071C242.109 246.231 241.927 246.349 241.714 246.426C241.504 246.499 241.277 246.534 241.034 246.531ZM246.795 246.531C246.435 246.531 246.1 246.476 245.79 246.366C245.483 246.253 245.228 246.078 245.025 245.841C244.821 245.601 244.695 245.296 244.645 244.926H245.485C245.528 245.129 245.611 245.299 245.735 245.436C245.858 245.569 246.01 245.671 246.19 245.741C246.373 245.808 246.573 245.841 246.79 245.841C247.14 245.841 247.421 245.776 247.635 245.646C247.848 245.516 247.955 245.316 247.955 245.046C247.955 244.856 247.898 244.704 247.785 244.591C247.675 244.474 247.501 244.389 247.265 244.336L246.195 244.071C245.778 243.971 245.445 243.814 245.195 243.601C244.948 243.388 244.823 243.089 244.82 242.706C244.82 242.403 244.893 242.136 245.04 241.906C245.186 241.676 245.405 241.494 245.695 241.361C245.988 241.228 246.353 241.161 246.79 241.161C247.353 241.161 247.806 241.288 248.15 241.541C248.493 241.791 248.673 242.159 248.69 242.646H247.87C247.836 242.399 247.726 242.204 247.54 242.061C247.353 241.914 247.1 241.841 246.78 241.841C246.453 241.841 246.185 241.908 245.975 242.041C245.768 242.171 245.665 242.374 245.665 242.651C245.665 242.834 245.738 242.979 245.885 243.086C246.035 243.189 246.251 243.276 246.535 243.346L247.575 243.606C247.811 243.669 248.008 243.753 248.165 243.856C248.321 243.959 248.445 244.074 248.535 244.201C248.625 244.328 248.688 244.461 248.725 244.601C248.765 244.738 248.785 244.869 248.785 244.996C248.785 245.313 248.706 245.586 248.55 245.816C248.393 246.043 248.166 246.219 247.87 246.346C247.573 246.469 247.215 246.531 246.795 246.531ZM251.781 246.456C251.424 246.456 251.147 246.408 250.951 246.311C250.754 246.214 250.616 246.071 250.536 245.881C250.459 245.691 250.421 245.458 250.421 245.181V241.936H249.581V241.261H250.446L250.671 239.756H251.351V241.256H252.516V241.936H251.351V245.151C251.351 245.334 251.369 245.469 251.406 245.556C251.446 245.639 251.511 245.693 251.601 245.716C251.691 245.739 251.817 245.751 251.981 245.751H252.546V246.371C252.482 246.394 252.386 246.414 252.256 246.431C252.129 246.448 251.971 246.456 251.781 246.456ZM256.394 246.431V239.201H257.279L261.099 244.821V239.201H262.024V246.431H261.199L257.319 240.731V246.431H256.394ZM265.745 246.531C265.268 246.531 264.851 246.429 264.495 246.226C264.141 246.019 263.866 245.718 263.67 245.321C263.473 244.924 263.375 244.439 263.375 243.866C263.375 243.326 263.466 242.853 263.65 242.446C263.833 242.039 264.101 241.724 264.455 241.501C264.808 241.274 265.24 241.161 265.75 241.161C266.226 241.161 266.64 241.266 266.99 241.476C267.34 241.683 267.611 241.988 267.805 242.391C268.001 242.794 268.1 243.286 268.1 243.866C268.1 244.393 268.01 244.856 267.83 245.256C267.65 245.656 267.385 245.969 267.035 246.196C266.688 246.419 266.258 246.531 265.745 246.531ZM265.75 245.801C266.056 245.801 266.316 245.723 266.53 245.566C266.743 245.409 266.905 245.184 267.015 244.891C267.128 244.598 267.185 244.249 267.185 243.846C267.185 243.476 267.135 243.144 267.035 242.851C266.938 242.554 266.785 242.319 266.575 242.146C266.365 241.973 266.09 241.886 265.75 241.886C265.436 241.886 265.171 241.964 264.955 242.121C264.738 242.274 264.573 242.498 264.46 242.791C264.35 243.084 264.295 243.436 264.295 243.846C264.295 244.209 264.343 244.539 264.44 244.836C264.54 245.133 264.696 245.368 264.91 245.541C265.126 245.714 265.406 245.801 265.75 245.801ZM270.356 246.431L268.756 241.261H269.616L270.796 245.236H270.876L272.041 241.261H272.741L273.951 245.226H274.036L275.166 241.261H276.036L274.466 246.431H273.556L272.381 242.616L271.256 246.431H270.356Z" fill="#36536B"/>
<path d="M92.997 261.431V255.051H90.662V254.201H96.132V255.051H93.927V261.431H92.997ZM97.1345 261.431V254.001H98.0345V257.021C98.1212 256.878 98.2378 256.744 98.3845 256.621C98.5312 256.494 98.7095 256.393 98.9195 256.316C99.1295 256.236 99.3728 256.196 99.6495 256.196C99.9862 256.196 100.291 256.259 100.565 256.386C100.838 256.509 101.055 256.686 101.215 256.916C101.375 257.146 101.455 257.419 101.455 257.736V261.431H100.53V257.921C100.53 257.611 100.423 257.373 100.21 257.206C99.9995 257.036 99.7245 256.951 99.3845 256.951C99.1545 256.951 98.9378 256.989 98.7345 257.066C98.5312 257.139 98.3662 257.253 98.2395 257.406C98.1162 257.556 98.0545 257.748 98.0545 257.981V261.431H97.1345ZM105.081 261.531C104.601 261.531 104.178 261.426 103.811 261.216C103.445 261.006 103.158 260.704 102.951 260.311C102.745 259.918 102.641 259.446 102.641 258.896C102.641 258.353 102.735 257.876 102.921 257.466C103.108 257.056 103.378 256.736 103.731 256.506C104.088 256.276 104.516 256.161 105.016 256.161C105.503 256.161 105.915 256.266 106.251 256.476C106.588 256.686 106.843 256.983 107.016 257.366C107.193 257.746 107.281 258.198 107.281 258.721V259.061H103.576C103.576 259.388 103.63 259.684 103.736 259.951C103.846 260.214 104.011 260.424 104.231 260.581C104.451 260.738 104.73 260.816 105.066 260.816C105.396 260.816 105.68 260.739 105.916 260.586C106.156 260.433 106.31 260.211 106.376 259.921H107.246C107.186 260.271 107.046 260.566 106.826 260.806C106.61 261.046 106.348 261.228 106.041 261.351C105.738 261.471 105.418 261.531 105.081 261.531ZM103.581 258.436H106.391C106.391 258.139 106.341 257.873 106.241 257.636C106.141 257.396 105.988 257.208 105.781 257.071C105.578 256.931 105.321 256.861 105.011 256.861C104.688 256.861 104.42 256.939 104.206 257.096C103.993 257.249 103.835 257.448 103.731 257.691C103.628 257.931 103.578 258.179 103.581 258.436ZM110.933 263.041V256.261H111.853L111.863 257.161C111.923 257.054 112 256.943 112.093 256.826C112.19 256.709 112.307 256.601 112.443 256.501C112.583 256.401 112.745 256.319 112.928 256.256C113.115 256.193 113.327 256.161 113.563 256.161C113.977 256.161 114.34 256.256 114.653 256.446C114.97 256.633 115.217 256.919 115.393 257.306C115.57 257.693 115.658 258.183 115.658 258.776C115.658 259.369 115.572 259.871 115.398 260.281C115.228 260.688 114.982 260.998 114.658 261.211C114.335 261.424 113.945 261.531 113.488 261.531C113.258 261.531 113.053 261.498 112.873 261.431C112.697 261.368 112.542 261.284 112.408 261.181C112.278 261.074 112.168 260.961 112.078 260.841C111.992 260.721 111.92 260.606 111.863 260.496V263.041H110.933ZM113.313 260.811C113.74 260.811 114.088 260.649 114.358 260.326C114.628 259.999 114.763 259.493 114.763 258.806C114.763 258.216 114.64 257.748 114.393 257.401C114.147 257.054 113.787 256.881 113.313 256.881C112.833 256.881 112.47 257.059 112.223 257.416C111.977 257.769 111.853 258.233 111.853 258.806C111.853 259.176 111.908 259.513 112.018 259.816C112.128 260.119 112.292 260.361 112.508 260.541C112.725 260.721 112.993 260.811 113.313 260.811ZM118.282 261.531C117.945 261.531 117.648 261.473 117.392 261.356C117.138 261.236 116.938 261.064 116.792 260.841C116.648 260.618 116.577 260.348 116.577 260.031C116.577 259.458 116.777 259.031 117.177 258.751C117.577 258.471 118.218 258.321 119.102 258.301L120.022 258.276V257.871C120.022 257.554 119.927 257.304 119.737 257.121C119.547 256.934 119.253 256.841 118.857 256.841C118.56 256.844 118.298 256.914 118.072 257.051C117.845 257.188 117.7 257.411 117.637 257.721H116.822C116.842 257.384 116.935 257.101 117.102 256.871C117.272 256.638 117.51 256.461 117.817 256.341C118.123 256.221 118.485 256.161 118.902 256.161C119.352 256.161 119.725 256.224 120.022 256.351C120.322 256.478 120.545 256.664 120.692 256.911C120.842 257.158 120.917 257.461 120.917 257.821V261.431H120.127L120.057 260.461C119.86 260.864 119.607 261.144 119.297 261.301C118.99 261.454 118.652 261.531 118.282 261.531ZM118.557 260.866C118.733 260.866 118.907 260.834 119.077 260.771C119.25 260.708 119.407 260.623 119.547 260.516C119.69 260.406 119.805 260.284 119.892 260.151C119.978 260.014 120.022 259.874 120.022 259.731V258.846L119.257 258.861C118.86 258.868 118.53 258.908 118.267 258.981C118.003 259.054 117.805 259.169 117.672 259.326C117.538 259.483 117.472 259.688 117.472 259.941C117.472 260.231 117.573 260.458 117.777 260.621C117.98 260.784 118.24 260.866 118.557 260.866ZM122.708 263.081C122.405 263.081 122.196 263.059 122.083 263.016C121.97 262.973 121.913 262.951 121.913 262.951V262.351L122.443 262.361C122.633 262.368 122.791 262.354 122.918 262.321C123.045 262.288 123.146 262.243 123.223 262.186C123.3 262.129 123.358 262.066 123.398 261.996C123.441 261.926 123.476 261.859 123.503 261.796L123.683 261.306L121.663 256.261H122.598L124.123 260.251L125.638 256.261H126.543L124.368 261.821C124.231 262.148 124.08 262.403 123.913 262.586C123.75 262.769 123.566 262.898 123.363 262.971C123.163 263.044 122.945 263.081 122.708 263.081ZM127.545 261.431V256.261H128.435V257.011C128.578 256.784 128.775 256.586 129.025 256.416C129.275 256.246 129.6 256.161 130 256.161C130.186 256.161 130.376 256.193 130.57 256.256C130.766 256.319 130.946 256.414 131.11 256.541C131.273 256.668 131.4 256.823 131.49 257.006C131.65 256.753 131.866 256.549 132.14 256.396C132.413 256.239 132.721 256.161 133.065 256.161C133.245 256.161 133.433 256.189 133.63 256.246C133.826 256.299 134.008 256.396 134.175 256.536C134.345 256.673 134.483 256.864 134.59 257.111C134.696 257.354 134.75 257.668 134.75 258.051V261.431H133.82V258.141C133.82 257.828 133.77 257.586 133.67 257.416C133.57 257.243 133.438 257.121 133.275 257.051C133.115 256.981 132.943 256.946 132.76 256.946C132.6 256.946 132.43 256.978 132.25 257.041C132.07 257.104 131.916 257.211 131.79 257.361C131.663 257.511 131.6 257.716 131.6 257.976V261.431H130.68V257.871C130.68 257.668 130.625 257.498 130.515 257.361C130.408 257.224 130.273 257.121 130.11 257.051C129.95 256.981 129.79 256.946 129.63 256.946C129.453 256.946 129.275 256.981 129.095 257.051C128.918 257.121 128.768 257.233 128.645 257.386C128.525 257.536 128.465 257.733 128.465 257.976V261.431H127.545ZM138.382 261.531C137.902 261.531 137.479 261.426 137.112 261.216C136.745 261.006 136.459 260.704 136.252 260.311C136.045 259.918 135.942 259.446 135.942 258.896C135.942 258.353 136.035 257.876 136.222 257.466C136.409 257.056 136.679 256.736 137.032 256.506C137.389 256.276 137.817 256.161 138.317 256.161C138.804 256.161 139.215 256.266 139.552 256.476C139.889 256.686 140.144 256.983 140.317 257.366C140.494 257.746 140.582 258.198 140.582 258.721V259.061H136.877C136.877 259.388 136.93 259.684 137.037 259.951C137.147 260.214 137.312 260.424 137.532 260.581C137.752 260.738 138.03 260.816 138.367 260.816C138.697 260.816 138.98 260.739 139.217 260.586C139.457 260.433 139.61 260.211 139.677 259.921H140.547C140.487 260.271 140.347 260.566 140.127 260.806C139.91 261.046 139.649 261.228 139.342 261.351C139.039 261.471 138.719 261.531 138.382 261.531ZM136.882 258.436H139.692C139.692 258.139 139.642 257.873 139.542 257.636C139.442 257.396 139.289 257.208 139.082 257.071C138.879 256.931 138.622 256.861 138.312 256.861C137.989 256.861 137.72 256.939 137.507 257.096C137.294 257.249 137.135 257.448 137.032 257.691C136.929 257.931 136.879 258.179 136.882 258.436ZM141.861 261.431V256.261H142.756V257.011C142.839 256.868 142.954 256.733 143.101 256.606C143.251 256.479 143.431 256.378 143.641 256.301C143.854 256.224 144.099 256.186 144.376 256.186C144.703 256.186 145.003 256.251 145.276 256.381C145.553 256.511 145.773 256.714 145.936 256.991C146.103 257.264 146.186 257.618 146.186 258.051V261.431H145.261V258.141C145.261 257.738 145.154 257.439 144.941 257.246C144.731 257.049 144.458 256.951 144.121 256.951C143.888 256.951 143.669 256.989 143.466 257.066C143.263 257.139 143.098 257.253 142.971 257.406C142.844 257.556 142.781 257.746 142.781 257.976V261.431H141.861ZM149.313 261.456C148.956 261.456 148.679 261.408 148.483 261.311C148.286 261.214 148.148 261.071 148.068 260.881C147.991 260.691 147.953 260.458 147.953 260.181V256.936H147.113V256.261H147.978L148.203 254.756H148.883V256.256H150.048V256.936H148.883V260.151C148.883 260.334 148.901 260.469 148.938 260.556C148.978 260.639 149.043 260.693 149.133 260.716C149.223 260.739 149.349 260.751 149.513 260.751H150.078V261.371C150.014 261.394 149.918 261.414 149.788 261.431C149.661 261.448 149.503 261.456 149.313 261.456ZM153.736 261.431V254.001H154.636V257.021C154.723 256.878 154.839 256.744 154.986 256.621C155.133 256.494 155.311 256.393 155.521 256.316C155.731 256.236 155.974 256.196 156.251 256.196C156.588 256.196 156.893 256.259 157.166 256.386C157.439 256.509 157.656 256.686 157.816 256.916C157.976 257.146 158.056 257.419 158.056 257.736V261.431H157.131V257.921C157.131 257.611 157.024 257.373 156.811 257.206C156.601 257.036 156.326 256.951 155.986 256.951C155.756 256.951 155.539 256.989 155.336 257.066C155.133 257.139 154.968 257.253 154.841 257.406C154.718 257.556 154.656 257.748 154.656 257.981V261.431H153.736ZM160.928 261.531C160.592 261.531 160.295 261.473 160.038 261.356C159.785 261.236 159.585 261.064 159.438 260.841C159.295 260.618 159.223 260.348 159.223 260.031C159.223 259.458 159.423 259.031 159.823 258.751C160.223 258.471 160.865 258.321 161.748 258.301L162.668 258.276V257.871C162.668 257.554 162.573 257.304 162.383 257.121C162.193 256.934 161.9 256.841 161.503 256.841C161.207 256.844 160.945 256.914 160.718 257.051C160.492 257.188 160.347 257.411 160.283 257.721H159.468C159.488 257.384 159.582 257.101 159.748 256.871C159.918 256.638 160.157 256.461 160.463 256.341C160.77 256.221 161.132 256.161 161.548 256.161C161.998 256.161 162.372 256.224 162.668 256.351C162.968 256.478 163.192 256.664 163.338 256.911C163.488 257.158 163.563 257.461 163.563 257.821V261.431H162.773L162.703 260.461C162.507 260.864 162.253 261.144 161.943 261.301C161.637 261.454 161.298 261.531 160.928 261.531ZM161.203 260.866C161.38 260.866 161.553 260.834 161.723 260.771C161.897 260.708 162.053 260.623 162.193 260.516C162.337 260.406 162.452 260.284 162.538 260.151C162.625 260.014 162.668 259.874 162.668 259.731V258.846L161.903 258.861C161.507 258.868 161.177 258.908 160.913 258.981C160.65 259.054 160.452 259.169 160.318 259.326C160.185 259.483 160.118 259.688 160.118 259.941C160.118 260.231 160.22 260.458 160.423 260.621C160.627 260.784 160.887 260.866 161.203 260.866ZM166.817 261.531C166.457 261.531 166.122 261.476 165.812 261.366C165.505 261.253 165.25 261.078 165.047 260.841C164.843 260.601 164.717 260.296 164.667 259.926H165.507C165.55 260.129 165.633 260.299 165.757 260.436C165.88 260.569 166.032 260.671 166.212 260.741C166.395 260.808 166.595 260.841 166.812 260.841C167.162 260.841 167.443 260.776 167.657 260.646C167.87 260.516 167.977 260.316 167.977 260.046C167.977 259.856 167.92 259.704 167.807 259.591C167.697 259.474 167.523 259.389 167.287 259.336L166.217 259.071C165.8 258.971 165.467 258.814 165.217 258.601C164.97 258.388 164.845 258.089 164.842 257.706C164.842 257.403 164.915 257.136 165.062 256.906C165.208 256.676 165.427 256.494 165.717 256.361C166.01 256.228 166.375 256.161 166.812 256.161C167.375 256.161 167.828 256.288 168.172 256.541C168.515 256.791 168.695 257.159 168.712 257.646H167.892C167.858 257.399 167.748 257.204 167.562 257.061C167.375 256.914 167.122 256.841 166.802 256.841C166.475 256.841 166.207 256.908 165.997 257.041C165.79 257.171 165.687 257.374 165.687 257.651C165.687 257.834 165.76 257.979 165.907 258.086C166.057 258.189 166.273 258.276 166.557 258.346L167.597 258.606C167.833 258.669 168.03 258.753 168.187 258.856C168.343 258.959 168.467 259.074 168.557 259.201C168.647 259.328 168.71 259.461 168.747 259.601C168.787 259.738 168.807 259.869 168.807 259.996C168.807 260.313 168.728 260.586 168.572 260.816C168.415 261.043 168.188 261.219 167.892 261.346C167.595 261.469 167.237 261.531 166.817 261.531ZM174.963 261.531C174.66 261.531 174.403 261.491 174.193 261.411C173.986 261.331 173.816 261.229 173.683 261.106C173.55 260.979 173.446 260.851 173.373 260.721C173.3 260.588 173.246 260.471 173.213 260.371L173.113 261.431H172.408V254.001H173.338V257.081C173.381 256.994 173.446 256.899 173.533 256.796C173.623 256.693 173.738 256.593 173.878 256.496C174.018 256.399 174.183 256.319 174.373 256.256C174.566 256.193 174.786 256.161 175.033 256.161C175.68 256.161 176.193 256.386 176.573 256.836C176.956 257.286 177.148 257.949 177.148 258.826C177.148 259.369 177.066 259.844 176.903 260.251C176.74 260.654 176.496 260.969 176.173 261.196C175.85 261.419 175.446 261.531 174.963 261.531ZM174.798 260.821C175.218 260.821 175.56 260.659 175.823 260.336C176.086 260.009 176.218 259.491 176.218 258.781C176.218 258.178 176.095 257.711 175.848 257.381C175.605 257.048 175.248 256.881 174.778 256.881C174.435 256.881 174.158 256.956 173.948 257.106C173.741 257.253 173.588 257.468 173.488 257.751C173.391 258.034 173.341 258.378 173.338 258.781C173.338 259.504 173.45 260.026 173.673 260.346C173.9 260.663 174.275 260.821 174.798 260.821ZM180.56 261.531C180.08 261.531 179.656 261.426 179.29 261.216C178.923 261.006 178.636 260.704 178.43 260.311C178.223 259.918 178.12 259.446 178.12 258.896C178.12 258.353 178.213 257.876 178.4 257.466C178.586 257.056 178.856 256.736 179.21 256.506C179.566 256.276 179.995 256.161 180.495 256.161C180.981 256.161 181.393 256.266 181.73 256.476C182.066 256.686 182.321 256.983 182.495 257.366C182.671 257.746 182.76 258.198 182.76 258.721V259.061H179.055C179.055 259.388 179.108 259.684 179.215 259.951C179.325 260.214 179.49 260.424 179.71 260.581C179.93 260.738 180.208 260.816 180.545 260.816C180.875 260.816 181.158 260.739 181.395 260.586C181.635 260.433 181.788 260.211 181.855 259.921H182.725C182.665 260.271 182.525 260.566 182.305 260.806C182.088 261.046 181.826 261.228 181.52 261.351C181.216 261.471 180.896 261.531 180.56 261.531ZM179.06 258.436H181.87C181.87 258.139 181.82 257.873 181.72 257.636C181.62 257.396 181.466 257.208 181.26 257.071C181.056 256.931 180.8 256.861 180.49 256.861C180.166 256.861 179.898 256.939 179.685 257.096C179.471 257.249 179.313 257.448 179.21 257.691C179.106 257.931 179.056 258.179 179.06 258.436ZM186.224 261.531C185.744 261.531 185.32 261.426 184.954 261.216C184.587 261.006 184.3 260.704 184.094 260.311C183.887 259.918 183.784 259.446 183.784 258.896C183.784 258.353 183.877 257.876 184.064 257.466C184.25 257.056 184.52 256.736 184.874 256.506C185.23 256.276 185.659 256.161 186.159 256.161C186.645 256.161 187.057 256.266 187.394 256.476C187.73 256.686 187.985 256.983 188.159 257.366C188.335 257.746 188.424 258.198 188.424 258.721V259.061H184.719C184.719 259.388 184.772 259.684 184.879 259.951C184.989 260.214 185.154 260.424 185.374 260.581C185.594 260.738 185.872 260.816 186.209 260.816C186.539 260.816 186.822 260.739 187.059 260.586C187.299 260.433 187.452 260.211 187.519 259.921H188.389C188.329 260.271 188.189 260.566 187.969 260.806C187.752 261.046 187.49 261.228 187.184 261.351C186.88 261.471 186.56 261.531 186.224 261.531ZM184.724 258.436H187.534C187.534 258.139 187.484 257.873 187.384 257.636C187.284 257.396 187.13 257.208 186.924 257.071C186.72 256.931 186.464 256.861 186.154 256.861C185.83 256.861 185.562 256.939 185.349 257.096C185.135 257.249 184.977 257.448 184.874 257.691C184.77 257.931 184.72 258.179 184.724 258.436ZM189.703 261.431V256.261H190.598V257.011C190.681 256.868 190.796 256.733 190.943 256.606C191.093 256.479 191.273 256.378 191.483 256.301C191.696 256.224 191.941 256.186 192.218 256.186C192.545 256.186 192.845 256.251 193.118 256.381C193.395 256.511 193.615 256.714 193.778 256.991C193.945 257.264 194.028 257.618 194.028 258.051V261.431H193.103V258.141C193.103 257.738 192.996 257.439 192.783 257.246C192.573 257.049 192.3 256.951 191.963 256.951C191.73 256.951 191.511 256.989 191.308 257.066C191.105 257.139 190.94 257.253 190.813 257.406C190.686 257.556 190.623 257.746 190.623 257.976V261.431H189.703ZM197.906 263.041V256.261H198.826L198.836 257.161C198.896 257.054 198.973 256.943 199.066 256.826C199.163 256.709 199.279 256.601 199.416 256.501C199.556 256.401 199.718 256.319 199.901 256.256C200.088 256.193 200.299 256.161 200.536 256.161C200.949 256.161 201.313 256.256 201.626 256.446C201.943 256.633 202.189 256.919 202.366 257.306C202.543 257.693 202.631 258.183 202.631 258.776C202.631 259.369 202.544 259.871 202.371 260.281C202.201 260.688 201.954 260.998 201.631 261.211C201.308 261.424 200.918 261.531 200.461 261.531C200.231 261.531 200.026 261.498 199.846 261.431C199.669 261.368 199.514 261.284 199.381 261.181C199.251 261.074 199.141 260.961 199.051 260.841C198.964 260.721 198.893 260.606 198.836 260.496V263.041H197.906ZM200.286 260.811C200.713 260.811 201.061 260.649 201.331 260.326C201.601 259.999 201.736 259.493 201.736 258.806C201.736 258.216 201.613 257.748 201.366 257.401C201.119 257.054 200.759 256.881 200.286 256.881C199.806 256.881 199.443 257.059 199.196 257.416C198.949 257.769 198.826 258.233 198.826 258.806C198.826 259.176 198.881 259.513 198.991 259.816C199.101 260.119 199.264 260.361 199.481 260.541C199.698 260.721 199.966 260.811 200.286 260.811ZM203.863 261.431V256.261H204.743V257.256C204.83 257.009 204.951 256.806 205.108 256.646C205.265 256.483 205.443 256.361 205.643 256.281C205.846 256.201 206.056 256.161 206.273 256.161C206.35 256.161 206.425 256.166 206.498 256.176C206.571 256.186 206.628 256.203 206.668 256.226V257.121C206.618 257.098 206.553 257.083 206.473 257.076C206.396 257.066 206.331 257.061 206.278 257.061C206.071 257.048 205.878 257.061 205.698 257.101C205.518 257.138 205.36 257.203 205.223 257.296C205.086 257.389 204.978 257.513 204.898 257.666C204.821 257.816 204.783 257.999 204.783 258.216V261.431H203.863ZM209.761 261.531C209.284 261.531 208.868 261.429 208.511 261.226C208.158 261.019 207.883 260.718 207.686 260.321C207.489 259.924 207.391 259.439 207.391 258.866C207.391 258.326 207.483 257.853 207.666 257.446C207.849 257.039 208.118 256.724 208.471 256.501C208.824 256.274 209.256 256.161 209.766 256.161C210.243 256.161 210.656 256.266 211.006 256.476C211.356 256.683 211.628 256.988 211.821 257.391C212.018 257.794 212.116 258.286 212.116 258.866C212.116 259.393 212.026 259.856 211.846 260.256C211.666 260.656 211.401 260.969 211.051 261.196C210.704 261.419 210.274 261.531 209.761 261.531ZM209.766 260.801C210.073 260.801 210.333 260.723 210.546 260.566C210.759 260.409 210.921 260.184 211.031 259.891C211.144 259.598 211.201 259.249 211.201 258.846C211.201 258.476 211.151 258.144 211.051 257.851C210.954 257.554 210.801 257.319 210.591 257.146C210.381 256.973 210.106 256.886 209.766 256.886C209.453 256.886 209.188 256.964 208.971 257.121C208.754 257.274 208.589 257.498 208.476 257.791C208.366 258.084 208.311 258.436 208.311 258.846C208.311 259.209 208.359 259.539 208.456 259.836C208.556 260.133 208.713 260.368 208.926 260.541C209.143 260.714 209.423 260.801 209.766 260.801ZM215.425 261.531C214.959 261.531 214.545 261.429 214.185 261.226C213.829 261.023 213.549 260.723 213.345 260.326C213.145 259.929 213.045 259.443 213.045 258.866C213.045 258.326 213.137 257.854 213.32 257.451C213.507 257.044 213.777 256.728 214.13 256.501C214.487 256.274 214.919 256.161 215.425 256.161C215.795 256.161 216.127 256.233 216.42 256.376C216.717 256.516 216.96 256.716 217.15 256.976C217.34 257.236 217.457 257.543 217.5 257.896H216.68C216.65 257.716 216.58 257.551 216.47 257.401C216.364 257.251 216.222 257.131 216.045 257.041C215.872 256.951 215.667 256.906 215.43 256.906C214.987 256.906 214.625 257.066 214.345 257.386C214.069 257.706 213.93 258.196 213.93 258.856C213.93 259.453 214.057 259.931 214.31 260.291C214.567 260.648 214.944 260.826 215.44 260.826C215.677 260.826 215.884 260.781 216.06 260.691C216.237 260.598 216.379 260.476 216.485 260.326C216.592 260.173 216.66 260.009 216.69 259.836H217.495C217.452 260.183 217.334 260.483 217.14 260.736C216.95 260.989 216.707 261.186 216.41 261.326C216.117 261.463 215.789 261.531 215.425 261.531ZM220.941 261.531C220.461 261.531 220.037 261.426 219.671 261.216C219.304 261.006 219.017 260.704 218.811 260.311C218.604 259.918 218.501 259.446 218.501 258.896C218.501 258.353 218.594 257.876 218.781 257.466C218.967 257.056 219.237 256.736 219.591 256.506C219.947 256.276 220.376 256.161 220.876 256.161C221.362 256.161 221.774 256.266 222.111 256.476C222.447 256.686 222.702 256.983 222.876 257.366C223.052 257.746 223.141 258.198 223.141 258.721V259.061H219.436C219.436 259.388 219.489 259.684 219.596 259.951C219.706 260.214 219.871 260.424 220.091 260.581C220.311 260.738 220.589 260.816 220.926 260.816C221.256 260.816 221.539 260.739 221.776 260.586C222.016 260.433 222.169 260.211 222.236 259.921H223.106C223.046 260.271 222.906 260.566 222.686 260.806C222.469 261.046 222.207 261.228 221.901 261.351C221.597 261.471 221.277 261.531 220.941 261.531ZM219.441 258.436H222.251C222.251 258.139 222.201 257.873 222.101 257.636C222.001 257.396 221.847 257.208 221.641 257.071C221.437 256.931 221.181 256.861 220.871 256.861C220.547 256.861 220.279 256.939 220.066 257.096C219.852 257.249 219.694 257.448 219.591 257.691C219.487 257.931 219.437 258.179 219.441 258.436ZM226.25 261.531C225.89 261.531 225.555 261.476 225.245 261.366C224.939 261.253 224.684 261.078 224.48 260.841C224.277 260.601 224.15 260.296 224.1 259.926H224.94C224.984 260.129 225.067 260.299 225.19 260.436C225.314 260.569 225.465 260.671 225.645 260.741C225.829 260.808 226.029 260.841 226.245 260.841C226.595 260.841 226.877 260.776 227.09 260.646C227.304 260.516 227.41 260.316 227.41 260.046C227.41 259.856 227.354 259.704 227.24 259.591C227.13 259.474 226.957 259.389 226.72 259.336L225.65 259.071C225.234 258.971 224.9 258.814 224.65 258.601C224.404 258.388 224.279 258.089 224.275 257.706C224.275 257.403 224.349 257.136 224.495 256.906C224.642 256.676 224.86 256.494 225.15 256.361C225.444 256.228 225.809 256.161 226.245 256.161C226.809 256.161 227.262 256.288 227.605 256.541C227.949 256.791 228.129 257.159 228.145 257.646H227.325C227.292 257.399 227.182 257.204 226.995 257.061C226.809 256.914 226.555 256.841 226.235 256.841C225.909 256.841 225.64 256.908 225.43 257.041C225.224 257.171 225.12 257.374 225.12 257.651C225.12 257.834 225.194 257.979 225.34 258.086C225.49 258.189 225.707 258.276 225.99 258.346L227.03 258.606C227.267 258.669 227.464 258.753 227.62 258.856C227.777 258.959 227.9 259.074 227.99 259.201C228.08 259.328 228.144 259.461 228.18 259.601C228.22 259.738 228.24 259.869 228.24 259.996C228.24 260.313 228.162 260.586 228.005 260.816C227.849 261.043 227.622 261.219 227.325 261.346C227.029 261.469 226.67 261.531 226.25 261.531ZM231.289 261.531C230.929 261.531 230.594 261.476 230.284 261.366C229.978 261.253 229.723 261.078 229.519 260.841C229.316 260.601 229.189 260.296 229.139 259.926H229.979C230.023 260.129 230.106 260.299 230.229 260.436C230.353 260.569 230.504 260.671 230.684 260.741C230.868 260.808 231.068 260.841 231.284 260.841C231.634 260.841 231.916 260.776 232.129 260.646C232.343 260.516 232.449 260.316 232.449 260.046C232.449 259.856 232.393 259.704 232.279 259.591C232.169 259.474 231.996 259.389 231.759 259.336L230.689 259.071C230.273 258.971 229.939 258.814 229.689 258.601C229.443 258.388 229.318 258.089 229.314 257.706C229.314 257.403 229.388 257.136 229.534 256.906C229.681 256.676 229.899 256.494 230.189 256.361C230.483 256.228 230.848 256.161 231.284 256.161C231.848 256.161 232.301 256.288 232.644 256.541C232.988 256.791 233.168 257.159 233.184 257.646H232.364C232.331 257.399 232.221 257.204 232.034 257.061C231.848 256.914 231.594 256.841 231.274 256.841C230.948 256.841 230.679 256.908 230.469 257.041C230.263 257.171 230.159 257.374 230.159 257.651C230.159 257.834 230.233 257.979 230.379 258.086C230.529 258.189 230.746 258.276 231.029 258.346L232.069 258.606C232.306 258.669 232.503 258.753 232.659 258.856C232.816 258.959 232.939 259.074 233.029 259.201C233.119 259.328 233.183 259.461 233.219 259.601C233.259 259.738 233.279 259.869 233.279 259.996C233.279 260.313 233.201 260.586 233.044 260.816C232.888 261.043 232.661 261.219 232.364 261.346C232.068 261.469 231.709 261.531 231.289 261.531ZM236.673 261.531C236.193 261.531 235.77 261.426 235.403 261.216C235.036 261.006 234.75 260.704 234.543 260.311C234.336 259.918 234.233 259.446 234.233 258.896C234.233 258.353 234.326 257.876 234.513 257.466C234.7 257.056 234.97 256.736 235.323 256.506C235.68 256.276 236.108 256.161 236.608 256.161C237.095 256.161 237.506 256.266 237.843 256.476C238.18 256.686 238.435 256.983 238.608 257.366C238.785 257.746 238.873 258.198 238.873 258.721V259.061H235.168C235.168 259.388 235.221 259.684 235.328 259.951C235.438 260.214 235.603 260.424 235.823 260.581C236.043 260.738 236.321 260.816 236.658 260.816C236.988 260.816 237.271 260.739 237.508 260.586C237.748 260.433 237.901 260.211 237.968 259.921H238.838C238.778 260.271 238.638 260.566 238.418 260.806C238.201 261.046 237.94 261.228 237.633 261.351C237.33 261.471 237.01 261.531 236.673 261.531ZM235.173 258.436H237.983C237.983 258.139 237.933 257.873 237.833 257.636C237.733 257.396 237.58 257.208 237.373 257.071C237.17 256.931 236.913 256.861 236.603 256.861C236.28 256.861 236.011 256.939 235.798 257.096C235.585 257.249 235.426 257.448 235.323 257.691C235.22 257.931 235.17 258.179 235.173 258.436ZM242.037 261.531C241.364 261.531 240.83 261.301 240.437 260.841C240.047 260.381 239.852 259.709 239.852 258.826C239.852 258.289 239.93 257.821 240.087 257.421C240.244 257.021 240.479 256.711 240.792 256.491C241.105 256.271 241.495 256.161 241.962 256.161C242.212 256.161 242.432 256.193 242.622 256.256C242.812 256.319 242.977 256.399 243.117 256.496C243.257 256.593 243.37 256.693 243.457 256.796C243.547 256.899 243.614 256.994 243.657 257.081V254.001H244.592V261.431H243.882L243.782 260.371C243.749 260.471 243.695 260.588 243.622 260.721C243.549 260.851 243.445 260.979 243.312 261.106C243.182 261.229 243.012 261.331 242.802 261.411C242.592 261.491 242.337 261.531 242.037 261.531ZM242.202 260.821C242.722 260.821 243.094 260.663 243.317 260.346C243.544 260.026 243.657 259.504 243.657 258.781C243.654 258.378 243.604 258.034 243.507 257.751C243.41 257.468 243.257 257.253 243.047 257.106C242.84 256.956 242.564 256.881 242.217 256.881C241.794 256.881 241.449 257.033 241.182 257.336C240.915 257.639 240.782 258.121 240.782 258.781C240.782 259.428 240.902 259.929 241.142 260.286C241.382 260.643 241.735 260.821 242.202 260.821ZM245.904 261.431V260.251H247.004V261.431H245.904ZM252.538 261.431V255.051H250.203V254.201H255.673V255.051H253.468V261.431H252.538ZM256.676 261.431V254.001H257.576V257.021C257.662 256.878 257.779 256.744 257.926 256.621C258.072 256.494 258.251 256.393 258.461 256.316C258.671 256.236 258.914 256.196 259.191 256.196C259.527 256.196 259.832 256.259 260.106 256.386C260.379 256.509 260.596 256.686 260.756 256.916C260.916 257.146 260.996 257.419 260.996 257.736V261.431H260.071V257.921C260.071 257.611 259.964 257.373 259.751 257.206C259.541 257.036 259.266 256.951 258.926 256.951C258.696 256.951 258.479 256.989 258.276 257.066C258.072 257.139 257.907 257.253 257.781 257.406C257.657 257.556 257.596 257.748 257.596 257.981V261.431H256.676ZM264.622 261.531C264.142 261.531 263.719 261.426 263.352 261.216C262.986 261.006 262.699 260.704 262.492 260.311C262.286 259.918 262.182 259.446 262.182 258.896C262.182 258.353 262.276 257.876 262.462 257.466C262.649 257.056 262.919 256.736 263.272 256.506C263.629 256.276 264.057 256.161 264.557 256.161C265.044 256.161 265.456 256.266 265.792 256.476C266.129 256.686 266.384 256.983 266.557 257.366C266.734 257.746 266.822 258.198 266.822 258.721V259.061H263.117C263.117 259.388 263.171 259.684 263.277 259.951C263.387 260.214 263.552 260.424 263.772 260.581C263.992 260.738 264.271 260.816 264.607 260.816C264.937 260.816 265.221 260.739 265.457 260.586C265.697 260.433 265.851 260.211 265.917 259.921H266.787C266.727 260.271 266.587 260.566 266.367 260.806C266.151 261.046 265.889 261.228 265.582 261.351C265.279 261.471 264.959 261.531 264.622 261.531ZM263.122 258.436H265.932C265.932 258.139 265.882 257.873 265.782 257.636C265.682 257.396 265.529 257.208 265.322 257.071C265.119 256.931 264.862 256.861 264.552 256.861C264.229 256.861 263.961 256.939 263.747 257.096C263.534 257.249 263.376 257.448 263.272 257.691C263.169 257.931 263.119 258.179 263.122 258.436Z" fill="#36536B"/>
<path d="M93.092 275.456C92.7353 275.456 92.4587 275.408 92.262 275.311C92.0653 275.214 91.927 275.071 91.847 274.881C91.7703 274.691 91.732 274.458 91.732 274.181V270.936H90.892V270.261H91.757L91.982 268.756H92.662V270.256H93.827V270.936H92.662V274.151C92.662 274.334 92.6803 274.469 92.717 274.556C92.757 274.639 92.822 274.693 92.912 274.716C93.002 274.739 93.1287 274.751 93.292 274.751H93.857V275.371C93.7937 275.394 93.697 275.414 93.567 275.431C93.4403 275.448 93.282 275.456 93.092 275.456ZM97.017 275.531C96.5403 275.531 96.1237 275.429 95.767 275.226C95.4137 275.019 95.1387 274.718 94.942 274.321C94.7453 273.924 94.647 273.439 94.647 272.866C94.647 272.326 94.7387 271.853 94.922 271.446C95.1053 271.039 95.3737 270.724 95.727 270.501C96.0803 270.274 96.512 270.161 97.022 270.161C97.4987 270.161 97.912 270.266 98.262 270.476C98.612 270.683 98.8837 270.988 99.077 271.391C99.2737 271.794 99.372 272.286 99.372 272.866C99.372 273.393 99.282 273.856 99.102 274.256C98.922 274.656 98.657 274.969 98.307 275.196C97.9603 275.419 97.5303 275.531 97.017 275.531ZM97.022 274.801C97.3287 274.801 97.5887 274.723 97.802 274.566C98.0153 274.409 98.177 274.184 98.287 273.891C98.4003 273.598 98.457 273.249 98.457 272.846C98.457 272.476 98.407 272.144 98.307 271.851C98.2103 271.554 98.057 271.319 97.847 271.146C97.637 270.973 97.362 270.886 97.022 270.886C96.7087 270.886 96.4437 270.964 96.227 271.121C96.0103 271.274 95.8453 271.498 95.732 271.791C95.622 272.084 95.567 272.436 95.567 272.846C95.567 273.209 95.6153 273.539 95.712 273.836C95.812 274.133 95.9687 274.368 96.182 274.541C96.3987 274.714 96.6787 274.801 97.022 274.801ZM102.262 275.456C101.905 275.456 101.629 275.408 101.432 275.311C101.235 275.214 101.097 275.071 101.017 274.881C100.94 274.691 100.902 274.458 100.902 274.181V270.936H100.062V270.261H100.927L101.152 268.756H101.832V270.256H102.997V270.936H101.832V274.151C101.832 274.334 101.85 274.469 101.887 274.556C101.927 274.639 101.992 274.693 102.082 274.716C102.172 274.739 102.299 274.751 102.462 274.751H103.027V275.371C102.964 275.394 102.867 275.414 102.737 275.431C102.61 275.448 102.452 275.456 102.262 275.456ZM105.674 275.531C105.338 275.531 105.041 275.473 104.784 275.356C104.531 275.236 104.331 275.064 104.184 274.841C104.041 274.618 103.969 274.348 103.969 274.031C103.969 273.458 104.169 273.031 104.569 272.751C104.969 272.471 105.611 272.321 106.494 272.301L107.414 272.276V271.871C107.414 271.554 107.319 271.304 107.129 271.121C106.939 270.934 106.646 270.841 106.249 270.841C105.953 270.844 105.691 270.914 105.464 271.051C105.238 271.188 105.093 271.411 105.029 271.721H104.214C104.234 271.384 104.328 271.101 104.494 270.871C104.664 270.638 104.903 270.461 105.209 270.341C105.516 270.221 105.878 270.161 106.294 270.161C106.744 270.161 107.118 270.224 107.414 270.351C107.714 270.478 107.938 270.664 108.084 270.911C108.234 271.158 108.309 271.461 108.309 271.821V275.431H107.519L107.449 274.461C107.253 274.864 106.999 275.144 106.689 275.301C106.383 275.454 106.044 275.531 105.674 275.531ZM105.949 274.866C106.126 274.866 106.299 274.834 106.469 274.771C106.643 274.708 106.799 274.623 106.939 274.516C107.083 274.406 107.198 274.284 107.284 274.151C107.371 274.014 107.414 273.874 107.414 273.731V272.846L106.649 272.861C106.253 272.868 105.923 272.908 105.659 272.981C105.396 273.054 105.198 273.169 105.064 273.326C104.931 273.483 104.864 273.688 104.864 273.941C104.864 274.231 104.966 274.458 105.169 274.621C105.373 274.784 105.633 274.866 105.949 274.866ZM111.057 275.496C110.777 275.496 110.55 275.458 110.377 275.381C110.207 275.304 110.075 275.201 109.982 275.071C109.892 274.941 109.83 274.793 109.797 274.626C109.767 274.456 109.752 274.281 109.752 274.101V268.001H110.662V274.011C110.662 274.271 110.712 274.466 110.812 274.596C110.915 274.726 111.058 274.798 111.242 274.811L111.522 274.816V275.416C111.445 275.439 111.365 275.458 111.282 275.471C111.198 275.488 111.123 275.496 111.057 275.496ZM116.661 275.531C116.324 275.531 116.027 275.473 115.771 275.356C115.517 275.236 115.317 275.064 115.171 274.841C115.027 274.618 114.956 274.348 114.956 274.031C114.956 273.458 115.156 273.031 115.556 272.751C115.956 272.471 116.597 272.321 117.481 272.301L118.401 272.276V271.871C118.401 271.554 118.306 271.304 118.116 271.121C117.926 270.934 117.632 270.841 117.236 270.841C116.939 270.844 116.677 270.914 116.451 271.051C116.224 271.188 116.079 271.411 116.016 271.721H115.201C115.221 271.384 115.314 271.101 115.481 270.871C115.651 270.638 115.889 270.461 116.196 270.341C116.502 270.221 116.864 270.161 117.281 270.161C117.731 270.161 118.104 270.224 118.401 270.351C118.701 270.478 118.924 270.664 119.071 270.911C119.221 271.158 119.296 271.461 119.296 271.821V275.431H118.506L118.436 274.461C118.239 274.864 117.986 275.144 117.676 275.301C117.369 275.454 117.031 275.531 116.661 275.531ZM116.936 274.866C117.112 274.866 117.286 274.834 117.456 274.771C117.629 274.708 117.786 274.623 117.926 274.516C118.069 274.406 118.184 274.284 118.271 274.151C118.357 274.014 118.401 273.874 118.401 273.731V272.846L117.636 272.861C117.239 272.868 116.909 272.908 116.646 272.981C116.382 273.054 116.184 273.169 116.051 273.326C115.917 273.483 115.851 273.688 115.851 273.941C115.851 274.231 115.952 274.458 116.156 274.621C116.359 274.784 116.619 274.866 116.936 274.866ZM120.738 275.431V270.261H121.628V271.011C121.771 270.784 121.968 270.586 122.218 270.416C122.468 270.246 122.793 270.161 123.193 270.161C123.38 270.161 123.57 270.193 123.763 270.256C123.96 270.319 124.14 270.414 124.303 270.541C124.466 270.668 124.593 270.823 124.683 271.006C124.843 270.753 125.06 270.549 125.333 270.396C125.606 270.239 125.915 270.161 126.258 270.161C126.438 270.161 126.626 270.189 126.823 270.246C127.02 270.299 127.201 270.396 127.368 270.536C127.538 270.673 127.676 270.864 127.783 271.111C127.89 271.354 127.943 271.668 127.943 272.051V275.431H127.013V272.141C127.013 271.828 126.963 271.586 126.863 271.416C126.763 271.243 126.631 271.121 126.468 271.051C126.308 270.981 126.136 270.946 125.953 270.946C125.793 270.946 125.623 270.978 125.443 271.041C125.263 271.104 125.11 271.211 124.983 271.361C124.856 271.511 124.793 271.716 124.793 271.976V275.431H123.873V271.871C123.873 271.668 123.818 271.498 123.708 271.361C123.601 271.224 123.466 271.121 123.303 271.051C123.143 270.981 122.983 270.946 122.823 270.946C122.646 270.946 122.468 270.981 122.288 271.051C122.111 271.121 121.961 271.233 121.838 271.386C121.718 271.536 121.658 271.733 121.658 271.976V275.431H120.738ZM131.46 275.531C130.984 275.531 130.567 275.429 130.21 275.226C129.857 275.019 129.582 274.718 129.385 274.321C129.189 273.924 129.09 273.439 129.09 272.866C129.09 272.326 129.182 271.853 129.365 271.446C129.549 271.039 129.817 270.724 130.17 270.501C130.524 270.274 130.955 270.161 131.465 270.161C131.942 270.161 132.355 270.266 132.705 270.476C133.055 270.683 133.327 270.988 133.52 271.391C133.717 271.794 133.815 272.286 133.815 272.866C133.815 273.393 133.725 273.856 133.545 274.256C133.365 274.656 133.1 274.969 132.75 275.196C132.404 275.419 131.974 275.531 131.46 275.531ZM131.465 274.801C131.772 274.801 132.032 274.723 132.245 274.566C132.459 274.409 132.62 274.184 132.73 273.891C132.844 273.598 132.9 273.249 132.9 272.846C132.9 272.476 132.85 272.144 132.75 271.851C132.654 271.554 132.5 271.319 132.29 271.146C132.08 270.973 131.805 270.886 131.465 270.886C131.152 270.886 130.887 270.964 130.67 271.121C130.454 271.274 130.289 271.498 130.175 271.791C130.065 272.084 130.01 272.436 130.01 272.846C130.01 273.209 130.059 273.539 130.155 273.836C130.255 274.133 130.412 274.368 130.625 274.541C130.842 274.714 131.122 274.801 131.465 274.801ZM136.925 275.531C136.655 275.528 136.4 275.489 136.16 275.416C135.923 275.339 135.713 275.228 135.53 275.081C135.347 274.934 135.202 274.753 135.095 274.536C134.992 274.316 134.94 274.061 134.94 273.771V270.261H135.865V273.676C135.865 274.013 135.968 274.286 136.175 274.496C136.385 274.706 136.7 274.811 137.12 274.811C137.5 274.811 137.805 274.713 138.035 274.516C138.268 274.316 138.385 274.019 138.385 273.626V270.261H139.305V275.431H138.57L138.475 274.441C138.412 274.701 138.303 274.911 138.15 275.071C138 275.231 137.818 275.349 137.605 275.426C137.395 275.499 137.168 275.534 136.925 275.531ZM140.885 275.431V270.261H141.78V271.011C141.863 270.868 141.978 270.733 142.125 270.606C142.275 270.479 142.455 270.378 142.665 270.301C142.878 270.224 143.123 270.186 143.4 270.186C143.726 270.186 144.026 270.251 144.3 270.381C144.576 270.511 144.796 270.714 144.96 270.991C145.126 271.264 145.21 271.618 145.21 272.051V275.431H144.285V272.141C144.285 271.738 144.178 271.439 143.965 271.246C143.755 271.049 143.481 270.951 143.145 270.951C142.911 270.951 142.693 270.989 142.49 271.066C142.286 271.139 142.121 271.253 141.995 271.406C141.868 271.556 141.805 271.746 141.805 271.976V275.431H140.885ZM148.336 275.456C147.979 275.456 147.703 275.408 147.506 275.311C147.309 275.214 147.171 275.071 147.091 274.881C147.014 274.691 146.976 274.458 146.976 274.181V270.936H146.136V270.261H147.001L147.226 268.756H147.906V270.256H149.071V270.936H147.906V274.151C147.906 274.334 147.924 274.469 147.961 274.556C148.001 274.639 148.066 274.693 148.156 274.716C148.246 274.739 148.373 274.751 148.536 274.751H149.101V275.371C149.038 275.394 148.941 275.414 148.811 275.431C148.684 275.448 148.526 275.456 148.336 275.456ZM154.518 275.531C153.844 275.531 153.311 275.301 152.918 274.841C152.528 274.381 152.333 273.709 152.333 272.826C152.333 272.289 152.411 271.821 152.568 271.421C152.724 271.021 152.959 270.711 153.273 270.491C153.586 270.271 153.976 270.161 154.443 270.161C154.693 270.161 154.913 270.193 155.103 270.256C155.293 270.319 155.458 270.399 155.598 270.496C155.738 270.593 155.851 270.693 155.938 270.796C156.028 270.899 156.094 270.994 156.138 271.081V268.001H157.073V275.431H156.363L156.263 274.371C156.229 274.471 156.176 274.588 156.103 274.721C156.029 274.851 155.926 274.979 155.793 275.106C155.663 275.229 155.493 275.331 155.283 275.411C155.073 275.491 154.818 275.531 154.518 275.531ZM154.683 274.821C155.203 274.821 155.574 274.663 155.798 274.346C156.024 274.026 156.138 273.504 156.138 272.781C156.134 272.378 156.084 272.034 155.988 271.751C155.891 271.468 155.738 271.253 155.528 271.106C155.321 270.956 155.044 270.881 154.698 270.881C154.274 270.881 153.929 271.033 153.663 271.336C153.396 271.639 153.263 272.121 153.263 272.781C153.263 273.428 153.383 273.929 153.623 274.286C153.863 274.643 154.216 274.821 154.683 274.821ZM160.784 275.531C160.304 275.531 159.881 275.426 159.514 275.216C159.148 275.006 158.861 274.704 158.654 274.311C158.448 273.918 158.344 273.446 158.344 272.896C158.344 272.353 158.438 271.876 158.624 271.466C158.811 271.056 159.081 270.736 159.434 270.506C159.791 270.276 160.219 270.161 160.719 270.161C161.206 270.161 161.618 270.266 161.954 270.476C162.291 270.686 162.546 270.983 162.719 271.366C162.896 271.746 162.984 272.198 162.984 272.721V273.061H159.279C159.279 273.388 159.333 273.684 159.439 273.951C159.549 274.214 159.714 274.424 159.934 274.581C160.154 274.738 160.433 274.816 160.769 274.816C161.099 274.816 161.383 274.739 161.619 274.586C161.859 274.433 162.013 274.211 162.079 273.921H162.949C162.889 274.271 162.749 274.566 162.529 274.806C162.313 275.046 162.051 275.228 161.744 275.351C161.441 275.471 161.121 275.531 160.784 275.531ZM159.284 272.436H162.094C162.094 272.139 162.044 271.873 161.944 271.636C161.844 271.396 161.691 271.208 161.484 271.071C161.281 270.931 161.024 270.861 160.714 270.861C160.391 270.861 160.123 270.939 159.909 271.096C159.696 271.249 159.538 271.448 159.434 271.691C159.331 271.931 159.281 272.179 159.284 272.436ZM166.148 275.531C165.475 275.531 164.942 275.301 164.548 274.841C164.158 274.381 163.963 273.709 163.963 272.826C163.963 272.289 164.042 271.821 164.198 271.421C164.355 271.021 164.59 270.711 164.903 270.491C165.217 270.271 165.607 270.161 166.073 270.161C166.323 270.161 166.543 270.193 166.733 270.256C166.923 270.319 167.088 270.399 167.228 270.496C167.368 270.593 167.482 270.693 167.568 270.796C167.658 270.899 167.725 270.994 167.768 271.081V268.001H168.703V275.431H167.993L167.893 274.371C167.86 274.471 167.807 274.588 167.733 274.721C167.66 274.851 167.557 274.979 167.423 275.106C167.293 275.229 167.123 275.331 166.913 275.411C166.703 275.491 166.448 275.531 166.148 275.531ZM166.313 274.821C166.833 274.821 167.205 274.663 167.428 274.346C167.655 274.026 167.768 273.504 167.768 272.781C167.765 272.378 167.715 272.034 167.618 271.751C167.522 271.468 167.368 271.253 167.158 271.106C166.952 270.956 166.675 270.881 166.328 270.881C165.905 270.881 165.56 271.033 165.293 271.336C165.027 271.639 164.893 272.121 164.893 272.781C164.893 273.428 165.013 273.929 165.253 274.286C165.493 274.643 165.847 274.821 166.313 274.821ZM172.13 275.531C171.86 275.528 171.605 275.489 171.365 275.416C171.129 275.339 170.919 275.228 170.735 275.081C170.552 274.934 170.407 274.753 170.3 274.536C170.197 274.316 170.145 274.061 170.145 273.771V270.261H171.07V273.676C171.07 274.013 171.174 274.286 171.38 274.496C171.59 274.706 171.905 274.811 172.325 274.811C172.705 274.811 173.01 274.713 173.24 274.516C173.474 274.316 173.59 274.019 173.59 273.626V270.261H174.51V275.431H173.775L173.68 274.441C173.617 274.701 173.509 274.911 173.355 275.071C173.205 275.231 173.024 275.349 172.81 275.426C172.6 275.499 172.374 275.534 172.13 275.531ZM178.111 275.531C177.644 275.531 177.231 275.429 176.871 275.226C176.514 275.023 176.234 274.723 176.031 274.326C175.831 273.929 175.731 273.443 175.731 272.866C175.731 272.326 175.823 271.854 176.006 271.451C176.193 271.044 176.463 270.728 176.816 270.501C177.173 270.274 177.604 270.161 178.111 270.161C178.481 270.161 178.813 270.233 179.106 270.376C179.403 270.516 179.646 270.716 179.836 270.976C180.026 271.236 180.143 271.543 180.186 271.896H179.366C179.336 271.716 179.266 271.551 179.156 271.401C179.049 271.251 178.908 271.131 178.731 271.041C178.558 270.951 178.353 270.906 178.116 270.906C177.673 270.906 177.311 271.066 177.031 271.386C176.754 271.706 176.616 272.196 176.616 272.856C176.616 273.453 176.743 273.931 176.996 274.291C177.253 274.648 177.629 274.826 178.126 274.826C178.363 274.826 178.569 274.781 178.746 274.691C178.923 274.598 179.064 274.476 179.171 274.326C179.278 274.173 179.346 274.009 179.376 273.836H180.181C180.138 274.183 180.019 274.483 179.826 274.736C179.636 274.989 179.393 275.186 179.096 275.326C178.803 275.463 178.474 275.531 178.111 275.531ZM183.131 275.456C182.774 275.456 182.498 275.408 182.301 275.311C182.104 275.214 181.966 275.071 181.886 274.881C181.809 274.691 181.771 274.458 181.771 274.181V270.936H180.931V270.261H181.796L182.021 268.756H182.701V270.256H183.866V270.936H182.701V274.151C182.701 274.334 182.719 274.469 182.756 274.556C182.796 274.639 182.861 274.693 182.951 274.716C183.041 274.739 183.168 274.751 183.331 274.751H183.896V275.371C183.833 275.394 183.736 275.414 183.606 275.431C183.479 275.448 183.321 275.456 183.131 275.456ZM187.171 275.531C186.691 275.531 186.268 275.426 185.901 275.216C185.534 275.006 185.248 274.704 185.041 274.311C184.834 273.918 184.731 273.446 184.731 272.896C184.731 272.353 184.824 271.876 185.011 271.466C185.198 271.056 185.468 270.736 185.821 270.506C186.178 270.276 186.606 270.161 187.106 270.161C187.593 270.161 188.004 270.266 188.341 270.476C188.678 270.686 188.933 270.983 189.106 271.366C189.283 271.746 189.371 272.198 189.371 272.721V273.061H185.666C185.666 273.388 185.719 273.684 185.826 273.951C185.936 274.214 186.101 274.424 186.321 274.581C186.541 274.738 186.819 274.816 187.156 274.816C187.486 274.816 187.769 274.739 188.006 274.586C188.246 274.433 188.399 274.211 188.466 273.921H189.336C189.276 274.271 189.136 274.566 188.916 274.806C188.699 275.046 188.438 275.228 188.131 275.351C187.828 275.471 187.508 275.531 187.171 275.531ZM185.671 272.436H188.481C188.481 272.139 188.431 271.873 188.331 271.636C188.231 271.396 188.078 271.208 187.871 271.071C187.668 270.931 187.411 270.861 187.101 270.861C186.778 270.861 186.509 270.939 186.296 271.096C186.083 271.249 185.924 271.448 185.821 271.691C185.718 271.931 185.668 272.179 185.671 272.436ZM192.535 275.531C191.862 275.531 191.328 275.301 190.935 274.841C190.545 274.381 190.35 273.709 190.35 272.826C190.35 272.289 190.428 271.821 190.585 271.421C190.742 271.021 190.977 270.711 191.29 270.491C191.603 270.271 191.993 270.161 192.46 270.161C192.71 270.161 192.93 270.193 193.12 270.256C193.31 270.319 193.475 270.399 193.615 270.496C193.755 270.593 193.868 270.693 193.955 270.796C194.045 270.899 194.112 270.994 194.155 271.081V268.001H195.09V275.431H194.38L194.28 274.371C194.247 274.471 194.193 274.588 194.12 274.721C194.047 274.851 193.943 274.979 193.81 275.106C193.68 275.229 193.51 275.331 193.3 275.411C193.09 275.491 192.835 275.531 192.535 275.531ZM192.7 274.821C193.22 274.821 193.592 274.663 193.815 274.346C194.042 274.026 194.155 273.504 194.155 272.781C194.152 272.378 194.102 272.034 194.005 271.751C193.908 271.468 193.755 271.253 193.545 271.106C193.338 270.956 193.062 270.881 192.715 270.881C192.292 270.881 191.947 271.033 191.68 271.336C191.413 271.639 191.28 272.121 191.28 272.781C191.28 273.428 191.4 273.929 191.64 274.286C191.88 274.643 192.233 274.821 192.7 274.821ZM199.739 275.431V270.936H198.644V270.261H199.739V269.461C199.739 269.051 199.842 268.739 200.049 268.526C200.259 268.309 200.572 268.201 200.989 268.201H201.964L201.969 268.856H201.199C200.985 268.856 200.84 268.913 200.764 269.026C200.687 269.139 200.649 269.311 200.649 269.541V270.261H201.919V270.936H200.664V275.431H199.739ZM203.004 275.431V270.261H203.884V271.256C203.97 271.009 204.092 270.806 204.249 270.646C204.405 270.483 204.584 270.361 204.784 270.281C204.987 270.201 205.197 270.161 205.414 270.161C205.49 270.161 205.565 270.166 205.639 270.176C205.712 270.186 205.769 270.203 205.809 270.226V271.121C205.759 271.098 205.694 271.083 205.614 271.076C205.537 271.066 205.472 271.061 205.419 271.061C205.212 271.048 205.019 271.061 204.839 271.101C204.659 271.138 204.5 271.203 204.364 271.296C204.227 271.389 204.119 271.513 204.039 271.666C203.962 271.816 203.924 271.999 203.924 272.216V275.431H203.004ZM208.902 275.531C208.425 275.531 208.008 275.429 207.652 275.226C207.298 275.019 207.023 274.718 206.827 274.321C206.63 273.924 206.532 273.439 206.532 272.866C206.532 272.326 206.623 271.853 206.807 271.446C206.99 271.039 207.258 270.724 207.612 270.501C207.965 270.274 208.397 270.161 208.907 270.161C209.383 270.161 209.797 270.266 210.147 270.476C210.497 270.683 210.768 270.988 210.962 271.391C211.158 271.794 211.257 272.286 211.257 272.866C211.257 273.393 211.167 273.856 210.987 274.256C210.807 274.656 210.542 274.969 210.192 275.196C209.845 275.419 209.415 275.531 208.902 275.531ZM208.907 274.801C209.213 274.801 209.473 274.723 209.687 274.566C209.9 274.409 210.062 274.184 210.172 273.891C210.285 273.598 210.342 273.249 210.342 272.846C210.342 272.476 210.292 272.144 210.192 271.851C210.095 271.554 209.942 271.319 209.732 271.146C209.522 270.973 209.247 270.886 208.907 270.886C208.593 270.886 208.328 270.964 208.112 271.121C207.895 271.274 207.73 271.498 207.617 271.791C207.507 272.084 207.452 272.436 207.452 272.846C207.452 273.209 207.5 273.539 207.597 273.836C207.697 274.133 207.853 274.368 208.067 274.541C208.283 274.714 208.563 274.801 208.907 274.801ZM212.486 275.431V270.261H213.376V271.011C213.519 270.784 213.716 270.586 213.966 270.416C214.216 270.246 214.541 270.161 214.941 270.161C215.128 270.161 215.318 270.193 215.511 270.256C215.708 270.319 215.888 270.414 216.051 270.541C216.214 270.668 216.341 270.823 216.431 271.006C216.591 270.753 216.808 270.549 217.081 270.396C217.354 270.239 217.663 270.161 218.006 270.161C218.186 270.161 218.374 270.189 218.571 270.246C218.768 270.299 218.949 270.396 219.116 270.536C219.286 270.673 219.424 270.864 219.531 271.111C219.638 271.354 219.691 271.668 219.691 272.051V275.431H218.761V272.141C218.761 271.828 218.711 271.586 218.611 271.416C218.511 271.243 218.379 271.121 218.216 271.051C218.056 270.981 217.884 270.946 217.701 270.946C217.541 270.946 217.371 270.978 217.191 271.041C217.011 271.104 216.858 271.211 216.731 271.361C216.604 271.511 216.541 271.716 216.541 271.976V275.431H215.621V271.871C215.621 271.668 215.566 271.498 215.456 271.361C215.349 271.224 215.214 271.121 215.051 271.051C214.891 270.981 214.731 270.946 214.571 270.946C214.394 270.946 214.216 270.981 214.036 271.051C213.859 271.121 213.709 271.233 213.586 271.386C213.466 271.536 213.406 271.733 213.406 271.976V275.431H212.486ZM224.026 277.081C223.723 277.081 223.515 277.059 223.401 277.016C223.288 276.973 223.231 276.951 223.231 276.951V276.351L223.761 276.361C223.951 276.368 224.11 276.354 224.236 276.321C224.363 276.288 224.465 276.243 224.541 276.186C224.618 276.129 224.676 276.066 224.716 275.996C224.76 275.926 224.795 275.859 224.821 275.796L225.001 275.306L222.981 270.261H223.916L225.441 274.251L226.956 270.261H227.861L225.686 275.821C225.55 276.148 225.398 276.403 225.231 276.586C225.068 276.769 224.885 276.898 224.681 276.971C224.481 277.044 224.263 277.081 224.026 277.081ZM230.835 275.531C230.359 275.531 229.942 275.429 229.585 275.226C229.232 275.019 228.957 274.718 228.76 274.321C228.564 273.924 228.465 273.439 228.465 272.866C228.465 272.326 228.557 271.853 228.74 271.446C228.924 271.039 229.192 270.724 229.545 270.501C229.899 270.274 230.33 270.161 230.84 270.161C231.317 270.161 231.73 270.266 232.08 270.476C232.43 270.683 232.702 270.988 232.895 271.391C233.092 271.794 233.19 272.286 233.19 272.866C233.19 273.393 233.1 273.856 232.92 274.256C232.74 274.656 232.475 274.969 232.125 275.196C231.779 275.419 231.349 275.531 230.835 275.531ZM230.84 274.801C231.147 274.801 231.407 274.723 231.62 274.566C231.834 274.409 231.995 274.184 232.105 273.891C232.219 273.598 232.275 273.249 232.275 272.846C232.275 272.476 232.225 272.144 232.125 271.851C232.029 271.554 231.875 271.319 231.665 271.146C231.455 270.973 231.18 270.886 230.84 270.886C230.527 270.886 230.262 270.964 230.045 271.121C229.829 271.274 229.664 271.498 229.55 271.791C229.44 272.084 229.385 272.436 229.385 272.846C229.385 273.209 229.434 273.539 229.53 273.836C229.63 274.133 229.787 274.368 230 274.541C230.217 274.714 230.497 274.801 230.84 274.801ZM236.3 275.531C236.03 275.528 235.775 275.489 235.535 275.416C235.298 275.339 235.088 275.228 234.905 275.081C234.722 274.934 234.577 274.753 234.47 274.536C234.367 274.316 234.315 274.061 234.315 273.771V270.261H235.24V273.676C235.24 274.013 235.343 274.286 235.55 274.496C235.76 274.706 236.075 274.811 236.495 274.811C236.875 274.811 237.18 274.713 237.41 274.516C237.643 274.316 237.76 274.019 237.76 273.626V270.261H238.68V275.431H237.945L237.85 274.441C237.787 274.701 237.678 274.911 237.525 275.071C237.375 275.231 237.193 275.349 236.98 275.426C236.77 275.499 236.543 275.534 236.3 275.531ZM240.26 275.431V270.261H241.14V271.256C241.226 271.009 241.348 270.806 241.505 270.646C241.661 270.483 241.84 270.361 242.04 270.281C242.243 270.201 242.453 270.161 242.67 270.161C242.746 270.161 242.821 270.166 242.895 270.176C242.968 270.186 243.025 270.203 243.065 270.226V271.121C243.015 271.098 242.95 271.083 242.87 271.076C242.793 271.066 242.728 271.061 242.675 271.061C242.468 271.048 242.275 271.061 242.095 271.101C241.915 271.138 241.756 271.203 241.62 271.296C241.483 271.389 241.375 271.513 241.295 271.666C241.218 271.816 241.18 271.999 241.18 272.216V275.431H240.26Z" fill="#36536B"/>
<path d="M92.647 289.531C92.3103 289.531 92.0137 289.473 91.757 289.356C91.5037 289.236 91.3037 289.064 91.157 288.841C91.0137 288.618 90.942 288.348 90.942 288.031C90.942 287.458 91.142 287.031 91.542 286.751C91.942 286.471 92.5837 286.321 93.467 286.301L94.387 286.276V285.871C94.387 285.554 94.292 285.304 94.102 285.121C93.912 284.934 93.6187 284.841 93.222 284.841C92.9253 284.844 92.6637 284.914 92.437 285.051C92.2103 285.188 92.0653 285.411 92.002 285.721H91.187C91.207 285.384 91.3003 285.101 91.467 284.871C91.637 284.638 91.8753 284.461 92.182 284.341C92.4887 284.221 92.8503 284.161 93.267 284.161C93.717 284.161 94.0903 284.224 94.387 284.351C94.687 284.478 94.9103 284.664 95.057 284.911C95.207 285.158 95.282 285.461 95.282 285.821V289.431H94.492L94.422 288.461C94.2253 288.864 93.972 289.144 93.662 289.301C93.3553 289.454 93.017 289.531 92.647 289.531ZM92.922 288.866C93.0987 288.866 93.272 288.834 93.442 288.771C93.6153 288.708 93.772 288.623 93.912 288.516C94.0553 288.406 94.1703 288.284 94.257 288.151C94.3437 288.014 94.387 287.874 94.387 287.731V286.846L93.622 286.861C93.2253 286.868 92.8953 286.908 92.632 286.981C92.3687 287.054 92.1703 287.169 92.037 287.326C91.9037 287.483 91.837 287.688 91.837 287.941C91.837 288.231 91.9387 288.458 92.142 288.621C92.3453 288.784 92.6053 288.866 92.922 288.866ZM98.8044 289.531C98.3377 289.531 97.9244 289.429 97.5644 289.226C97.2077 289.023 96.9277 288.723 96.7244 288.326C96.5244 287.929 96.4244 287.443 96.4244 286.866C96.4244 286.326 96.516 285.854 96.6994 285.451C96.886 285.044 97.156 284.728 97.5094 284.501C97.866 284.274 98.2977 284.161 98.8044 284.161C99.1744 284.161 99.506 284.233 99.7994 284.376C100.096 284.516 100.339 284.716 100.529 284.976C100.719 285.236 100.836 285.543 100.879 285.896H100.059C100.029 285.716 99.9594 285.551 99.8494 285.401C99.7427 285.251 99.601 285.131 99.4244 285.041C99.251 284.951 99.046 284.906 98.8094 284.906C98.366 284.906 98.0044 285.066 97.7244 285.386C97.4477 285.706 97.3094 286.196 97.3094 286.856C97.3094 287.453 97.436 287.931 97.6894 288.291C97.946 288.648 98.3227 288.826 98.8194 288.826C99.056 288.826 99.2627 288.781 99.4394 288.691C99.616 288.598 99.7577 288.476 99.8644 288.326C99.971 288.173 100.039 288.009 100.069 287.836H100.874C100.831 288.183 100.713 288.483 100.519 288.736C100.329 288.989 100.086 289.186 99.7894 289.326C99.496 289.463 99.1677 289.531 98.8044 289.531ZM104.215 289.531C103.748 289.531 103.335 289.429 102.975 289.226C102.618 289.023 102.338 288.723 102.135 288.326C101.935 287.929 101.835 287.443 101.835 286.866C101.835 286.326 101.926 285.854 102.11 285.451C102.296 285.044 102.566 284.728 102.92 284.501C103.276 284.274 103.708 284.161 104.215 284.161C104.585 284.161 104.916 284.233 105.21 284.376C105.506 284.516 105.75 284.716 105.94 284.976C106.13 285.236 106.246 285.543 106.29 285.896H105.47C105.44 285.716 105.37 285.551 105.26 285.401C105.153 285.251 105.011 285.131 104.835 285.041C104.661 284.951 104.456 284.906 104.22 284.906C103.776 284.906 103.415 285.066 103.135 285.386C102.858 285.706 102.72 286.196 102.72 286.856C102.72 287.453 102.846 287.931 103.1 288.291C103.356 288.648 103.733 288.826 104.23 288.826C104.466 288.826 104.673 288.781 104.85 288.691C105.026 288.598 105.168 288.476 105.275 288.326C105.381 288.173 105.45 288.009 105.48 287.836H106.285C106.241 288.183 106.123 288.483 105.93 288.736C105.74 288.989 105.496 289.186 105.2 289.326C104.906 289.463 104.578 289.531 104.215 289.531ZM109.615 289.531C109.138 289.531 108.721 289.429 108.365 289.226C108.011 289.019 107.736 288.718 107.54 288.321C107.343 287.924 107.245 287.439 107.245 286.866C107.245 286.326 107.336 285.853 107.52 285.446C107.703 285.039 107.971 284.724 108.325 284.501C108.678 284.274 109.11 284.161 109.62 284.161C110.096 284.161 110.51 284.266 110.86 284.476C111.21 284.683 111.481 284.988 111.675 285.391C111.871 285.794 111.97 286.286 111.97 286.866C111.97 287.393 111.88 287.856 111.7 288.256C111.52 288.656 111.255 288.969 110.905 289.196C110.558 289.419 110.128 289.531 109.615 289.531ZM109.62 288.801C109.926 288.801 110.186 288.723 110.4 288.566C110.613 288.409 110.775 288.184 110.885 287.891C110.998 287.598 111.055 287.249 111.055 286.846C111.055 286.476 111.005 286.144 110.905 285.851C110.808 285.554 110.655 285.319 110.445 285.146C110.235 284.973 109.96 284.886 109.62 284.886C109.306 284.886 109.041 284.964 108.825 285.121C108.608 285.274 108.443 285.498 108.33 285.791C108.22 286.084 108.165 286.436 108.165 286.846C108.165 287.209 108.213 287.539 108.31 287.836C108.41 288.133 108.566 288.368 108.78 288.541C108.996 288.714 109.276 288.801 109.62 288.801ZM115.079 289.531C114.809 289.528 114.554 289.489 114.314 289.416C114.078 289.339 113.868 289.228 113.684 289.081C113.501 288.934 113.356 288.753 113.249 288.536C113.146 288.316 113.094 288.061 113.094 287.771V284.261H114.019V287.676C114.019 288.013 114.123 288.286 114.329 288.496C114.539 288.706 114.854 288.811 115.274 288.811C115.654 288.811 115.959 288.713 116.189 288.516C116.423 288.316 116.539 288.019 116.539 287.626V284.261H117.459V289.431H116.724L116.629 288.441C116.566 288.701 116.458 288.911 116.304 289.071C116.154 289.231 115.973 289.349 115.759 289.426C115.549 289.499 115.323 289.534 115.079 289.531ZM119.039 289.431V284.261H119.934V285.011C120.017 284.868 120.132 284.733 120.279 284.606C120.429 284.479 120.609 284.378 120.819 284.301C121.032 284.224 121.277 284.186 121.554 284.186C121.88 284.186 122.18 284.251 122.454 284.381C122.73 284.511 122.95 284.714 123.114 284.991C123.28 285.264 123.364 285.618 123.364 286.051V289.431H122.439V286.141C122.439 285.738 122.332 285.439 122.119 285.246C121.909 285.049 121.635 284.951 121.299 284.951C121.065 284.951 120.847 284.989 120.644 285.066C120.44 285.139 120.275 285.253 120.149 285.406C120.022 285.556 119.959 285.746 119.959 285.976V289.431H119.039ZM126.49 289.456C126.134 289.456 125.857 289.408 125.66 289.311C125.464 289.214 125.325 289.071 125.245 288.881C125.169 288.691 125.13 288.458 125.13 288.181V284.936H124.29V284.261H125.155L125.38 282.756H126.06V284.256H127.225V284.936H126.06V288.151C126.06 288.334 126.079 288.469 126.115 288.556C126.155 288.639 126.22 288.693 126.31 288.716C126.4 288.739 126.527 288.751 126.69 288.751H127.255V289.371C127.192 289.394 127.095 289.414 126.965 289.431C126.839 289.448 126.68 289.456 126.49 289.456ZM130.939 289.431V284.261H131.834V289.431H130.939ZM130.914 283.166V282.206H131.859V283.166H130.914ZM135.245 289.531C134.885 289.531 134.55 289.476 134.24 289.366C133.933 289.253 133.678 289.078 133.475 288.841C133.271 288.601 133.145 288.296 133.095 287.926H133.935C133.978 288.129 134.061 288.299 134.185 288.436C134.308 288.569 134.46 288.671 134.64 288.741C134.823 288.808 135.023 288.841 135.24 288.841C135.59 288.841 135.871 288.776 136.085 288.646C136.298 288.516 136.405 288.316 136.405 288.046C136.405 287.856 136.348 287.704 136.235 287.591C136.125 287.474 135.951 287.389 135.715 287.336L134.645 287.071C134.228 286.971 133.895 286.814 133.645 286.601C133.398 286.388 133.273 286.089 133.27 285.706C133.27 285.403 133.343 285.136 133.49 284.906C133.636 284.676 133.855 284.494 134.145 284.361C134.438 284.228 134.803 284.161 135.24 284.161C135.803 284.161 136.256 284.288 136.6 284.541C136.943 284.791 137.123 285.159 137.14 285.646H136.32C136.286 285.399 136.176 285.204 135.99 285.061C135.803 284.914 135.55 284.841 135.23 284.841C134.903 284.841 134.635 284.908 134.425 285.041C134.218 285.171 134.115 285.374 134.115 285.651C134.115 285.834 134.188 285.979 134.335 286.086C134.485 286.189 134.701 286.276 134.985 286.346L136.025 286.606C136.261 286.669 136.458 286.753 136.615 286.856C136.771 286.959 136.895 287.074 136.985 287.201C137.075 287.328 137.138 287.461 137.175 287.601C137.215 287.738 137.235 287.869 137.235 287.996C137.235 288.313 137.156 288.586 137 288.816C136.843 289.043 136.616 289.219 136.32 289.346C136.023 289.469 135.665 289.531 135.245 289.531ZM143.634 289.531C142.931 289.531 142.367 289.414 141.944 289.181C141.521 288.944 141.214 288.609 141.024 288.176C140.837 287.743 140.744 287.226 140.744 286.626V282.201H142.229V286.736C142.229 287.276 142.359 287.671 142.619 287.921C142.879 288.168 143.217 288.291 143.634 288.291C143.911 288.291 144.156 288.238 144.369 288.131C144.582 288.021 144.749 287.853 144.869 287.626C144.992 287.396 145.054 287.099 145.054 286.736V282.201H146.529V286.676C146.529 287.259 146.434 287.766 146.244 288.196C146.054 288.623 145.746 288.953 145.319 289.186C144.896 289.416 144.334 289.531 143.634 289.531ZM150.69 289.531C150.33 289.531 149.979 289.486 149.635 289.396C149.292 289.306 148.979 289.171 148.695 288.991C148.412 288.811 148.179 288.586 147.995 288.316C147.815 288.046 147.707 287.729 147.67 287.366H149.165C149.215 287.586 149.31 287.771 149.45 287.921C149.594 288.071 149.777 288.186 150 288.266C150.227 288.346 150.485 288.386 150.775 288.386C151.005 288.386 151.224 288.353 151.43 288.286C151.637 288.219 151.805 288.118 151.935 287.981C152.065 287.844 152.13 287.673 152.13 287.466C152.13 287.219 152.04 287.034 151.86 286.911C151.68 286.784 151.435 286.684 151.125 286.611L149.77 286.316C149.387 286.236 149.052 286.113 148.765 285.946C148.482 285.776 148.264 285.556 148.11 285.286C147.957 285.013 147.88 284.681 147.88 284.291C147.88 283.841 148.004 283.453 148.25 283.126C148.5 282.799 148.839 282.549 149.265 282.376C149.695 282.199 150.177 282.111 150.71 282.111C151.314 282.111 151.822 282.209 152.235 282.406C152.652 282.599 152.97 282.863 153.19 283.196C153.41 283.526 153.522 283.894 153.525 284.301H152.065C152.039 284.051 151.962 283.851 151.835 283.701C151.709 283.548 151.545 283.438 151.345 283.371C151.149 283.301 150.924 283.266 150.67 283.266C150.234 283.266 149.915 283.354 149.715 283.531C149.515 283.708 149.415 283.913 149.415 284.146C149.415 284.366 149.49 284.544 149.64 284.681C149.794 284.814 150.039 284.916 150.375 284.986L151.63 285.256C152.097 285.346 152.475 285.489 152.765 285.686C153.055 285.879 153.267 286.114 153.4 286.391C153.534 286.668 153.6 286.978 153.6 287.321C153.6 287.758 153.475 288.143 153.225 288.476C152.979 288.806 152.637 289.064 152.2 289.251C151.764 289.438 151.26 289.531 150.69 289.531ZM159.885 289.531C159.018 289.531 158.315 289.358 157.775 289.011C157.235 288.661 156.925 288.123 156.845 287.396L158.365 287.366C158.445 287.696 158.617 287.948 158.88 288.121C159.147 288.291 159.48 288.376 159.88 288.376C160.12 288.376 160.332 288.338 160.515 288.261C160.702 288.181 160.848 288.074 160.955 287.941C161.062 287.804 161.115 287.649 161.115 287.476C161.115 287.209 161.03 287.011 160.86 286.881C160.69 286.748 160.428 286.641 160.075 286.561L158.89 286.306C158.34 286.196 157.898 285.978 157.565 285.651C157.235 285.321 157.067 284.879 157.06 284.326C157.057 283.873 157.178 283.481 157.425 283.151C157.675 282.818 158.013 282.561 158.44 282.381C158.87 282.201 159.352 282.111 159.885 282.111C160.432 282.111 160.903 282.209 161.3 282.406C161.7 282.599 162.007 282.861 162.22 283.191C162.437 283.518 162.542 283.879 162.535 284.276L161.06 284.301C161.013 283.981 160.907 283.729 160.74 283.546C160.573 283.363 160.297 283.271 159.91 283.271C159.71 283.271 159.532 283.293 159.375 283.336C159.218 283.379 159.083 283.441 158.97 283.521C158.857 283.598 158.77 283.689 158.71 283.796C158.653 283.903 158.625 284.023 158.625 284.156C158.625 284.366 158.695 284.533 158.835 284.656C158.978 284.776 159.247 284.888 159.64 284.991L160.805 285.276C161.462 285.433 161.935 285.701 162.225 286.081C162.518 286.461 162.665 286.923 162.665 287.466C162.665 287.883 162.55 288.246 162.32 288.556C162.093 288.866 161.772 289.106 161.355 289.276C160.938 289.446 160.448 289.531 159.885 289.531ZM159.235 290.386V289.086H160.495V290.386H159.235ZM159.26 282.466V281.166H160.525V282.466H159.26ZM164.877 289.431V284.016H163.587V283.191C164 283.191 164.333 283.153 164.587 283.076C164.843 282.996 165.035 282.883 165.162 282.736C165.288 282.586 165.363 282.408 165.387 282.201H166.357V289.431H164.877ZM170.664 289.541C169.787 289.541 169.102 289.223 168.609 288.586C168.119 287.949 167.874 287.033 167.874 285.836C167.874 285.036 167.987 284.358 168.214 283.801C168.441 283.244 168.762 282.823 169.179 282.536C169.596 282.246 170.091 282.101 170.664 282.101C171.524 282.101 172.202 282.423 172.699 283.066C173.196 283.706 173.444 284.628 173.444 285.831C173.444 287.028 173.199 287.946 172.709 288.586C172.219 289.223 171.537 289.541 170.664 289.541ZM170.664 288.346C171.094 288.346 171.409 288.154 171.609 287.771C171.809 287.384 171.909 286.739 171.909 285.836C171.909 284.913 171.807 284.251 171.604 283.851C171.401 283.451 171.086 283.251 170.659 283.251C170.232 283.251 169.914 283.453 169.704 283.856C169.497 284.259 169.394 284.919 169.394 285.836C169.394 286.736 169.497 287.379 169.704 287.766C169.911 288.153 170.231 288.346 170.664 288.346ZM177.595 289.431L177.6 287.831H174.27V286.631L177.565 282.201H179V286.606H180.115V287.831H179V289.431H177.595ZM175.62 286.606H177.6V283.956L175.62 286.606ZM180.898 289.431V287.841H182.498V289.431H180.898ZM186.193 289.541C185.743 289.541 185.323 289.454 184.933 289.281C184.543 289.108 184.225 288.864 183.978 288.551C183.731 288.234 183.593 287.864 183.563 287.441H184.953C185.013 287.721 185.146 287.949 185.353 288.126C185.56 288.299 185.82 288.386 186.133 288.386C186.48 288.386 186.783 288.304 187.043 288.141C187.306 287.978 187.503 287.718 187.633 287.361C187.766 287.004 187.813 286.538 187.773 285.961C187.68 286.138 187.55 286.293 187.383 286.426C187.22 286.556 187.028 286.658 186.808 286.731C186.588 286.801 186.343 286.836 186.073 286.836C185.583 286.836 185.148 286.744 184.768 286.561C184.391 286.374 184.095 286.111 183.878 285.771C183.665 285.428 183.558 285.021 183.558 284.551C183.558 284.078 183.671 283.656 183.898 283.286C184.125 282.916 184.441 282.626 184.848 282.416C185.255 282.206 185.731 282.101 186.278 282.101C186.891 282.101 187.42 282.248 187.863 282.541C188.31 282.831 188.651 283.244 188.888 283.781C189.128 284.314 189.248 284.943 189.248 285.666C189.248 286.529 189.125 287.249 188.878 287.826C188.635 288.399 188.285 288.829 187.828 289.116C187.371 289.399 186.826 289.541 186.193 289.541ZM186.323 285.676C186.526 285.676 186.723 285.631 186.913 285.541C187.106 285.448 187.265 285.331 187.388 285.191C187.511 285.051 187.573 284.906 187.573 284.756C187.576 284.433 187.525 284.156 187.418 283.926C187.315 283.693 187.168 283.514 186.978 283.391C186.791 283.268 186.573 283.206 186.323 283.206C186.093 283.206 185.888 283.259 185.708 283.366C185.528 283.473 185.386 283.623 185.283 283.816C185.18 284.009 185.128 284.233 185.128 284.486C185.128 284.863 185.238 285.156 185.458 285.366C185.678 285.573 185.966 285.676 186.323 285.676ZM192.891 289.541C192.014 289.541 191.329 289.223 190.836 288.586C190.346 287.949 190.101 287.033 190.101 285.836C190.101 285.036 190.214 284.358 190.441 283.801C190.667 283.244 190.989 282.823 191.406 282.536C191.822 282.246 192.317 282.101 192.891 282.101C193.751 282.101 194.429 282.423 194.926 283.066C195.422 283.706 195.671 284.628 195.671 285.831C195.671 287.028 195.426 287.946 194.936 288.586C194.446 289.223 193.764 289.541 192.891 289.541ZM192.891 288.346C193.321 288.346 193.636 288.154 193.836 287.771C194.036 287.384 194.136 286.739 194.136 285.836C194.136 284.913 194.034 284.251 193.831 283.851C193.627 283.451 193.312 283.251 192.886 283.251C192.459 283.251 192.141 283.453 191.931 283.856C191.724 284.259 191.621 284.919 191.621 285.836C191.621 286.736 191.724 287.379 191.931 287.766C192.137 288.153 192.457 288.346 192.891 288.346ZM196.656 289.431V288.251H197.756V289.431H196.656Z" fill="#36536B"/>
<defs>
<filter id="filter0_d_101_6" x="0" y="0" width="417.65" height="658.862" filterUnits="userSpaceOnUse" color-interpolation-filters="sRGB">
<feFlood flood-opacity="0" result="BackgroundImageFix"/>
<feColorMatrix in="SourceAlpha" type="matrix" values="0 0 0 0 0 0 0 0 0 0 0 0 0 0 0 0 0 0 127 0" result="hardAlpha"/>
<feOffset dx="25" dy="25"/>
<feGaussianBlur stdDeviation="40"/>
<feColorMatrix type="matrix" values="0 0 0 0 0.212302 0 0 0 0 0.32521 0 0 0 0 0.419299 0 0 0 0.300727 0"/>
<feBlend mode="normal" in2="BackgroundImageFix" result="effect1_dropShadow_101_6"/>
<feBlend mode="normal" in="SourceGraphic" in2="effect1_dropShadow_101_6" result="shape"/>
</filter>
<filter id="filter1_d_101_6" x="59.432" y="206.431" width="268" height="137" filterUnits="userSpaceOnUse" color-interpolation-filters="sRGB">
<feFlood flood-opacity="0" result="BackgroundImageFix"/>
<feColorMatrix in="SourceAlpha" type="matrix" values="0 0 0 0 0 0 0 0 0 0 0 0 0 0 0 0 0 0 127 0" result="hardAlpha"/>
<feOffset dx="10" dy="10"/>
<feGaussianBlur stdDeviation="12.5"/>
<feColorMatrix type="matrix" values="0 0 0 0 0.212302 0 0 0 0 0.32521 0 0 0 0 0.419299 0 0 0 0.25 0"/>
<feBlend mode="normal" in2="BackgroundImageFix" result="effect1_dropShadow_101_6"/>
<feBlend mode="normal" in="SourceGraphic" in2="effect1_dropShadow_101_6" result="shape"/>
</filter>
<linearGradient id="paint0_linear_101_6" x1="12194.5" y1="54.431" x2="12194.5" y2="1286.83" gradientUnits="userSpaceOnUse">
<stop stop-color="#454545"/>
<stop offset="0.22628" stop-color="#999999"/>
<stop offset="1" stop-color="white"/>
</linearGradient>
<linearGradient id="paint1_linear_101_6" x1="1664.1" y1="23600.7" x2="718.032" y2="23600.7" gradientUnits="userSpaceOnUse">
<stop stop-color="white" stop-opacity="0"/>
<stop offset="0.22218" stop-color="#BABABA"/>
<stop offset="0.54678" stop-color="white" stop-opacity="0"/>
<stop offset="1" stop-color="white" stop-opacity="0"/>
</linearGradient>
<linearGradient id="paint2_linear_101_6" x1="-1296.56" y1="23600.7" x2="-348.981" y2="23600.7" gradientUnits="userSpaceOnUse">
<stop stop-color="white" stop-opacity="0"/>
<stop offset="0.22218" stop-color="#BABABA"/>
<stop offset="0.54678" stop-color="white" stop-opacity="0"/>
<stop offset="1" stop-color="white" stop-opacity="0"/>
</linearGradient>
<linearGradient id="paint3_linear_101_6" x1="11717.4" y1="66.875" x2="11717.4" y2="46204.6" gradientUnits="userSpaceOnUse">
<stop stop-color="#9CB6CD"/>
<stop offset="0.42056" stop-color="#9AB3CA"/>
<stop offset="0.71659" stop-color="#557496"/>
<stop offset="1" stop-color="#475178"/>
</linearGradient>
</defs>
</svg>
