<svg width="263" height="500" viewBox="0 0 263 500" fill="none" xmlns="http://www.w3.org/2000/svg">
<g clip-path="url(#clip0_113_313)">
<g filter="url(#filter0_d_113_313)">
<path d="M36.208 1.001H227.442C245.782 1.001 260.65 15.236 260.65 32.796V468.066C260.65 485.626 245.783 499.862 227.442 499.862H36.208C17.868 499.862 3 485.626 3 468.066V32.796C3 15.236 17.868 1.001 36.208 1.001Z" fill="black"/>
</g>
<path opacity="0.75" fill-rule="evenodd" clip-rule="evenodd" d="M255.431 463.101V35.414C255.431 23.938 251.214 19.696 248.698 16.972C246.182 14.249 246.075 12.859 249.69 14.916C253.305 16.972 260.535 22.963 260.535 35.414V463.101C260.535 475.552 253.305 481.542 249.69 483.599C246.075 485.655 246.182 484.266 248.698 481.542C251.214 478.818 255.431 474.576 255.431 463.101Z" fill="url(#paint0_linear_113_313)"/>
<path d="M36.208 1.001H227.442C245.782 1.001 260.65 15.236 260.65 32.796V468.066C260.65 485.626 245.783 499.862 227.442 499.862H36.208C17.868 499.862 3 485.626 3 468.066V32.796C3 15.236 17.868 1.001 36.208 1.001Z" fill="#213648"/>
<path opacity="0.596" fill-rule="evenodd" clip-rule="evenodd" d="M228.18 0.43103H35.356C26.352 0.98003 18.05 5.08803 10.447 12.755C15.337 8.48703 24.057 2.77503 35.587 2.77503H227.949C239.479 2.77503 248.199 8.48703 253.089 12.755C245.486 5.08803 237.183 0.98003 228.18 0.43103Z" fill="url(#paint1_linear_113_313)" fill-opacity="0.65"/>
<path opacity="0.75" fill-rule="evenodd" clip-rule="evenodd" d="M8.104 463.101V35.414C8.104 23.938 12.321 19.696 14.837 16.972C17.353 14.249 17.46 12.859 13.845 14.916C10.23 16.972 3 22.963 3 35.414V463.101C3 475.552 10.23 481.542 13.845 483.599C17.46 485.655 17.353 484.266 14.837 481.542C12.321 478.818 8.104 474.576 8.104 463.101Z" fill="url(#paint2_linear_113_313)"/>
<path fill-rule="evenodd" clip-rule="evenodd" d="M2.432 101.988H3.397C3.9274 101.988 4.4361 102.199 4.8112 102.574C5.1863 102.949 5.397 103.458 5.397 103.988V164.338C5.397 164.868 5.1863 165.377 4.8112 165.752C4.4361 166.127 3.9274 166.338 3.397 166.338H2.432C1.9016 166.338 1.3929 166.127 1.0178 165.752C0.642699 165.377 0.431999 164.868 0.431999 164.338V103.988C0.431999 103.458 0.642699 102.949 1.0178 102.574C1.3929 102.199 1.9016 101.988 2.432 101.988ZM259.967 154.475H260.932C261.462 154.475 261.971 154.686 262.346 155.061C262.721 155.436 262.932 155.945 262.932 156.475V199.425C262.932 199.955 262.721 200.464 262.346 200.839C261.971 201.214 261.462 201.425 260.932 201.425H259.967C259.437 201.425 258.928 201.214 258.553 200.839C258.178 200.464 257.967 199.955 257.967 199.425V156.475C257.967 155.945 258.178 155.436 258.553 155.061C258.928 154.686 259.437 154.475 259.967 154.475Z" fill="#2E423C"/>
<path d="M109.108 12.875H34.702C23.596 12.875 15.506 20.438 15.506 30.316V452.706C15.506 465.586 28.008 476.998 42.146 476.998H221.478C235.096 476.998 248.118 465.498 248.118 452.706V31.458C248.118 19.618 239.328 12.945 228.922 12.875H153.336C153.049 12.922 147.857 15.057 145.663 20.438C143.468 25.82 139.053 30.11 134.218 30.11H128.603C126.305 30.11 120.255 27.88 117.192 20.438C114.129 12.996 109.394 12.922 109.108 12.875Z" fill="white"/>
<mask id="mask0_113_313" style="mask-type:luminance" maskUnits="userSpaceOnUse" x="15" y="12" width="234" height="465">
<path d="M109.108 12.875H34.702C23.596 12.875 15.506 20.438 15.506 30.316V452.706C15.506 465.586 28.008 476.998 42.146 476.998H221.478C235.096 476.998 248.118 465.498 248.118 452.706V31.458C248.118 19.618 239.328 12.945 228.922 12.875H153.336C153.049 12.922 147.857 15.057 145.663 20.438C143.468 25.82 139.053 30.11 134.218 30.11H128.603C126.305 30.11 120.255 27.88 117.192 20.438C114.129 12.996 109.394 12.922 109.108 12.875Z" fill="white"/>
</mask>
<g mask="url(#mask0_113_313)">
<path fill-rule="evenodd" clip-rule="evenodd" d="M15.432 12.875H248.432V477.875H15.432V12.875Z" fill="url(#paint3_linear_113_313)"/>
</g>
<mask id="mask1_113_313" style="mask-type:luminance" maskUnits="userSpaceOnUse" x="15" y="12" width="234" height="465">
<path d="M109.108 12.875H34.702C23.596 12.875 15.506 20.438 15.506 30.316V452.706C15.506 465.586 28.008 476.998 42.146 476.998H221.478C235.096 476.998 248.118 465.498 248.118 452.706V31.458C248.118 19.618 239.328 12.945 228.922 12.875H153.336C153.049 12.922 147.857 15.057 145.663 20.438C143.468 25.82 139.053 30.11 134.218 30.11H128.603C126.305 30.11 120.255 27.88 117.192 20.438C114.129 12.996 109.394 12.922 109.108 12.875Z" fill="white"/>
</mask>
<g mask="url(#mask1_113_313)">
<path d="M94.936 139.431V122.103H90.808V119.463C92.131 119.463 93.197 119.34 94.008 119.095C94.829 118.839 95.443 118.476 95.848 118.007C96.253 117.527 96.493 116.956 96.568 116.295H99.672V139.431H94.936ZM104.928 139.431V137.127V135.943C104.928 134.77 105.146 133.756 105.584 132.903C106.021 132.039 106.597 131.292 107.312 130.663C108.037 130.023 108.826 129.463 109.68 128.983C110.544 128.503 111.408 128.05 112.272 127.623C113.136 127.196 113.925 126.77 114.64 126.343C115.365 125.906 115.946 125.42 116.384 124.887C116.821 124.354 117.04 123.724 117.04 122.999C117.04 122.071 116.714 121.314 116.064 120.727C115.424 120.14 114.544 119.847 113.424 119.847C112.261 119.847 111.274 120.183 110.464 120.855C109.653 121.527 109.152 122.54 108.96 123.895H104.496C104.517 122.423 104.858 121.09 105.52 119.895C106.192 118.69 107.194 117.735 108.528 117.031C109.861 116.327 111.536 115.975 113.552 115.975C115.28 115.975 116.768 116.268 118.016 116.855C119.274 117.442 120.245 118.258 120.928 119.303C121.61 120.348 121.952 121.57 121.952 122.967C121.952 124.13 121.738 125.132 121.312 125.975C120.885 126.818 120.32 127.538 119.616 128.135C118.912 128.732 118.138 129.255 117.296 129.703C116.453 130.151 115.61 130.567 114.768 130.951C113.936 131.335 113.168 131.73 112.464 132.135C111.76 132.53 111.194 132.978 110.768 133.479C110.341 133.98 110.128 134.583 110.128 135.287V135.495H121.92V139.431H104.928ZM125.016 128.295V123.287H130.136V128.295H125.016ZM125.016 139.335V134.343H130.136V139.335H125.016ZM143.979 139.431L143.995 134.311H133.339V130.471L143.883 116.295H148.475V130.391H152.043V134.311H148.475V139.431H143.979ZM137.659 130.391H143.995V121.911L137.659 130.391ZM162.867 139.783C161.427 139.783 160.083 139.506 158.835 138.951C157.587 138.396 156.569 137.618 155.779 136.615C154.99 135.602 154.547 134.418 154.451 133.063H158.899C159.091 133.959 159.518 134.69 160.179 135.255C160.841 135.81 161.673 136.087 162.675 136.087C163.785 136.087 164.755 135.826 165.587 135.303C166.43 134.78 167.059 133.948 167.475 132.807C167.902 131.666 168.051 130.172 167.923 128.327C167.625 128.892 167.209 129.388 166.675 129.815C166.153 130.231 165.539 130.556 164.835 130.791C164.131 131.015 163.347 131.127 162.483 131.127C160.915 131.127 159.523 130.834 158.307 130.247C157.102 129.65 156.153 128.807 155.459 127.719C154.777 126.62 154.435 125.319 154.435 123.815C154.435 122.3 154.798 120.951 155.523 119.767C156.249 118.583 157.262 117.655 158.563 116.983C159.865 116.311 161.39 115.975 163.139 115.975C165.102 115.975 166.793 116.444 168.211 117.383C169.641 118.311 170.734 119.634 171.491 121.351C172.259 123.058 172.643 125.068 172.643 127.383C172.643 130.146 172.249 132.45 171.459 134.295C170.681 136.13 169.561 137.506 168.099 138.423C166.638 139.33 164.894 139.783 162.867 139.783ZM163.283 127.415C163.934 127.415 164.563 127.271 165.171 126.983C165.79 126.684 166.297 126.311 166.691 125.863C167.086 125.415 167.283 124.951 167.283 124.471C167.294 123.436 167.129 122.551 166.787 121.815C166.457 121.068 165.987 120.498 165.379 120.103C164.782 119.708 164.083 119.511 163.283 119.511C162.547 119.511 161.891 119.682 161.315 120.023C160.739 120.364 160.286 120.844 159.955 121.463C159.625 122.082 159.459 122.796 159.459 123.607C159.459 124.812 159.811 125.751 160.515 126.423C161.219 127.084 162.142 127.415 163.283 127.415Z" fill="white"/>
</g>
<g filter="url(#filter1_d_113_313)">
<path d="M235.432 167.431H27.432C24.6706 167.431 22.432 169.67 22.432 172.431V249.431C22.432 252.192 24.6706 254.431 27.432 254.431H235.432C238.193 254.431 240.432 252.192 240.432 249.431V172.431C240.432 169.67 238.193 167.431 235.432 167.431Z" fill="black"/>
</g>
<path d="M235.432 167.431H27.432C24.6706 167.431 22.432 169.67 22.432 172.431V249.431C22.432 252.192 24.6706 254.431 27.432 254.431H235.432C238.193 254.431 240.432 252.192 240.432 249.431V172.431C240.432 169.67 238.193 167.431 235.432 167.431Z" fill="#FBFCFE"/>
<path d="M39.242 192.431V185.201H41.902C42.4287 185.201 42.9003 185.293 43.317 185.476C43.7337 185.656 44.062 185.923 44.302 186.276C44.5453 186.629 44.667 187.061 44.667 187.571C44.667 188.051 44.5603 188.461 44.347 188.801C44.1337 189.141 43.8337 189.401 43.447 189.581C43.0637 189.761 42.612 189.851 42.092 189.851H40.712V192.431H39.242ZM40.697 188.721H42.052C42.4187 188.721 42.7187 188.604 42.952 188.371C43.1853 188.134 43.302 187.843 43.302 187.496C43.302 187.136 43.1787 186.851 42.932 186.641C42.6853 186.428 42.3853 186.321 42.032 186.321H40.697V188.721ZM46.9787 192.531C46.6521 192.531 46.3554 192.469 46.0887 192.346C45.8254 192.223 45.6171 192.044 45.4637 191.811C45.3104 191.574 45.2337 191.288 45.2337 190.951C45.2337 190.384 45.4454 189.954 45.8687 189.661C46.2921 189.364 46.9604 189.211 47.8737 189.201L48.524 189.191V188.881C48.524 188.644 48.454 188.463 48.314 188.336C48.177 188.206 47.9621 188.143 47.6687 188.146C47.4587 188.149 47.2571 188.199 47.0637 188.296C46.8737 188.393 46.7421 188.561 46.6687 188.801H45.4537C45.4737 188.428 45.5821 188.121 45.7787 187.881C45.9787 187.638 46.2471 187.458 46.5837 187.341C46.9204 187.221 47.3054 187.161 47.7387 187.161C48.265 187.161 48.689 187.228 49.009 187.361C49.329 187.491 49.56 187.679 49.704 187.926C49.85 188.169 49.924 188.459 49.924 188.796V192.431H48.704L48.584 191.541C48.407 191.914 48.185 192.173 47.9187 192.316C47.6554 192.459 47.3421 192.531 46.9787 192.531ZM47.4737 191.571C47.6037 191.571 47.7304 191.548 47.8537 191.501C47.9804 191.451 48.094 191.386 48.194 191.306C48.294 191.223 48.372 191.129 48.429 191.026C48.489 190.923 48.52 190.816 48.524 190.706V189.941L47.9987 189.951C47.7554 189.954 47.5287 189.984 47.3187 190.041C47.1087 190.094 46.9387 190.183 46.8087 190.306C46.6821 190.429 46.6187 190.596 46.6187 190.806C46.6187 191.046 46.7004 191.234 46.8637 191.371C47.0304 191.504 47.2337 191.571 47.4737 191.571ZM51.732 194.081C51.379 194.081 51.129 194.051 50.982 193.991C50.836 193.934 50.762 193.906 50.762 193.906V192.976L51.277 192.996C51.501 193.009 51.681 192.998 51.817 192.961C51.954 192.928 52.057 192.883 52.127 192.826C52.197 192.769 52.247 192.709 52.277 192.646C52.311 192.586 52.334 192.538 52.347 192.501L52.442 192.216L50.432 187.261H51.877L53.117 190.631L54.367 187.261H55.797L53.702 192.461C53.522 192.901 53.331 193.238 53.127 193.471C52.927 193.704 52.711 193.864 52.477 193.951C52.247 194.038 51.999 194.081 51.732 194.081ZM55.592 192.431L58.177 185.201H59.722L62.307 192.431H60.852L60.262 190.756H57.657L57.057 192.431H55.592ZM57.987 189.481H59.907L58.952 186.606L57.987 189.481ZM63.392 192.431V185.201H66.052C66.579 185.201 67.051 185.293 67.467 185.476C67.884 185.656 68.212 185.923 68.452 186.276C68.696 186.629 68.817 187.061 68.817 187.571C68.817 188.051 68.711 188.461 68.497 188.801C68.284 189.141 67.984 189.401 67.597 189.581C67.214 189.761 66.762 189.851 66.242 189.851H64.862V192.431H63.392ZM64.847 188.721H66.202C66.569 188.721 66.869 188.604 67.102 188.371C67.336 188.134 67.452 187.843 67.452 187.496C67.452 187.136 67.329 186.851 67.082 186.641C66.836 186.428 66.536 186.321 66.182 186.321H64.847V188.721ZM69.916 192.431V185.201H71.371V192.431H69.916Z" fill="#BA4270"/>
<path d="M184.067 192.531C183.81 192.531 183.569 192.501 183.342 192.441C183.119 192.381 182.97 192.336 182.897 192.306L182.962 191.421C183.065 191.458 183.184 191.504 183.317 191.561C183.454 191.614 183.622 191.641 183.822 191.641C184.149 191.641 184.372 191.551 184.492 191.371C184.615 191.191 184.677 190.888 184.677 190.461V185.201H185.602V190.726C185.602 191.109 185.559 191.436 185.472 191.706C185.385 191.976 185.23 192.181 185.007 192.321C184.787 192.461 184.474 192.531 184.067 192.531ZM189.034 192.531C188.764 192.528 188.509 192.489 188.269 192.416C188.032 192.339 187.822 192.228 187.639 192.081C187.455 191.934 187.31 191.753 187.204 191.536C187.1 191.316 187.049 191.061 187.049 190.771V187.261H187.974V190.676C187.974 191.013 188.077 191.286 188.284 191.496C188.494 191.706 188.809 191.811 189.229 191.811C189.609 191.811 189.914 191.713 190.144 191.516C190.377 191.316 190.494 191.019 190.494 190.626V187.261H191.414V192.431H190.679L190.584 191.441C190.52 191.701 190.412 191.911 190.259 192.071C190.109 192.231 189.927 192.349 189.714 192.426C189.504 192.499 189.277 192.534 189.034 192.531ZM194.795 192.531C194.435 192.531 194.1 192.476 193.79 192.366C193.483 192.253 193.228 192.078 193.025 191.841C192.821 191.601 192.695 191.296 192.645 190.926H193.485C193.528 191.129 193.611 191.299 193.735 191.436C193.858 191.569 194.01 191.671 194.19 191.741C194.373 191.808 194.573 191.841 194.79 191.841C195.14 191.841 195.421 191.776 195.635 191.646C195.848 191.516 195.955 191.316 195.955 191.046C195.955 190.856 195.898 190.704 195.785 190.591C195.675 190.474 195.501 190.389 195.265 190.336L194.195 190.071C193.778 189.971 193.445 189.814 193.195 189.601C192.948 189.388 192.823 189.089 192.82 188.706C192.82 188.403 192.893 188.136 193.04 187.906C193.186 187.676 193.405 187.494 193.695 187.361C193.988 187.228 194.353 187.161 194.79 187.161C195.353 187.161 195.806 187.288 196.15 187.541C196.493 187.791 196.673 188.159 196.69 188.646H195.87C195.836 188.399 195.726 188.204 195.54 188.061C195.353 187.914 195.1 187.841 194.78 187.841C194.453 187.841 194.185 187.908 193.975 188.041C193.768 188.171 193.665 188.374 193.665 188.651C193.665 188.834 193.738 188.979 193.885 189.086C194.035 189.189 194.251 189.276 194.535 189.346L195.575 189.606C195.811 189.669 196.008 189.753 196.165 189.856C196.321 189.959 196.445 190.074 196.535 190.201C196.625 190.328 196.688 190.461 196.725 190.601C196.765 190.738 196.785 190.869 196.785 190.996C196.785 191.313 196.706 191.586 196.55 191.816C196.393 192.043 196.166 192.219 195.87 192.346C195.573 192.469 195.215 192.531 194.795 192.531ZM199.781 192.456C199.424 192.456 199.147 192.408 198.951 192.311C198.754 192.214 198.616 192.071 198.536 191.881C198.459 191.691 198.421 191.458 198.421 191.181V187.936H197.581V187.261H198.446L198.671 185.756H199.351V187.256H200.516V187.936H199.351V191.151C199.351 191.334 199.369 191.469 199.406 191.556C199.446 191.639 199.511 191.693 199.601 191.716C199.691 191.739 199.817 191.751 199.981 191.751H200.546V192.371C200.482 192.394 200.386 192.414 200.256 192.431C200.129 192.448 199.971 192.456 199.781 192.456ZM204.394 192.431V185.201H205.279L209.099 190.821V185.201H210.024V192.431H209.199L205.319 186.731V192.431H204.394ZM213.745 192.531C213.268 192.531 212.851 192.429 212.495 192.226C212.141 192.019 211.866 191.718 211.67 191.321C211.473 190.924 211.375 190.439 211.375 189.866C211.375 189.326 211.466 188.853 211.65 188.446C211.833 188.039 212.101 187.724 212.455 187.501C212.808 187.274 213.24 187.161 213.75 187.161C214.226 187.161 214.64 187.266 214.99 187.476C215.34 187.683 215.611 187.988 215.805 188.391C216.001 188.794 216.1 189.286 216.1 189.866C216.1 190.393 216.01 190.856 215.83 191.256C215.65 191.656 215.385 191.969 215.035 192.196C214.688 192.419 214.258 192.531 213.745 192.531ZM213.75 191.801C214.056 191.801 214.316 191.723 214.53 191.566C214.743 191.409 214.905 191.184 215.015 190.891C215.128 190.598 215.185 190.249 215.185 189.846C215.185 189.476 215.135 189.144 215.035 188.851C214.938 188.554 214.785 188.319 214.575 188.146C214.365 187.973 214.09 187.886 213.75 187.886C213.436 187.886 213.171 187.964 212.955 188.121C212.738 188.274 212.573 188.498 212.46 188.791C212.35 189.084 212.295 189.436 212.295 189.846C212.295 190.209 212.343 190.539 212.44 190.836C212.54 191.133 212.696 191.368 212.91 191.541C213.126 191.714 213.406 191.801 213.75 191.801ZM218.356 192.431L216.756 187.261H217.616L218.796 191.236H218.876L220.041 187.261H220.741L221.951 191.226H222.036L223.166 187.261H224.036L222.466 192.431H221.556L220.381 188.616L219.256 192.431H218.356Z" fill="#36536B"/>
<path d="M40.997 207.431V201.051H38.662V200.201H44.132V201.051H41.927V207.431H40.997ZM45.1345 207.431V200.001H46.0345V203.021C46.1212 202.878 46.2378 202.744 46.3845 202.621C46.5312 202.494 46.7095 202.393 46.9195 202.316C47.1295 202.236 47.3728 202.196 47.6495 202.196C47.9862 202.196 48.291 202.259 48.565 202.386C48.838 202.509 49.055 202.686 49.215 202.916C49.375 203.146 49.455 203.419 49.455 203.736V207.431H48.53V203.921C48.53 203.611 48.423 203.373 48.21 203.206C47.9995 203.036 47.7245 202.951 47.3845 202.951C47.1545 202.951 46.9378 202.989 46.7345 203.066C46.5312 203.139 46.3662 203.253 46.2395 203.406C46.1162 203.556 46.0545 203.748 46.0545 203.981V207.431H45.1345ZM53.081 207.531C52.601 207.531 52.178 207.426 51.811 207.216C51.445 207.006 51.158 206.704 50.951 206.311C50.745 205.918 50.641 205.446 50.641 204.896C50.641 204.353 50.735 203.876 50.921 203.466C51.108 203.056 51.378 202.736 51.731 202.506C52.088 202.276 52.516 202.161 53.016 202.161C53.503 202.161 53.915 202.266 54.251 202.476C54.588 202.686 54.843 202.983 55.016 203.366C55.193 203.746 55.281 204.198 55.281 204.721V205.061H51.576C51.576 205.388 51.63 205.684 51.736 205.951C51.846 206.214 52.011 206.424 52.231 206.581C52.451 206.738 52.73 206.816 53.066 206.816C53.396 206.816 53.68 206.739 53.916 206.586C54.156 206.433 54.31 206.211 54.376 205.921H55.246C55.186 206.271 55.046 206.566 54.826 206.806C54.61 207.046 54.348 207.228 54.041 207.351C53.738 207.471 53.418 207.531 53.081 207.531ZM51.581 204.436H54.391C54.391 204.139 54.341 203.873 54.241 203.636C54.141 203.396 53.988 203.208 53.781 203.071C53.578 202.931 53.321 202.861 53.011 202.861C52.688 202.861 52.42 202.939 52.206 203.096C51.993 203.249 51.835 203.448 51.731 203.691C51.628 203.931 51.578 204.179 51.581 204.436ZM58.933 209.041V202.261H59.853L59.863 203.161C59.923 203.054 60 202.943 60.093 202.826C60.19 202.709 60.307 202.601 60.443 202.501C60.583 202.401 60.745 202.319 60.928 202.256C61.115 202.193 61.327 202.161 61.563 202.161C61.977 202.161 62.34 202.256 62.653 202.446C62.97 202.633 63.217 202.919 63.393 203.306C63.57 203.693 63.658 204.183 63.658 204.776C63.658 205.369 63.572 205.871 63.398 206.281C63.228 206.688 62.982 206.998 62.658 207.211C62.335 207.424 61.945 207.531 61.488 207.531C61.258 207.531 61.053 207.498 60.873 207.431C60.697 207.368 60.542 207.284 60.408 207.181C60.278 207.074 60.168 206.961 60.078 206.841C59.992 206.721 59.92 206.606 59.863 206.496V209.041H58.933ZM61.313 206.811C61.74 206.811 62.088 206.649 62.358 206.326C62.628 205.999 62.763 205.493 62.763 204.806C62.763 204.216 62.64 203.748 62.393 203.401C62.147 203.054 61.787 202.881 61.313 202.881C60.833 202.881 60.47 203.059 60.223 203.416C59.977 203.769 59.853 204.233 59.853 204.806C59.853 205.176 59.908 205.513 60.018 205.816C60.128 206.119 60.292 206.361 60.508 206.541C60.725 206.721 60.993 206.811 61.313 206.811ZM66.282 207.531C65.945 207.531 65.648 207.473 65.392 207.356C65.138 207.236 64.938 207.064 64.792 206.841C64.648 206.618 64.577 206.348 64.577 206.031C64.577 205.458 64.777 205.031 65.177 204.751C65.577 204.471 66.218 204.321 67.102 204.301L68.022 204.276V203.871C68.022 203.554 67.927 203.304 67.737 203.121C67.547 202.934 67.253 202.841 66.857 202.841C66.56 202.844 66.298 202.914 66.072 203.051C65.845 203.188 65.7 203.411 65.637 203.721H64.822C64.842 203.384 64.935 203.101 65.102 202.871C65.272 202.638 65.51 202.461 65.817 202.341C66.123 202.221 66.485 202.161 66.902 202.161C67.352 202.161 67.725 202.224 68.022 202.351C68.322 202.478 68.545 202.664 68.692 202.911C68.842 203.158 68.917 203.461 68.917 203.821V207.431H68.127L68.057 206.461C67.86 206.864 67.607 207.144 67.297 207.301C66.99 207.454 66.652 207.531 66.282 207.531ZM66.557 206.866C66.733 206.866 66.907 206.834 67.077 206.771C67.25 206.708 67.407 206.623 67.547 206.516C67.69 206.406 67.805 206.284 67.892 206.151C67.978 206.014 68.022 205.874 68.022 205.731V204.846L67.257 204.861C66.86 204.868 66.53 204.908 66.267 204.981C66.003 205.054 65.805 205.169 65.672 205.326C65.538 205.483 65.472 205.688 65.472 205.941C65.472 206.231 65.573 206.458 65.777 206.621C65.98 206.784 66.24 206.866 66.557 206.866ZM70.708 209.081C70.405 209.081 70.196 209.059 70.083 209.016C69.97 208.973 69.913 208.951 69.913 208.951V208.351L70.443 208.361C70.633 208.368 70.791 208.354 70.918 208.321C71.045 208.288 71.146 208.243 71.223 208.186C71.3 208.129 71.358 208.066 71.398 207.996C71.441 207.926 71.476 207.859 71.503 207.796L71.683 207.306L69.663 202.261H70.598L72.123 206.251L73.638 202.261H74.543L72.368 207.821C72.231 208.148 72.08 208.403 71.913 208.586C71.75 208.769 71.566 208.898 71.363 208.971C71.163 209.044 70.945 209.081 70.708 209.081ZM75.545 207.431V202.261H76.435V203.011C76.578 202.784 76.775 202.586 77.025 202.416C77.275 202.246 77.6 202.161 78 202.161C78.186 202.161 78.376 202.193 78.57 202.256C78.766 202.319 78.946 202.414 79.11 202.541C79.273 202.668 79.4 202.823 79.49 203.006C79.65 202.753 79.866 202.549 80.14 202.396C80.413 202.239 80.721 202.161 81.065 202.161C81.245 202.161 81.433 202.189 81.63 202.246C81.826 202.299 82.008 202.396 82.175 202.536C82.345 202.673 82.483 202.864 82.59 203.111C82.696 203.354 82.75 203.668 82.75 204.051V207.431H81.82V204.141C81.82 203.828 81.77 203.586 81.67 203.416C81.57 203.243 81.438 203.121 81.275 203.051C81.115 202.981 80.943 202.946 80.76 202.946C80.6 202.946 80.43 202.978 80.25 203.041C80.07 203.104 79.916 203.211 79.79 203.361C79.663 203.511 79.6 203.716 79.6 203.976V207.431H78.68V203.871C78.68 203.668 78.625 203.498 78.515 203.361C78.408 203.224 78.273 203.121 78.11 203.051C77.95 202.981 77.79 202.946 77.63 202.946C77.453 202.946 77.275 202.981 77.095 203.051C76.918 203.121 76.768 203.233 76.645 203.386C76.525 203.536 76.465 203.733 76.465 203.976V207.431H75.545ZM86.382 207.531C85.902 207.531 85.479 207.426 85.112 207.216C84.745 207.006 84.459 206.704 84.252 206.311C84.045 205.918 83.942 205.446 83.942 204.896C83.942 204.353 84.035 203.876 84.222 203.466C84.409 203.056 84.679 202.736 85.032 202.506C85.389 202.276 85.817 202.161 86.317 202.161C86.804 202.161 87.215 202.266 87.552 202.476C87.889 202.686 88.144 202.983 88.317 203.366C88.494 203.746 88.582 204.198 88.582 204.721V205.061H84.877C84.877 205.388 84.93 205.684 85.037 205.951C85.147 206.214 85.312 206.424 85.532 206.581C85.752 206.738 86.03 206.816 86.367 206.816C86.697 206.816 86.98 206.739 87.217 206.586C87.457 206.433 87.61 206.211 87.677 205.921H88.547C88.487 206.271 88.347 206.566 88.127 206.806C87.91 207.046 87.649 207.228 87.342 207.351C87.039 207.471 86.719 207.531 86.382 207.531ZM84.882 204.436H87.692C87.692 204.139 87.642 203.873 87.542 203.636C87.442 203.396 87.289 203.208 87.082 203.071C86.879 202.931 86.622 202.861 86.312 202.861C85.989 202.861 85.72 202.939 85.507 203.096C85.294 203.249 85.135 203.448 85.032 203.691C84.929 203.931 84.879 204.179 84.882 204.436ZM89.861 207.431V202.261H90.756V203.011C90.839 202.868 90.954 202.733 91.101 202.606C91.251 202.479 91.431 202.378 91.641 202.301C91.854 202.224 92.099 202.186 92.376 202.186C92.703 202.186 93.003 202.251 93.276 202.381C93.553 202.511 93.773 202.714 93.936 202.991C94.103 203.264 94.186 203.618 94.186 204.051V207.431H93.261V204.141C93.261 203.738 93.154 203.439 92.941 203.246C92.731 203.049 92.458 202.951 92.121 202.951C91.888 202.951 91.669 202.989 91.466 203.066C91.263 203.139 91.098 203.253 90.971 203.406C90.844 203.556 90.781 203.746 90.781 203.976V207.431H89.861ZM97.313 207.456C96.956 207.456 96.679 207.408 96.483 207.311C96.286 207.214 96.148 207.071 96.068 206.881C95.991 206.691 95.953 206.458 95.953 206.181V202.936H95.113V202.261H95.978L96.203 200.756H96.883V202.256H98.048V202.936H96.883V206.151C96.883 206.334 96.901 206.469 96.938 206.556C96.978 206.639 97.043 206.693 97.133 206.716C97.223 206.739 97.349 206.751 97.513 206.751H98.078V207.371C98.014 207.394 97.918 207.414 97.788 207.431C97.661 207.448 97.503 207.456 97.313 207.456ZM101.736 207.431V200.001H102.636V203.021C102.723 202.878 102.839 202.744 102.986 202.621C103.133 202.494 103.311 202.393 103.521 202.316C103.731 202.236 103.974 202.196 104.251 202.196C104.588 202.196 104.893 202.259 105.166 202.386C105.439 202.509 105.656 202.686 105.816 202.916C105.976 203.146 106.056 203.419 106.056 203.736V207.431H105.131V203.921C105.131 203.611 105.024 203.373 104.811 203.206C104.601 203.036 104.326 202.951 103.986 202.951C103.756 202.951 103.539 202.989 103.336 203.066C103.133 203.139 102.968 203.253 102.841 203.406C102.718 203.556 102.656 203.748 102.656 203.981V207.431H101.736ZM108.928 207.531C108.592 207.531 108.295 207.473 108.038 207.356C107.785 207.236 107.585 207.064 107.438 206.841C107.295 206.618 107.223 206.348 107.223 206.031C107.223 205.458 107.423 205.031 107.823 204.751C108.223 204.471 108.865 204.321 109.748 204.301L110.668 204.276V203.871C110.668 203.554 110.573 203.304 110.383 203.121C110.193 202.934 109.9 202.841 109.503 202.841C109.207 202.844 108.945 202.914 108.718 203.051C108.492 203.188 108.347 203.411 108.283 203.721H107.468C107.488 203.384 107.582 203.101 107.748 202.871C107.918 202.638 108.157 202.461 108.463 202.341C108.77 202.221 109.132 202.161 109.548 202.161C109.998 202.161 110.372 202.224 110.668 202.351C110.968 202.478 111.192 202.664 111.338 202.911C111.488 203.158 111.563 203.461 111.563 203.821V207.431H110.773L110.703 206.461C110.507 206.864 110.253 207.144 109.943 207.301C109.637 207.454 109.298 207.531 108.928 207.531ZM109.203 206.866C109.38 206.866 109.553 206.834 109.723 206.771C109.897 206.708 110.053 206.623 110.193 206.516C110.337 206.406 110.452 206.284 110.538 206.151C110.625 206.014 110.668 205.874 110.668 205.731V204.846L109.903 204.861C109.507 204.868 109.177 204.908 108.913 204.981C108.65 205.054 108.452 205.169 108.318 205.326C108.185 205.483 108.118 205.688 108.118 205.941C108.118 206.231 108.22 206.458 108.423 206.621C108.627 206.784 108.887 206.866 109.203 206.866ZM114.817 207.531C114.457 207.531 114.122 207.476 113.812 207.366C113.505 207.253 113.25 207.078 113.047 206.841C112.843 206.601 112.717 206.296 112.667 205.926H113.507C113.55 206.129 113.633 206.299 113.757 206.436C113.88 206.569 114.032 206.671 114.212 206.741C114.395 206.808 114.595 206.841 114.812 206.841C115.162 206.841 115.443 206.776 115.657 206.646C115.87 206.516 115.977 206.316 115.977 206.046C115.977 205.856 115.92 205.704 115.807 205.591C115.697 205.474 115.523 205.389 115.287 205.336L114.217 205.071C113.8 204.971 113.467 204.814 113.217 204.601C112.97 204.388 112.845 204.089 112.842 203.706C112.842 203.403 112.915 203.136 113.062 202.906C113.208 202.676 113.427 202.494 113.717 202.361C114.01 202.228 114.375 202.161 114.812 202.161C115.375 202.161 115.828 202.288 116.172 202.541C116.515 202.791 116.695 203.159 116.712 203.646H115.892C115.858 203.399 115.748 203.204 115.562 203.061C115.375 202.914 115.122 202.841 114.802 202.841C114.475 202.841 114.207 202.908 113.997 203.041C113.79 203.171 113.687 203.374 113.687 203.651C113.687 203.834 113.76 203.979 113.907 204.086C114.057 204.189 114.273 204.276 114.557 204.346L115.597 204.606C115.833 204.669 116.03 204.753 116.187 204.856C116.343 204.959 116.467 205.074 116.557 205.201C116.647 205.328 116.71 205.461 116.747 205.601C116.787 205.738 116.807 205.869 116.807 205.996C116.807 206.313 116.728 206.586 116.572 206.816C116.415 207.043 116.188 207.219 115.892 207.346C115.595 207.469 115.237 207.531 114.817 207.531ZM122.963 207.531C122.66 207.531 122.403 207.491 122.193 207.411C121.986 207.331 121.816 207.229 121.683 207.106C121.55 206.979 121.446 206.851 121.373 206.721C121.3 206.588 121.246 206.471 121.213 206.371L121.113 207.431H120.408V200.001H121.338V203.081C121.381 202.994 121.446 202.899 121.533 202.796C121.623 202.693 121.738 202.593 121.878 202.496C122.018 202.399 122.183 202.319 122.373 202.256C122.566 202.193 122.786 202.161 123.033 202.161C123.68 202.161 124.193 202.386 124.573 202.836C124.956 203.286 125.148 203.949 125.148 204.826C125.148 205.369 125.066 205.844 124.903 206.251C124.74 206.654 124.496 206.969 124.173 207.196C123.85 207.419 123.446 207.531 122.963 207.531ZM122.798 206.821C123.218 206.821 123.56 206.659 123.823 206.336C124.086 206.009 124.218 205.491 124.218 204.781C124.218 204.178 124.095 203.711 123.848 203.381C123.605 203.048 123.248 202.881 122.778 202.881C122.435 202.881 122.158 202.956 121.948 203.106C121.741 203.253 121.588 203.468 121.488 203.751C121.391 204.034 121.341 204.378 121.338 204.781C121.338 205.504 121.45 206.026 121.673 206.346C121.9 206.663 122.275 206.821 122.798 206.821ZM128.56 207.531C128.08 207.531 127.656 207.426 127.29 207.216C126.923 207.006 126.636 206.704 126.43 206.311C126.223 205.918 126.12 205.446 126.12 204.896C126.12 204.353 126.213 203.876 126.4 203.466C126.586 203.056 126.856 202.736 127.21 202.506C127.566 202.276 127.995 202.161 128.495 202.161C128.981 202.161 129.393 202.266 129.73 202.476C130.066 202.686 130.321 202.983 130.495 203.366C130.671 203.746 130.76 204.198 130.76 204.721V205.061H127.055C127.055 205.388 127.108 205.684 127.215 205.951C127.325 206.214 127.49 206.424 127.71 206.581C127.93 206.738 128.208 206.816 128.545 206.816C128.875 206.816 129.158 206.739 129.395 206.586C129.635 206.433 129.788 206.211 129.855 205.921H130.725C130.665 206.271 130.525 206.566 130.305 206.806C130.088 207.046 129.826 207.228 129.52 207.351C129.216 207.471 128.896 207.531 128.56 207.531ZM127.06 204.436H129.87C129.87 204.139 129.82 203.873 129.72 203.636C129.62 203.396 129.466 203.208 129.26 203.071C129.056 202.931 128.8 202.861 128.49 202.861C128.166 202.861 127.898 202.939 127.685 203.096C127.471 203.249 127.313 203.448 127.21 203.691C127.106 203.931 127.056 204.179 127.06 204.436ZM134.224 207.531C133.744 207.531 133.32 207.426 132.954 207.216C132.587 207.006 132.3 206.704 132.094 206.311C131.887 205.918 131.784 205.446 131.784 204.896C131.784 204.353 131.877 203.876 132.064 203.466C132.25 203.056 132.52 202.736 132.874 202.506C133.23 202.276 133.659 202.161 134.159 202.161C134.645 202.161 135.057 202.266 135.394 202.476C135.73 202.686 135.985 202.983 136.159 203.366C136.335 203.746 136.424 204.198 136.424 204.721V205.061H132.719C132.719 205.388 132.772 205.684 132.879 205.951C132.989 206.214 133.154 206.424 133.374 206.581C133.594 206.738 133.872 206.816 134.209 206.816C134.539 206.816 134.822 206.739 135.059 206.586C135.299 206.433 135.452 206.211 135.519 205.921H136.389C136.329 206.271 136.189 206.566 135.969 206.806C135.752 207.046 135.49 207.228 135.184 207.351C134.88 207.471 134.56 207.531 134.224 207.531ZM132.724 204.436H135.534C135.534 204.139 135.484 203.873 135.384 203.636C135.284 203.396 135.13 203.208 134.924 203.071C134.72 202.931 134.464 202.861 134.154 202.861C133.83 202.861 133.562 202.939 133.349 203.096C133.135 203.249 132.977 203.448 132.874 203.691C132.77 203.931 132.72 204.179 132.724 204.436ZM137.703 207.431V202.261H138.598V203.011C138.681 202.868 138.796 202.733 138.943 202.606C139.093 202.479 139.273 202.378 139.483 202.301C139.696 202.224 139.941 202.186 140.218 202.186C140.545 202.186 140.845 202.251 141.118 202.381C141.395 202.511 141.615 202.714 141.778 202.991C141.945 203.264 142.028 203.618 142.028 204.051V207.431H141.103V204.141C141.103 203.738 140.996 203.439 140.783 203.246C140.573 203.049 140.3 202.951 139.963 202.951C139.73 202.951 139.511 202.989 139.308 203.066C139.105 203.139 138.94 203.253 138.813 203.406C138.686 203.556 138.623 203.746 138.623 203.976V207.431H137.703ZM145.906 209.041V202.261H146.826L146.836 203.161C146.896 203.054 146.973 202.943 147.066 202.826C147.163 202.709 147.279 202.601 147.416 202.501C147.556 202.401 147.718 202.319 147.901 202.256C148.088 202.193 148.299 202.161 148.536 202.161C148.949 202.161 149.313 202.256 149.626 202.446C149.943 202.633 150.189 202.919 150.366 203.306C150.543 203.693 150.631 204.183 150.631 204.776C150.631 205.369 150.544 205.871 150.371 206.281C150.201 206.688 149.954 206.998 149.631 207.211C149.308 207.424 148.918 207.531 148.461 207.531C148.231 207.531 148.026 207.498 147.846 207.431C147.669 207.368 147.514 207.284 147.381 207.181C147.251 207.074 147.141 206.961 147.051 206.841C146.964 206.721 146.893 206.606 146.836 206.496V209.041H145.906ZM148.286 206.811C148.713 206.811 149.061 206.649 149.331 206.326C149.601 205.999 149.736 205.493 149.736 204.806C149.736 204.216 149.613 203.748 149.366 203.401C149.119 203.054 148.759 202.881 148.286 202.881C147.806 202.881 147.443 203.059 147.196 203.416C146.949 203.769 146.826 204.233 146.826 204.806C146.826 205.176 146.881 205.513 146.991 205.816C147.101 206.119 147.264 206.361 147.481 206.541C147.698 206.721 147.966 206.811 148.286 206.811ZM151.863 207.431V202.261H152.743V203.256C152.83 203.009 152.951 202.806 153.108 202.646C153.265 202.483 153.443 202.361 153.643 202.281C153.846 202.201 154.056 202.161 154.273 202.161C154.35 202.161 154.425 202.166 154.498 202.176C154.571 202.186 154.628 202.203 154.668 202.226V203.121C154.618 203.098 154.553 203.083 154.473 203.076C154.396 203.066 154.331 203.061 154.278 203.061C154.071 203.048 153.878 203.061 153.698 203.101C153.518 203.138 153.36 203.203 153.223 203.296C153.086 203.389 152.978 203.513 152.898 203.666C152.821 203.816 152.783 203.999 152.783 204.216V207.431H151.863ZM157.761 207.531C157.284 207.531 156.868 207.429 156.511 207.226C156.158 207.019 155.883 206.718 155.686 206.321C155.489 205.924 155.391 205.439 155.391 204.866C155.391 204.326 155.483 203.853 155.666 203.446C155.849 203.039 156.118 202.724 156.471 202.501C156.824 202.274 157.256 202.161 157.766 202.161C158.243 202.161 158.656 202.266 159.006 202.476C159.356 202.683 159.628 202.988 159.821 203.391C160.018 203.794 160.116 204.286 160.116 204.866C160.116 205.393 160.026 205.856 159.846 206.256C159.666 206.656 159.401 206.969 159.051 207.196C158.704 207.419 158.274 207.531 157.761 207.531ZM157.766 206.801C158.073 206.801 158.333 206.723 158.546 206.566C158.759 206.409 158.921 206.184 159.031 205.891C159.144 205.598 159.201 205.249 159.201 204.846C159.201 204.476 159.151 204.144 159.051 203.851C158.954 203.554 158.801 203.319 158.591 203.146C158.381 202.973 158.106 202.886 157.766 202.886C157.453 202.886 157.188 202.964 156.971 203.121C156.754 203.274 156.589 203.498 156.476 203.791C156.366 204.084 156.311 204.436 156.311 204.846C156.311 205.209 156.359 205.539 156.456 205.836C156.556 206.133 156.713 206.368 156.926 206.541C157.143 206.714 157.423 206.801 157.766 206.801ZM163.425 207.531C162.959 207.531 162.545 207.429 162.185 207.226C161.829 207.023 161.549 206.723 161.345 206.326C161.145 205.929 161.045 205.443 161.045 204.866C161.045 204.326 161.137 203.854 161.32 203.451C161.507 203.044 161.777 202.728 162.13 202.501C162.487 202.274 162.919 202.161 163.425 202.161C163.795 202.161 164.127 202.233 164.42 202.376C164.717 202.516 164.96 202.716 165.15 202.976C165.34 203.236 165.457 203.543 165.5 203.896H164.68C164.65 203.716 164.58 203.551 164.47 203.401C164.364 203.251 164.222 203.131 164.045 203.041C163.872 202.951 163.667 202.906 163.43 202.906C162.987 202.906 162.625 203.066 162.345 203.386C162.069 203.706 161.93 204.196 161.93 204.856C161.93 205.453 162.057 205.931 162.31 206.291C162.567 206.648 162.944 206.826 163.44 206.826C163.677 206.826 163.884 206.781 164.06 206.691C164.237 206.598 164.379 206.476 164.485 206.326C164.592 206.173 164.66 206.009 164.69 205.836H165.495C165.452 206.183 165.334 206.483 165.14 206.736C164.95 206.989 164.707 207.186 164.41 207.326C164.117 207.463 163.789 207.531 163.425 207.531ZM168.941 207.531C168.461 207.531 168.037 207.426 167.671 207.216C167.304 207.006 167.017 206.704 166.811 206.311C166.604 205.918 166.501 205.446 166.501 204.896C166.501 204.353 166.594 203.876 166.781 203.466C166.967 203.056 167.237 202.736 167.591 202.506C167.947 202.276 168.376 202.161 168.876 202.161C169.362 202.161 169.774 202.266 170.111 202.476C170.447 202.686 170.702 202.983 170.876 203.366C171.052 203.746 171.141 204.198 171.141 204.721V205.061H167.436C167.436 205.388 167.489 205.684 167.596 205.951C167.706 206.214 167.871 206.424 168.091 206.581C168.311 206.738 168.589 206.816 168.926 206.816C169.256 206.816 169.539 206.739 169.776 206.586C170.016 206.433 170.169 206.211 170.236 205.921H171.106C171.046 206.271 170.906 206.566 170.686 206.806C170.469 207.046 170.207 207.228 169.901 207.351C169.597 207.471 169.277 207.531 168.941 207.531ZM167.441 204.436H170.251C170.251 204.139 170.201 203.873 170.101 203.636C170.001 203.396 169.847 203.208 169.641 203.071C169.437 202.931 169.181 202.861 168.871 202.861C168.547 202.861 168.279 202.939 168.066 203.096C167.852 203.249 167.694 203.448 167.591 203.691C167.487 203.931 167.437 204.179 167.441 204.436ZM174.25 207.531C173.89 207.531 173.555 207.476 173.245 207.366C172.939 207.253 172.684 207.078 172.48 206.841C172.277 206.601 172.15 206.296 172.1 205.926H172.94C172.984 206.129 173.067 206.299 173.19 206.436C173.314 206.569 173.465 206.671 173.645 206.741C173.829 206.808 174.029 206.841 174.245 206.841C174.595 206.841 174.877 206.776 175.09 206.646C175.304 206.516 175.41 206.316 175.41 206.046C175.41 205.856 175.354 205.704 175.24 205.591C175.13 205.474 174.957 205.389 174.72 205.336L173.65 205.071C173.234 204.971 172.9 204.814 172.65 204.601C172.404 204.388 172.279 204.089 172.275 203.706C172.275 203.403 172.349 203.136 172.495 202.906C172.642 202.676 172.86 202.494 173.15 202.361C173.444 202.228 173.809 202.161 174.245 202.161C174.809 202.161 175.262 202.288 175.605 202.541C175.949 202.791 176.129 203.159 176.145 203.646H175.325C175.292 203.399 175.182 203.204 174.995 203.061C174.809 202.914 174.555 202.841 174.235 202.841C173.909 202.841 173.64 202.908 173.43 203.041C173.224 203.171 173.12 203.374 173.12 203.651C173.12 203.834 173.194 203.979 173.34 204.086C173.49 204.189 173.707 204.276 173.99 204.346L175.03 204.606C175.267 204.669 175.464 204.753 175.62 204.856C175.777 204.959 175.9 205.074 175.99 205.201C176.08 205.328 176.144 205.461 176.18 205.601C176.22 205.738 176.24 205.869 176.24 205.996C176.24 206.313 176.162 206.586 176.005 206.816C175.849 207.043 175.622 207.219 175.325 207.346C175.029 207.469 174.67 207.531 174.25 207.531ZM179.289 207.531C178.929 207.531 178.594 207.476 178.284 207.366C177.978 207.253 177.723 207.078 177.519 206.841C177.316 206.601 177.189 206.296 177.139 205.926H177.979C178.023 206.129 178.106 206.299 178.229 206.436C178.353 206.569 178.504 206.671 178.684 206.741C178.868 206.808 179.068 206.841 179.284 206.841C179.634 206.841 179.916 206.776 180.129 206.646C180.343 206.516 180.449 206.316 180.449 206.046C180.449 205.856 180.393 205.704 180.279 205.591C180.169 205.474 179.996 205.389 179.759 205.336L178.689 205.071C178.273 204.971 177.939 204.814 177.689 204.601C177.443 204.388 177.318 204.089 177.314 203.706C177.314 203.403 177.388 203.136 177.534 202.906C177.681 202.676 177.899 202.494 178.189 202.361C178.483 202.228 178.848 202.161 179.284 202.161C179.848 202.161 180.301 202.288 180.644 202.541C180.988 202.791 181.168 203.159 181.184 203.646H180.364C180.331 203.399 180.221 203.204 180.034 203.061C179.848 202.914 179.594 202.841 179.274 202.841C178.948 202.841 178.679 202.908 178.469 203.041C178.263 203.171 178.159 203.374 178.159 203.651C178.159 203.834 178.233 203.979 178.379 204.086C178.529 204.189 178.746 204.276 179.029 204.346L180.069 204.606C180.306 204.669 180.503 204.753 180.659 204.856C180.816 204.959 180.939 205.074 181.029 205.201C181.119 205.328 181.183 205.461 181.219 205.601C181.259 205.738 181.279 205.869 181.279 205.996C181.279 206.313 181.201 206.586 181.044 206.816C180.888 207.043 180.661 207.219 180.364 207.346C180.068 207.469 179.709 207.531 179.289 207.531ZM184.673 207.531C184.193 207.531 183.77 207.426 183.403 207.216C183.036 207.006 182.75 206.704 182.543 206.311C182.336 205.918 182.233 205.446 182.233 204.896C182.233 204.353 182.326 203.876 182.513 203.466C182.7 203.056 182.97 202.736 183.323 202.506C183.68 202.276 184.108 202.161 184.608 202.161C185.095 202.161 185.506 202.266 185.843 202.476C186.18 202.686 186.435 202.983 186.608 203.366C186.785 203.746 186.873 204.198 186.873 204.721V205.061H183.168C183.168 205.388 183.221 205.684 183.328 205.951C183.438 206.214 183.603 206.424 183.823 206.581C184.043 206.738 184.321 206.816 184.658 206.816C184.988 206.816 185.271 206.739 185.508 206.586C185.748 206.433 185.901 206.211 185.968 205.921H186.838C186.778 206.271 186.638 206.566 186.418 206.806C186.201 207.046 185.94 207.228 185.633 207.351C185.33 207.471 185.01 207.531 184.673 207.531ZM183.173 204.436H185.983C185.983 204.139 185.933 203.873 185.833 203.636C185.733 203.396 185.58 203.208 185.373 203.071C185.17 202.931 184.913 202.861 184.603 202.861C184.28 202.861 184.011 202.939 183.798 203.096C183.585 203.249 183.426 203.448 183.323 203.691C183.22 203.931 183.17 204.179 183.173 204.436ZM190.037 207.531C189.364 207.531 188.83 207.301 188.437 206.841C188.047 206.381 187.852 205.709 187.852 204.826C187.852 204.289 187.93 203.821 188.087 203.421C188.244 203.021 188.479 202.711 188.792 202.491C189.105 202.271 189.495 202.161 189.962 202.161C190.212 202.161 190.432 202.193 190.622 202.256C190.812 202.319 190.977 202.399 191.117 202.496C191.257 202.593 191.37 202.693 191.457 202.796C191.547 202.899 191.614 202.994 191.657 203.081V200.001H192.592V207.431H191.882L191.782 206.371C191.749 206.471 191.695 206.588 191.622 206.721C191.549 206.851 191.445 206.979 191.312 207.106C191.182 207.229 191.012 207.331 190.802 207.411C190.592 207.491 190.337 207.531 190.037 207.531ZM190.202 206.821C190.722 206.821 191.094 206.663 191.317 206.346C191.544 206.026 191.657 205.504 191.657 204.781C191.654 204.378 191.604 204.034 191.507 203.751C191.41 203.468 191.257 203.253 191.047 203.106C190.84 202.956 190.564 202.881 190.217 202.881C189.794 202.881 189.449 203.033 189.182 203.336C188.915 203.639 188.782 204.121 188.782 204.781C188.782 205.428 188.902 205.929 189.142 206.286C189.382 206.643 189.735 206.821 190.202 206.821ZM193.904 207.431V206.251H195.004V207.431H193.904ZM200.538 207.431V201.051H198.203V200.201H203.673V201.051H201.468V207.431H200.538ZM204.676 207.431V200.001H205.576V203.021C205.662 202.878 205.779 202.744 205.926 202.621C206.072 202.494 206.251 202.393 206.461 202.316C206.671 202.236 206.914 202.196 207.191 202.196C207.527 202.196 207.832 202.259 208.106 202.386C208.379 202.509 208.596 202.686 208.756 202.916C208.916 203.146 208.996 203.419 208.996 203.736V207.431H208.071V203.921C208.071 203.611 207.964 203.373 207.751 203.206C207.541 203.036 207.266 202.951 206.926 202.951C206.696 202.951 206.479 202.989 206.276 203.066C206.072 203.139 205.907 203.253 205.781 203.406C205.657 203.556 205.596 203.748 205.596 203.981V207.431H204.676ZM212.622 207.531C212.142 207.531 211.719 207.426 211.352 207.216C210.986 207.006 210.699 206.704 210.492 206.311C210.286 205.918 210.182 205.446 210.182 204.896C210.182 204.353 210.276 203.876 210.462 203.466C210.649 203.056 210.919 202.736 211.272 202.506C211.629 202.276 212.057 202.161 212.557 202.161C213.044 202.161 213.456 202.266 213.792 202.476C214.129 202.686 214.384 202.983 214.557 203.366C214.734 203.746 214.822 204.198 214.822 204.721V205.061H211.117C211.117 205.388 211.171 205.684 211.277 205.951C211.387 206.214 211.552 206.424 211.772 206.581C211.992 206.738 212.271 206.816 212.607 206.816C212.937 206.816 213.221 206.739 213.457 206.586C213.697 206.433 213.851 206.211 213.917 205.921H214.787C214.727 206.271 214.587 206.566 214.367 206.806C214.151 207.046 213.889 207.228 213.582 207.351C213.279 207.471 212.959 207.531 212.622 207.531ZM211.122 204.436H213.932C213.932 204.139 213.882 203.873 213.782 203.636C213.682 203.396 213.529 203.208 213.322 203.071C213.119 202.931 212.862 202.861 212.552 202.861C212.229 202.861 211.961 202.939 211.747 203.096C211.534 203.249 211.376 203.448 211.272 203.691C211.169 203.931 211.119 204.179 211.122 204.436Z" fill="#36536B"/>
<path d="M41.092 221.456C40.7353 221.456 40.4587 221.408 40.262 221.311C40.0653 221.214 39.927 221.071 39.847 220.881C39.7703 220.691 39.732 220.458 39.732 220.181V216.936H38.892V216.261H39.757L39.982 214.756H40.662V216.256H41.827V216.936H40.662V220.151C40.662 220.334 40.6803 220.469 40.717 220.556C40.757 220.639 40.822 220.693 40.912 220.716C41.002 220.739 41.1287 220.751 41.292 220.751H41.857V221.371C41.7937 221.394 41.697 221.414 41.567 221.431C41.4403 221.448 41.282 221.456 41.092 221.456ZM45.017 221.531C44.5403 221.531 44.1237 221.429 43.767 221.226C43.4137 221.019 43.1387 220.718 42.942 220.321C42.7453 219.924 42.647 219.439 42.647 218.866C42.647 218.326 42.7387 217.853 42.922 217.446C43.1053 217.039 43.3737 216.724 43.727 216.501C44.0803 216.274 44.512 216.161 45.022 216.161C45.4987 216.161 45.912 216.266 46.262 216.476C46.612 216.683 46.8837 216.988 47.077 217.391C47.2737 217.794 47.372 218.286 47.372 218.866C47.372 219.393 47.282 219.856 47.102 220.256C46.922 220.656 46.657 220.969 46.307 221.196C45.9603 221.419 45.5303 221.531 45.017 221.531ZM45.022 220.801C45.3287 220.801 45.5887 220.723 45.802 220.566C46.0153 220.409 46.177 220.184 46.287 219.891C46.4003 219.598 46.457 219.249 46.457 218.846C46.457 218.476 46.407 218.144 46.307 217.851C46.2103 217.554 46.057 217.319 45.847 217.146C45.637 216.973 45.362 216.886 45.022 216.886C44.7087 216.886 44.4437 216.964 44.227 217.121C44.0103 217.274 43.8453 217.498 43.732 217.791C43.622 218.084 43.567 218.436 43.567 218.846C43.567 219.209 43.6153 219.539 43.712 219.836C43.812 220.133 43.9687 220.368 44.182 220.541C44.3987 220.714 44.6787 220.801 45.022 220.801ZM50.262 221.456C49.905 221.456 49.629 221.408 49.432 221.311C49.235 221.214 49.097 221.071 49.017 220.881C48.94 220.691 48.902 220.458 48.902 220.181V216.936H48.062V216.261H48.927L49.152 214.756H49.832V216.256H50.997V216.936H49.832V220.151C49.832 220.334 49.85 220.469 49.887 220.556C49.927 220.639 49.992 220.693 50.082 220.716C50.172 220.739 50.299 220.751 50.462 220.751H51.027V221.371C50.964 221.394 50.867 221.414 50.737 221.431C50.61 221.448 50.452 221.456 50.262 221.456ZM53.674 221.531C53.338 221.531 53.041 221.473 52.784 221.356C52.531 221.236 52.331 221.064 52.184 220.841C52.041 220.618 51.969 220.348 51.969 220.031C51.969 219.458 52.169 219.031 52.569 218.751C52.969 218.471 53.611 218.321 54.494 218.301L55.414 218.276V217.871C55.414 217.554 55.319 217.304 55.129 217.121C54.939 216.934 54.646 216.841 54.249 216.841C53.953 216.844 53.691 216.914 53.464 217.051C53.238 217.188 53.093 217.411 53.029 217.721H52.214C52.234 217.384 52.328 217.101 52.494 216.871C52.664 216.638 52.903 216.461 53.209 216.341C53.516 216.221 53.878 216.161 54.294 216.161C54.744 216.161 55.118 216.224 55.414 216.351C55.714 216.478 55.938 216.664 56.084 216.911C56.234 217.158 56.309 217.461 56.309 217.821V221.431H55.519L55.449 220.461C55.253 220.864 54.999 221.144 54.689 221.301C54.383 221.454 54.044 221.531 53.674 221.531ZM53.949 220.866C54.126 220.866 54.299 220.834 54.469 220.771C54.643 220.708 54.799 220.623 54.939 220.516C55.083 220.406 55.198 220.284 55.284 220.151C55.371 220.014 55.414 219.874 55.414 219.731V218.846L54.649 218.861C54.253 218.868 53.923 218.908 53.659 218.981C53.396 219.054 53.198 219.169 53.064 219.326C52.931 219.483 52.864 219.688 52.864 219.941C52.864 220.231 52.966 220.458 53.169 220.621C53.373 220.784 53.633 220.866 53.949 220.866ZM59.057 221.496C58.777 221.496 58.55 221.458 58.377 221.381C58.207 221.304 58.075 221.201 57.982 221.071C57.892 220.941 57.83 220.793 57.797 220.626C57.767 220.456 57.752 220.281 57.752 220.101V214.001H58.662V220.011C58.662 220.271 58.712 220.466 58.812 220.596C58.915 220.726 59.058 220.798 59.242 220.811L59.522 220.816V221.416C59.445 221.439 59.365 221.458 59.282 221.471C59.198 221.488 59.123 221.496 59.057 221.496ZM64.661 221.531C64.324 221.531 64.027 221.473 63.771 221.356C63.517 221.236 63.317 221.064 63.171 220.841C63.027 220.618 62.956 220.348 62.956 220.031C62.956 219.458 63.156 219.031 63.556 218.751C63.956 218.471 64.597 218.321 65.481 218.301L66.401 218.276V217.871C66.401 217.554 66.306 217.304 66.116 217.121C65.926 216.934 65.632 216.841 65.236 216.841C64.939 216.844 64.677 216.914 64.451 217.051C64.224 217.188 64.079 217.411 64.016 217.721H63.201C63.221 217.384 63.314 217.101 63.481 216.871C63.651 216.638 63.889 216.461 64.196 216.341C64.502 216.221 64.864 216.161 65.281 216.161C65.731 216.161 66.104 216.224 66.401 216.351C66.701 216.478 66.924 216.664 67.071 216.911C67.221 217.158 67.296 217.461 67.296 217.821V221.431H66.506L66.436 220.461C66.239 220.864 65.986 221.144 65.676 221.301C65.369 221.454 65.031 221.531 64.661 221.531ZM64.936 220.866C65.112 220.866 65.286 220.834 65.456 220.771C65.629 220.708 65.786 220.623 65.926 220.516C66.069 220.406 66.184 220.284 66.271 220.151C66.357 220.014 66.401 219.874 66.401 219.731V218.846L65.636 218.861C65.239 218.868 64.909 218.908 64.646 218.981C64.382 219.054 64.184 219.169 64.051 219.326C63.917 219.483 63.851 219.688 63.851 219.941C63.851 220.231 63.952 220.458 64.156 220.621C64.359 220.784 64.619 220.866 64.936 220.866ZM68.738 221.431V216.261H69.628V217.011C69.771 216.784 69.968 216.586 70.218 216.416C70.468 216.246 70.793 216.161 71.193 216.161C71.38 216.161 71.57 216.193 71.763 216.256C71.96 216.319 72.14 216.414 72.303 216.541C72.466 216.668 72.593 216.823 72.683 217.006C72.843 216.753 73.06 216.549 73.333 216.396C73.606 216.239 73.915 216.161 74.258 216.161C74.438 216.161 74.626 216.189 74.823 216.246C75.02 216.299 75.201 216.396 75.368 216.536C75.538 216.673 75.676 216.864 75.783 217.111C75.89 217.354 75.943 217.668 75.943 218.051V221.431H75.013V218.141C75.013 217.828 74.963 217.586 74.863 217.416C74.763 217.243 74.631 217.121 74.468 217.051C74.308 216.981 74.136 216.946 73.953 216.946C73.793 216.946 73.623 216.978 73.443 217.041C73.263 217.104 73.11 217.211 72.983 217.361C72.856 217.511 72.793 217.716 72.793 217.976V221.431H71.873V217.871C71.873 217.668 71.818 217.498 71.708 217.361C71.601 217.224 71.466 217.121 71.303 217.051C71.143 216.981 70.983 216.946 70.823 216.946C70.646 216.946 70.468 216.981 70.288 217.051C70.111 217.121 69.961 217.233 69.838 217.386C69.718 217.536 69.658 217.733 69.658 217.976V221.431H68.738ZM79.46 221.531C78.984 221.531 78.567 221.429 78.21 221.226C77.857 221.019 77.582 220.718 77.385 220.321C77.189 219.924 77.09 219.439 77.09 218.866C77.09 218.326 77.182 217.853 77.365 217.446C77.549 217.039 77.817 216.724 78.17 216.501C78.524 216.274 78.955 216.161 79.465 216.161C79.942 216.161 80.355 216.266 80.705 216.476C81.055 216.683 81.327 216.988 81.52 217.391C81.717 217.794 81.815 218.286 81.815 218.866C81.815 219.393 81.725 219.856 81.545 220.256C81.365 220.656 81.1 220.969 80.75 221.196C80.404 221.419 79.974 221.531 79.46 221.531ZM79.465 220.801C79.772 220.801 80.032 220.723 80.245 220.566C80.459 220.409 80.62 220.184 80.73 219.891C80.844 219.598 80.9 219.249 80.9 218.846C80.9 218.476 80.85 218.144 80.75 217.851C80.654 217.554 80.5 217.319 80.29 217.146C80.08 216.973 79.805 216.886 79.465 216.886C79.152 216.886 78.887 216.964 78.67 217.121C78.454 217.274 78.289 217.498 78.175 217.791C78.065 218.084 78.01 218.436 78.01 218.846C78.01 219.209 78.059 219.539 78.155 219.836C78.255 220.133 78.412 220.368 78.625 220.541C78.842 220.714 79.122 220.801 79.465 220.801ZM84.925 221.531C84.655 221.528 84.4 221.489 84.16 221.416C83.923 221.339 83.713 221.228 83.53 221.081C83.347 220.934 83.202 220.753 83.095 220.536C82.992 220.316 82.94 220.061 82.94 219.771V216.261H83.865V219.676C83.865 220.013 83.968 220.286 84.175 220.496C84.385 220.706 84.7 220.811 85.12 220.811C85.5 220.811 85.805 220.713 86.035 220.516C86.268 220.316 86.385 220.019 86.385 219.626V216.261H87.305V221.431H86.57L86.475 220.441C86.412 220.701 86.303 220.911 86.15 221.071C86 221.231 85.818 221.349 85.605 221.426C85.395 221.499 85.168 221.534 84.925 221.531ZM88.885 221.431V216.261H89.78V217.011C89.863 216.868 89.978 216.733 90.125 216.606C90.275 216.479 90.455 216.378 90.665 216.301C90.878 216.224 91.123 216.186 91.4 216.186C91.726 216.186 92.026 216.251 92.3 216.381C92.576 216.511 92.796 216.714 92.96 216.991C93.126 217.264 93.21 217.618 93.21 218.051V221.431H92.285V218.141C92.285 217.738 92.178 217.439 91.965 217.246C91.755 217.049 91.481 216.951 91.145 216.951C90.911 216.951 90.693 216.989 90.49 217.066C90.286 217.139 90.121 217.253 89.995 217.406C89.868 217.556 89.805 217.746 89.805 217.976V221.431H88.885ZM96.336 221.456C95.979 221.456 95.703 221.408 95.506 221.311C95.309 221.214 95.171 221.071 95.091 220.881C95.014 220.691 94.976 220.458 94.976 220.181V216.936H94.136V216.261H95.001L95.226 214.756H95.906V216.256H97.071V216.936H95.906V220.151C95.906 220.334 95.924 220.469 95.961 220.556C96.001 220.639 96.066 220.693 96.156 220.716C96.246 220.739 96.373 220.751 96.536 220.751H97.101V221.371C97.038 221.394 96.941 221.414 96.811 221.431C96.684 221.448 96.526 221.456 96.336 221.456ZM102.518 221.531C101.844 221.531 101.311 221.301 100.918 220.841C100.528 220.381 100.333 219.709 100.333 218.826C100.333 218.289 100.411 217.821 100.568 217.421C100.724 217.021 100.959 216.711 101.273 216.491C101.586 216.271 101.976 216.161 102.443 216.161C102.693 216.161 102.913 216.193 103.103 216.256C103.293 216.319 103.458 216.399 103.598 216.496C103.738 216.593 103.851 216.693 103.938 216.796C104.028 216.899 104.094 216.994 104.138 217.081V214.001H105.073V221.431H104.363L104.263 220.371C104.229 220.471 104.176 220.588 104.103 220.721C104.029 220.851 103.926 220.979 103.793 221.106C103.663 221.229 103.493 221.331 103.283 221.411C103.073 221.491 102.818 221.531 102.518 221.531ZM102.683 220.821C103.203 220.821 103.574 220.663 103.798 220.346C104.024 220.026 104.138 219.504 104.138 218.781C104.134 218.378 104.084 218.034 103.988 217.751C103.891 217.468 103.738 217.253 103.528 217.106C103.321 216.956 103.044 216.881 102.698 216.881C102.274 216.881 101.929 217.033 101.663 217.336C101.396 217.639 101.263 218.121 101.263 218.781C101.263 219.428 101.383 219.929 101.623 220.286C101.863 220.643 102.216 220.821 102.683 220.821ZM108.784 221.531C108.304 221.531 107.881 221.426 107.514 221.216C107.148 221.006 106.861 220.704 106.654 220.311C106.448 219.918 106.344 219.446 106.344 218.896C106.344 218.353 106.438 217.876 106.624 217.466C106.811 217.056 107.081 216.736 107.434 216.506C107.791 216.276 108.219 216.161 108.719 216.161C109.206 216.161 109.618 216.266 109.954 216.476C110.291 216.686 110.546 216.983 110.719 217.366C110.896 217.746 110.984 218.198 110.984 218.721V219.061H107.279C107.279 219.388 107.333 219.684 107.439 219.951C107.549 220.214 107.714 220.424 107.934 220.581C108.154 220.738 108.433 220.816 108.769 220.816C109.099 220.816 109.383 220.739 109.619 220.586C109.859 220.433 110.013 220.211 110.079 219.921H110.949C110.889 220.271 110.749 220.566 110.529 220.806C110.313 221.046 110.051 221.228 109.744 221.351C109.441 221.471 109.121 221.531 108.784 221.531ZM107.284 218.436H110.094C110.094 218.139 110.044 217.873 109.944 217.636C109.844 217.396 109.691 217.208 109.484 217.071C109.281 216.931 109.024 216.861 108.714 216.861C108.391 216.861 108.123 216.939 107.909 217.096C107.696 217.249 107.538 217.448 107.434 217.691C107.331 217.931 107.281 218.179 107.284 218.436ZM114.148 221.531C113.475 221.531 112.942 221.301 112.548 220.841C112.158 220.381 111.963 219.709 111.963 218.826C111.963 218.289 112.042 217.821 112.198 217.421C112.355 217.021 112.59 216.711 112.903 216.491C113.217 216.271 113.607 216.161 114.073 216.161C114.323 216.161 114.543 216.193 114.733 216.256C114.923 216.319 115.088 216.399 115.228 216.496C115.368 216.593 115.482 216.693 115.568 216.796C115.658 216.899 115.725 216.994 115.768 217.081V214.001H116.703V221.431H115.993L115.893 220.371C115.86 220.471 115.807 220.588 115.733 220.721C115.66 220.851 115.557 220.979 115.423 221.106C115.293 221.229 115.123 221.331 114.913 221.411C114.703 221.491 114.448 221.531 114.148 221.531ZM114.313 220.821C114.833 220.821 115.205 220.663 115.428 220.346C115.655 220.026 115.768 219.504 115.768 218.781C115.765 218.378 115.715 218.034 115.618 217.751C115.522 217.468 115.368 217.253 115.158 217.106C114.952 216.956 114.675 216.881 114.328 216.881C113.905 216.881 113.56 217.033 113.293 217.336C113.027 217.639 112.893 218.121 112.893 218.781C112.893 219.428 113.013 219.929 113.253 220.286C113.493 220.643 113.847 220.821 114.313 220.821ZM120.13 221.531C119.86 221.528 119.605 221.489 119.365 221.416C119.129 221.339 118.919 221.228 118.735 221.081C118.552 220.934 118.407 220.753 118.3 220.536C118.197 220.316 118.145 220.061 118.145 219.771V216.261H119.07V219.676C119.07 220.013 119.174 220.286 119.38 220.496C119.59 220.706 119.905 220.811 120.325 220.811C120.705 220.811 121.01 220.713 121.24 220.516C121.474 220.316 121.59 220.019 121.59 219.626V216.261H122.51V221.431H121.775L121.68 220.441C121.617 220.701 121.509 220.911 121.355 221.071C121.205 221.231 121.024 221.349 120.81 221.426C120.6 221.499 120.374 221.534 120.13 221.531ZM126.111 221.531C125.644 221.531 125.231 221.429 124.871 221.226C124.514 221.023 124.234 220.723 124.031 220.326C123.831 219.929 123.731 219.443 123.731 218.866C123.731 218.326 123.823 217.854 124.006 217.451C124.193 217.044 124.463 216.728 124.816 216.501C125.173 216.274 125.604 216.161 126.111 216.161C126.481 216.161 126.813 216.233 127.106 216.376C127.403 216.516 127.646 216.716 127.836 216.976C128.026 217.236 128.143 217.543 128.186 217.896H127.366C127.336 217.716 127.266 217.551 127.156 217.401C127.049 217.251 126.908 217.131 126.731 217.041C126.558 216.951 126.353 216.906 126.116 216.906C125.673 216.906 125.311 217.066 125.031 217.386C124.754 217.706 124.616 218.196 124.616 218.856C124.616 219.453 124.743 219.931 124.996 220.291C125.253 220.648 125.629 220.826 126.126 220.826C126.363 220.826 126.569 220.781 126.746 220.691C126.923 220.598 127.064 220.476 127.171 220.326C127.278 220.173 127.346 220.009 127.376 219.836H128.181C128.138 220.183 128.019 220.483 127.826 220.736C127.636 220.989 127.393 221.186 127.096 221.326C126.803 221.463 126.474 221.531 126.111 221.531ZM131.131 221.456C130.774 221.456 130.498 221.408 130.301 221.311C130.104 221.214 129.966 221.071 129.886 220.881C129.809 220.691 129.771 220.458 129.771 220.181V216.936H128.931V216.261H129.796L130.021 214.756H130.701V216.256H131.866V216.936H130.701V220.151C130.701 220.334 130.719 220.469 130.756 220.556C130.796 220.639 130.861 220.693 130.951 220.716C131.041 220.739 131.168 220.751 131.331 220.751H131.896V221.371C131.833 221.394 131.736 221.414 131.606 221.431C131.479 221.448 131.321 221.456 131.131 221.456ZM135.171 221.531C134.691 221.531 134.268 221.426 133.901 221.216C133.534 221.006 133.248 220.704 133.041 220.311C132.834 219.918 132.731 219.446 132.731 218.896C132.731 218.353 132.824 217.876 133.011 217.466C133.198 217.056 133.468 216.736 133.821 216.506C134.178 216.276 134.606 216.161 135.106 216.161C135.593 216.161 136.004 216.266 136.341 216.476C136.678 216.686 136.933 216.983 137.106 217.366C137.283 217.746 137.371 218.198 137.371 218.721V219.061H133.666C133.666 219.388 133.719 219.684 133.826 219.951C133.936 220.214 134.101 220.424 134.321 220.581C134.541 220.738 134.819 220.816 135.156 220.816C135.486 220.816 135.769 220.739 136.006 220.586C136.246 220.433 136.399 220.211 136.466 219.921H137.336C137.276 220.271 137.136 220.566 136.916 220.806C136.699 221.046 136.438 221.228 136.131 221.351C135.828 221.471 135.508 221.531 135.171 221.531ZM133.671 218.436H136.481C136.481 218.139 136.431 217.873 136.331 217.636C136.231 217.396 136.078 217.208 135.871 217.071C135.668 216.931 135.411 216.861 135.101 216.861C134.778 216.861 134.509 216.939 134.296 217.096C134.083 217.249 133.924 217.448 133.821 217.691C133.718 217.931 133.668 218.179 133.671 218.436ZM140.535 221.531C139.862 221.531 139.328 221.301 138.935 220.841C138.545 220.381 138.35 219.709 138.35 218.826C138.35 218.289 138.428 217.821 138.585 217.421C138.742 217.021 138.977 216.711 139.29 216.491C139.603 216.271 139.993 216.161 140.46 216.161C140.71 216.161 140.93 216.193 141.12 216.256C141.31 216.319 141.475 216.399 141.615 216.496C141.755 216.593 141.868 216.693 141.955 216.796C142.045 216.899 142.112 216.994 142.155 217.081V214.001H143.09V221.431H142.38L142.28 220.371C142.247 220.471 142.193 220.588 142.12 220.721C142.047 220.851 141.943 220.979 141.81 221.106C141.68 221.229 141.51 221.331 141.3 221.411C141.09 221.491 140.835 221.531 140.535 221.531ZM140.7 220.821C141.22 220.821 141.592 220.663 141.815 220.346C142.042 220.026 142.155 219.504 142.155 218.781C142.152 218.378 142.102 218.034 142.005 217.751C141.908 217.468 141.755 217.253 141.545 217.106C141.338 216.956 141.062 216.881 140.715 216.881C140.292 216.881 139.947 217.033 139.68 217.336C139.413 217.639 139.28 218.121 139.28 218.781C139.28 219.428 139.4 219.929 139.64 220.286C139.88 220.643 140.233 220.821 140.7 220.821ZM147.739 221.431V216.936H146.644V216.261H147.739V215.461C147.739 215.051 147.842 214.739 148.049 214.526C148.259 214.309 148.572 214.201 148.989 214.201H149.964L149.969 214.856H149.199C148.985 214.856 148.84 214.913 148.764 215.026C148.687 215.139 148.649 215.311 148.649 215.541V216.261H149.919V216.936H148.664V221.431H147.739ZM151.004 221.431V216.261H151.884V217.256C151.97 217.009 152.092 216.806 152.249 216.646C152.405 216.483 152.584 216.361 152.784 216.281C152.987 216.201 153.197 216.161 153.414 216.161C153.49 216.161 153.565 216.166 153.639 216.176C153.712 216.186 153.769 216.203 153.809 216.226V217.121C153.759 217.098 153.694 217.083 153.614 217.076C153.537 217.066 153.472 217.061 153.419 217.061C153.212 217.048 153.019 217.061 152.839 217.101C152.659 217.138 152.5 217.203 152.364 217.296C152.227 217.389 152.119 217.513 152.039 217.666C151.962 217.816 151.924 217.999 151.924 218.216V221.431H151.004ZM156.902 221.531C156.425 221.531 156.008 221.429 155.652 221.226C155.298 221.019 155.023 220.718 154.827 220.321C154.63 219.924 154.532 219.439 154.532 218.866C154.532 218.326 154.623 217.853 154.807 217.446C154.99 217.039 155.258 216.724 155.612 216.501C155.965 216.274 156.397 216.161 156.907 216.161C157.383 216.161 157.797 216.266 158.147 216.476C158.497 216.683 158.768 216.988 158.962 217.391C159.158 217.794 159.257 218.286 159.257 218.866C159.257 219.393 159.167 219.856 158.987 220.256C158.807 220.656 158.542 220.969 158.192 221.196C157.845 221.419 157.415 221.531 156.902 221.531ZM156.907 220.801C157.213 220.801 157.473 220.723 157.687 220.566C157.9 220.409 158.062 220.184 158.172 219.891C158.285 219.598 158.342 219.249 158.342 218.846C158.342 218.476 158.292 218.144 158.192 217.851C158.095 217.554 157.942 217.319 157.732 217.146C157.522 216.973 157.247 216.886 156.907 216.886C156.593 216.886 156.328 216.964 156.112 217.121C155.895 217.274 155.73 217.498 155.617 217.791C155.507 218.084 155.452 218.436 155.452 218.846C155.452 219.209 155.5 219.539 155.597 219.836C155.697 220.133 155.853 220.368 156.067 220.541C156.283 220.714 156.563 220.801 156.907 220.801ZM160.486 221.431V216.261H161.376V217.011C161.519 216.784 161.716 216.586 161.966 216.416C162.216 216.246 162.541 216.161 162.941 216.161C163.128 216.161 163.318 216.193 163.511 216.256C163.708 216.319 163.888 216.414 164.051 216.541C164.214 216.668 164.341 216.823 164.431 217.006C164.591 216.753 164.808 216.549 165.081 216.396C165.354 216.239 165.663 216.161 166.006 216.161C166.186 216.161 166.374 216.189 166.571 216.246C166.768 216.299 166.949 216.396 167.116 216.536C167.286 216.673 167.424 216.864 167.531 217.111C167.638 217.354 167.691 217.668 167.691 218.051V221.431H166.761V218.141C166.761 217.828 166.711 217.586 166.611 217.416C166.511 217.243 166.379 217.121 166.216 217.051C166.056 216.981 165.884 216.946 165.701 216.946C165.541 216.946 165.371 216.978 165.191 217.041C165.011 217.104 164.858 217.211 164.731 217.361C164.604 217.511 164.541 217.716 164.541 217.976V221.431H163.621V217.871C163.621 217.668 163.566 217.498 163.456 217.361C163.349 217.224 163.214 217.121 163.051 217.051C162.891 216.981 162.731 216.946 162.571 216.946C162.394 216.946 162.216 216.981 162.036 217.051C161.859 217.121 161.709 217.233 161.586 217.386C161.466 217.536 161.406 217.733 161.406 217.976V221.431H160.486ZM172.026 223.081C171.723 223.081 171.515 223.059 171.401 223.016C171.288 222.973 171.231 222.951 171.231 222.951V222.351L171.761 222.361C171.951 222.368 172.11 222.354 172.236 222.321C172.363 222.288 172.465 222.243 172.541 222.186C172.618 222.129 172.676 222.066 172.716 221.996C172.76 221.926 172.795 221.859 172.821 221.796L173.001 221.306L170.981 216.261H171.916L173.441 220.251L174.956 216.261H175.861L173.686 221.821C173.55 222.148 173.398 222.403 173.231 222.586C173.068 222.769 172.885 222.898 172.681 222.971C172.481 223.044 172.263 223.081 172.026 223.081ZM178.835 221.531C178.359 221.531 177.942 221.429 177.585 221.226C177.232 221.019 176.957 220.718 176.76 220.321C176.564 219.924 176.465 219.439 176.465 218.866C176.465 218.326 176.557 217.853 176.74 217.446C176.924 217.039 177.192 216.724 177.545 216.501C177.899 216.274 178.33 216.161 178.84 216.161C179.317 216.161 179.73 216.266 180.08 216.476C180.43 216.683 180.702 216.988 180.895 217.391C181.092 217.794 181.19 218.286 181.19 218.866C181.19 219.393 181.1 219.856 180.92 220.256C180.74 220.656 180.475 220.969 180.125 221.196C179.779 221.419 179.349 221.531 178.835 221.531ZM178.84 220.801C179.147 220.801 179.407 220.723 179.62 220.566C179.834 220.409 179.995 220.184 180.105 219.891C180.219 219.598 180.275 219.249 180.275 218.846C180.275 218.476 180.225 218.144 180.125 217.851C180.029 217.554 179.875 217.319 179.665 217.146C179.455 216.973 179.18 216.886 178.84 216.886C178.527 216.886 178.262 216.964 178.045 217.121C177.829 217.274 177.664 217.498 177.55 217.791C177.44 218.084 177.385 218.436 177.385 218.846C177.385 219.209 177.434 219.539 177.53 219.836C177.63 220.133 177.787 220.368 178 220.541C178.217 220.714 178.497 220.801 178.84 220.801ZM184.3 221.531C184.03 221.528 183.775 221.489 183.535 221.416C183.298 221.339 183.088 221.228 182.905 221.081C182.722 220.934 182.577 220.753 182.47 220.536C182.367 220.316 182.315 220.061 182.315 219.771V216.261H183.24V219.676C183.24 220.013 183.343 220.286 183.55 220.496C183.76 220.706 184.075 220.811 184.495 220.811C184.875 220.811 185.18 220.713 185.41 220.516C185.643 220.316 185.76 220.019 185.76 219.626V216.261H186.68V221.431H185.945L185.85 220.441C185.787 220.701 185.678 220.911 185.525 221.071C185.375 221.231 185.193 221.349 184.98 221.426C184.77 221.499 184.543 221.534 184.3 221.531ZM188.26 221.431V216.261H189.14V217.256C189.226 217.009 189.348 216.806 189.505 216.646C189.661 216.483 189.84 216.361 190.04 216.281C190.243 216.201 190.453 216.161 190.67 216.161C190.746 216.161 190.821 216.166 190.895 216.176C190.968 216.186 191.025 216.203 191.065 216.226V217.121C191.015 217.098 190.95 217.083 190.87 217.076C190.793 217.066 190.728 217.061 190.675 217.061C190.468 217.048 190.275 217.061 190.095 217.101C189.915 217.138 189.756 217.203 189.62 217.296C189.483 217.389 189.375 217.513 189.295 217.666C189.218 217.816 189.18 217.999 189.18 218.216V221.431H188.26Z" fill="#36536B"/>
<path d="M40.647 235.531C40.3103 235.531 40.0137 235.473 39.757 235.356C39.5037 235.236 39.3037 235.064 39.157 234.841C39.0137 234.618 38.942 234.348 38.942 234.031C38.942 233.458 39.142 233.031 39.542 232.751C39.942 232.471 40.5837 232.321 41.467 232.301L42.387 232.276V231.871C42.387 231.554 42.292 231.304 42.102 231.121C41.912 230.934 41.6187 230.841 41.222 230.841C40.9253 230.844 40.6637 230.914 40.437 231.051C40.2103 231.188 40.0653 231.411 40.002 231.721H39.187C39.207 231.384 39.3003 231.101 39.467 230.871C39.637 230.638 39.8753 230.461 40.182 230.341C40.4887 230.221 40.8503 230.161 41.267 230.161C41.717 230.161 42.0903 230.224 42.387 230.351C42.687 230.478 42.9103 230.664 43.057 230.911C43.207 231.158 43.282 231.461 43.282 231.821V235.431H42.492L42.422 234.461C42.2253 234.864 41.972 235.144 41.662 235.301C41.3553 235.454 41.017 235.531 40.647 235.531ZM40.922 234.866C41.0987 234.866 41.272 234.834 41.442 234.771C41.6153 234.708 41.772 234.623 41.912 234.516C42.0553 234.406 42.1703 234.284 42.257 234.151C42.3437 234.014 42.387 233.874 42.387 233.731V232.846L41.622 232.861C41.2253 232.868 40.8953 232.908 40.632 232.981C40.3687 233.054 40.1703 233.169 40.037 233.326C39.9037 233.483 39.837 233.688 39.837 233.941C39.837 234.231 39.9387 234.458 40.142 234.621C40.3453 234.784 40.6053 234.866 40.922 234.866ZM46.8044 235.531C46.3377 235.531 45.9244 235.429 45.5644 235.226C45.2077 235.023 44.9277 234.723 44.7244 234.326C44.5244 233.929 44.4244 233.443 44.4244 232.866C44.4244 232.326 44.516 231.854 44.6994 231.451C44.886 231.044 45.156 230.728 45.5094 230.501C45.866 230.274 46.2977 230.161 46.8044 230.161C47.1744 230.161 47.506 230.233 47.7994 230.376C48.096 230.516 48.339 230.716 48.529 230.976C48.719 231.236 48.836 231.543 48.879 231.896H48.059C48.029 231.716 47.9594 231.551 47.8494 231.401C47.7427 231.251 47.601 231.131 47.4244 231.041C47.251 230.951 47.046 230.906 46.8094 230.906C46.366 230.906 46.0044 231.066 45.7244 231.386C45.4477 231.706 45.3094 232.196 45.3094 232.856C45.3094 233.453 45.436 233.931 45.6894 234.291C45.946 234.648 46.3227 234.826 46.8194 234.826C47.056 234.826 47.2627 234.781 47.4394 234.691C47.616 234.598 47.7577 234.476 47.8644 234.326C47.971 234.173 48.039 234.009 48.069 233.836H48.874C48.831 234.183 48.713 234.483 48.519 234.736C48.329 234.989 48.086 235.186 47.7894 235.326C47.496 235.463 47.1677 235.531 46.8044 235.531ZM52.215 235.531C51.748 235.531 51.335 235.429 50.975 235.226C50.618 235.023 50.338 234.723 50.135 234.326C49.935 233.929 49.835 233.443 49.835 232.866C49.835 232.326 49.926 231.854 50.11 231.451C50.296 231.044 50.566 230.728 50.92 230.501C51.276 230.274 51.708 230.161 52.215 230.161C52.585 230.161 52.916 230.233 53.21 230.376C53.506 230.516 53.75 230.716 53.94 230.976C54.13 231.236 54.246 231.543 54.29 231.896H53.47C53.44 231.716 53.37 231.551 53.26 231.401C53.153 231.251 53.011 231.131 52.835 231.041C52.661 230.951 52.456 230.906 52.22 230.906C51.776 230.906 51.415 231.066 51.135 231.386C50.858 231.706 50.72 232.196 50.72 232.856C50.72 233.453 50.846 233.931 51.1 234.291C51.356 234.648 51.733 234.826 52.23 234.826C52.466 234.826 52.673 234.781 52.85 234.691C53.026 234.598 53.168 234.476 53.275 234.326C53.381 234.173 53.45 234.009 53.48 233.836H54.285C54.241 234.183 54.123 234.483 53.93 234.736C53.74 234.989 53.496 235.186 53.2 235.326C52.906 235.463 52.578 235.531 52.215 235.531ZM57.615 235.531C57.138 235.531 56.721 235.429 56.365 235.226C56.011 235.019 55.736 234.718 55.54 234.321C55.343 233.924 55.245 233.439 55.245 232.866C55.245 232.326 55.336 231.853 55.52 231.446C55.703 231.039 55.971 230.724 56.325 230.501C56.678 230.274 57.11 230.161 57.62 230.161C58.096 230.161 58.51 230.266 58.86 230.476C59.21 230.683 59.481 230.988 59.675 231.391C59.871 231.794 59.97 232.286 59.97 232.866C59.97 233.393 59.88 233.856 59.7 234.256C59.52 234.656 59.255 234.969 58.905 235.196C58.558 235.419 58.128 235.531 57.615 235.531ZM57.62 234.801C57.926 234.801 58.186 234.723 58.4 234.566C58.613 234.409 58.775 234.184 58.885 233.891C58.998 233.598 59.055 233.249 59.055 232.846C59.055 232.476 59.005 232.144 58.905 231.851C58.808 231.554 58.655 231.319 58.445 231.146C58.235 230.973 57.96 230.886 57.62 230.886C57.306 230.886 57.041 230.964 56.825 231.121C56.608 231.274 56.443 231.498 56.33 231.791C56.22 232.084 56.165 232.436 56.165 232.846C56.165 233.209 56.213 233.539 56.31 233.836C56.41 234.133 56.566 234.368 56.78 234.541C56.996 234.714 57.276 234.801 57.62 234.801ZM63.079 235.531C62.809 235.528 62.554 235.489 62.314 235.416C62.078 235.339 61.868 235.228 61.684 235.081C61.501 234.934 61.356 234.753 61.249 234.536C61.146 234.316 61.094 234.061 61.094 233.771V230.261H62.019V233.676C62.019 234.013 62.123 234.286 62.329 234.496C62.539 234.706 62.854 234.811 63.274 234.811C63.654 234.811 63.959 234.713 64.189 234.516C64.423 234.316 64.539 234.019 64.539 233.626V230.261H65.459V235.431H64.724L64.629 234.441C64.566 234.701 64.458 234.911 64.304 235.071C64.154 235.231 63.973 235.349 63.759 235.426C63.549 235.499 63.323 235.534 63.079 235.531ZM67.039 235.431V230.261H67.934V231.011C68.017 230.868 68.132 230.733 68.279 230.606C68.429 230.479 68.609 230.378 68.819 230.301C69.032 230.224 69.277 230.186 69.554 230.186C69.88 230.186 70.18 230.251 70.454 230.381C70.73 230.511 70.95 230.714 71.114 230.991C71.28 231.264 71.364 231.618 71.364 232.051V235.431H70.439V232.141C70.439 231.738 70.332 231.439 70.119 231.246C69.909 231.049 69.635 230.951 69.299 230.951C69.065 230.951 68.847 230.989 68.644 231.066C68.44 231.139 68.275 231.253 68.149 231.406C68.022 231.556 67.959 231.746 67.959 231.976V235.431H67.039ZM74.49 235.456C74.134 235.456 73.857 235.408 73.66 235.311C73.464 235.214 73.325 235.071 73.245 234.881C73.169 234.691 73.13 234.458 73.13 234.181V230.936H72.29V230.261H73.155L73.38 228.756H74.06V230.256H75.225V230.936H74.06V234.151C74.06 234.334 74.079 234.469 74.115 234.556C74.155 234.639 74.22 234.693 74.31 234.716C74.4 234.739 74.527 234.751 74.69 234.751H75.255V235.371C75.192 235.394 75.095 235.414 74.965 235.431C74.839 235.448 74.68 235.456 74.49 235.456ZM78.939 235.431V230.261H79.834V235.431H78.939ZM78.914 229.166V228.206H79.859V229.166H78.914ZM83.245 235.531C82.885 235.531 82.55 235.476 82.24 235.366C81.933 235.253 81.678 235.078 81.475 234.841C81.271 234.601 81.145 234.296 81.095 233.926H81.935C81.978 234.129 82.061 234.299 82.185 234.436C82.308 234.569 82.46 234.671 82.64 234.741C82.823 234.808 83.023 234.841 83.24 234.841C83.59 234.841 83.871 234.776 84.085 234.646C84.298 234.516 84.405 234.316 84.405 234.046C84.405 233.856 84.348 233.704 84.235 233.591C84.125 233.474 83.951 233.389 83.715 233.336L82.645 233.071C82.228 232.971 81.895 232.814 81.645 232.601C81.398 232.388 81.273 232.089 81.27 231.706C81.27 231.403 81.343 231.136 81.49 230.906C81.636 230.676 81.855 230.494 82.145 230.361C82.438 230.228 82.803 230.161 83.24 230.161C83.803 230.161 84.256 230.288 84.6 230.541C84.943 230.791 85.123 231.159 85.14 231.646H84.32C84.286 231.399 84.176 231.204 83.99 231.061C83.803 230.914 83.55 230.841 83.23 230.841C82.903 230.841 82.635 230.908 82.425 231.041C82.218 231.171 82.115 231.374 82.115 231.651C82.115 231.834 82.188 231.979 82.335 232.086C82.485 232.189 82.701 232.276 82.985 232.346L84.025 232.606C84.261 232.669 84.458 232.753 84.615 232.856C84.771 232.959 84.895 233.074 84.985 233.201C85.075 233.328 85.138 233.461 85.175 233.601C85.215 233.738 85.235 233.869 85.235 233.996C85.235 234.313 85.156 234.586 85 234.816C84.843 235.043 84.616 235.219 84.32 235.346C84.023 235.469 83.665 235.531 83.245 235.531ZM91.634 235.531C90.931 235.531 90.367 235.414 89.944 235.181C89.521 234.944 89.214 234.609 89.024 234.176C88.837 233.743 88.744 233.226 88.744 232.626V228.201H90.229V232.736C90.229 233.276 90.359 233.671 90.619 233.921C90.879 234.168 91.217 234.291 91.634 234.291C91.911 234.291 92.156 234.238 92.369 234.131C92.582 234.021 92.749 233.853 92.869 233.626C92.992 233.396 93.054 233.099 93.054 232.736V228.201H94.529V232.676C94.529 233.259 94.434 233.766 94.244 234.196C94.054 234.623 93.746 234.953 93.319 235.186C92.896 235.416 92.334 235.531 91.634 235.531ZM98.69 235.531C98.33 235.531 97.979 235.486 97.635 235.396C97.292 235.306 96.979 235.171 96.695 234.991C96.412 234.811 96.179 234.586 95.995 234.316C95.815 234.046 95.707 233.729 95.67 233.366H97.165C97.215 233.586 97.31 233.771 97.45 233.921C97.594 234.071 97.777 234.186 98 234.266C98.227 234.346 98.485 234.386 98.775 234.386C99.005 234.386 99.224 234.353 99.43 234.286C99.637 234.219 99.805 234.118 99.935 233.981C100.065 233.844 100.13 233.673 100.13 233.466C100.13 233.219 100.04 233.034 99.86 232.911C99.68 232.784 99.435 232.684 99.125 232.611L97.77 232.316C97.387 232.236 97.052 232.113 96.765 231.946C96.482 231.776 96.264 231.556 96.11 231.286C95.957 231.013 95.88 230.681 95.88 230.291C95.88 229.841 96.004 229.453 96.25 229.126C96.5 228.799 96.839 228.549 97.265 228.376C97.695 228.199 98.177 228.111 98.71 228.111C99.314 228.111 99.822 228.209 100.235 228.406C100.652 228.599 100.97 228.863 101.19 229.196C101.41 229.526 101.522 229.894 101.525 230.301H100.065C100.039 230.051 99.962 229.851 99.835 229.701C99.709 229.548 99.545 229.438 99.345 229.371C99.149 229.301 98.924 229.266 98.67 229.266C98.234 229.266 97.915 229.354 97.715 229.531C97.515 229.708 97.415 229.913 97.415 230.146C97.415 230.366 97.49 230.544 97.64 230.681C97.794 230.814 98.039 230.916 98.375 230.986L99.63 231.256C100.097 231.346 100.475 231.489 100.765 231.686C101.055 231.879 101.267 232.114 101.4 232.391C101.534 232.668 101.6 232.978 101.6 233.321C101.6 233.758 101.475 234.143 101.225 234.476C100.979 234.806 100.637 235.064 100.2 235.251C99.764 235.438 99.26 235.531 98.69 235.531ZM107.885 235.531C107.018 235.531 106.315 235.358 105.775 235.011C105.235 234.661 104.925 234.123 104.845 233.396L106.365 233.366C106.445 233.696 106.617 233.948 106.88 234.121C107.147 234.291 107.48 234.376 107.88 234.376C108.12 234.376 108.332 234.338 108.515 234.261C108.702 234.181 108.848 234.074 108.955 233.941C109.062 233.804 109.115 233.649 109.115 233.476C109.115 233.209 109.03 233.011 108.86 232.881C108.69 232.748 108.428 232.641 108.075 232.561L106.89 232.306C106.34 232.196 105.898 231.978 105.565 231.651C105.235 231.321 105.067 230.879 105.06 230.326C105.057 229.873 105.178 229.481 105.425 229.151C105.675 228.818 106.013 228.561 106.44 228.381C106.87 228.201 107.352 228.111 107.885 228.111C108.432 228.111 108.903 228.209 109.3 228.406C109.7 228.599 110.007 228.861 110.22 229.191C110.437 229.518 110.542 229.879 110.535 230.276L109.06 230.301C109.013 229.981 108.907 229.729 108.74 229.546C108.573 229.363 108.297 229.271 107.91 229.271C107.71 229.271 107.532 229.293 107.375 229.336C107.218 229.379 107.083 229.441 106.97 229.521C106.857 229.598 106.77 229.689 106.71 229.796C106.653 229.903 106.625 230.023 106.625 230.156C106.625 230.366 106.695 230.533 106.835 230.656C106.978 230.776 107.247 230.888 107.64 230.991L108.805 231.276C109.462 231.433 109.935 231.701 110.225 232.081C110.518 232.461 110.665 232.923 110.665 233.466C110.665 233.883 110.55 234.246 110.32 234.556C110.093 234.866 109.772 235.106 109.355 235.276C108.938 235.446 108.448 235.531 107.885 235.531ZM107.235 236.386V235.086H108.495V236.386H107.235ZM107.26 228.466V227.166H108.525V228.466H107.26ZM112.877 235.431V230.016H111.587V229.191C112 229.191 112.333 229.153 112.587 229.076C112.843 228.996 113.035 228.883 113.162 228.736C113.288 228.586 113.363 228.408 113.387 228.201H114.357V235.431H112.877ZM118.664 235.541C117.787 235.541 117.102 235.223 116.609 234.586C116.119 233.949 115.874 233.033 115.874 231.836C115.874 231.036 115.987 230.358 116.214 229.801C116.441 229.244 116.762 228.823 117.179 228.536C117.596 228.246 118.091 228.101 118.664 228.101C119.524 228.101 120.202 228.423 120.699 229.066C121.196 229.706 121.444 230.628 121.444 231.831C121.444 233.028 121.199 233.946 120.709 234.586C120.219 235.223 119.537 235.541 118.664 235.541ZM118.664 234.346C119.094 234.346 119.409 234.154 119.609 233.771C119.809 233.384 119.909 232.739 119.909 231.836C119.909 230.913 119.807 230.251 119.604 229.851C119.401 229.451 119.086 229.251 118.659 229.251C118.232 229.251 117.914 229.453 117.704 229.856C117.497 230.259 117.394 230.919 117.394 231.836C117.394 232.736 117.497 233.379 117.704 233.766C117.911 234.153 118.231 234.346 118.664 234.346ZM125.595 235.431L125.6 233.831H122.27V232.631L125.565 228.201H127V232.606H128.115V233.831H127V235.431H125.595ZM123.62 232.606H125.6V229.956L123.62 232.606ZM128.898 235.431V233.841H130.498V235.431H128.898ZM134.193 235.541C133.743 235.541 133.323 235.454 132.933 235.281C132.543 235.108 132.225 234.864 131.978 234.551C131.731 234.234 131.593 233.864 131.563 233.441H132.953C133.013 233.721 133.146 233.949 133.353 234.126C133.56 234.299 133.82 234.386 134.133 234.386C134.48 234.386 134.783 234.304 135.043 234.141C135.306 233.978 135.503 233.718 135.633 233.361C135.766 233.004 135.813 232.538 135.773 231.961C135.68 232.138 135.55 232.293 135.383 232.426C135.22 232.556 135.028 232.658 134.808 232.731C134.588 232.801 134.343 232.836 134.073 232.836C133.583 232.836 133.148 232.744 132.768 232.561C132.391 232.374 132.095 232.111 131.878 231.771C131.665 231.428 131.558 231.021 131.558 230.551C131.558 230.078 131.671 229.656 131.898 229.286C132.125 228.916 132.441 228.626 132.848 228.416C133.255 228.206 133.731 228.101 134.278 228.101C134.891 228.101 135.42 228.248 135.863 228.541C136.31 228.831 136.651 229.244 136.888 229.781C137.128 230.314 137.248 230.943 137.248 231.666C137.248 232.529 137.125 233.249 136.878 233.826C136.635 234.399 136.285 234.829 135.828 235.116C135.371 235.399 134.826 235.541 134.193 235.541ZM134.323 231.676C134.526 231.676 134.723 231.631 134.913 231.541C135.106 231.448 135.265 231.331 135.388 231.191C135.511 231.051 135.573 230.906 135.573 230.756C135.576 230.433 135.525 230.156 135.418 229.926C135.315 229.693 135.168 229.514 134.978 229.391C134.791 229.268 134.573 229.206 134.323 229.206C134.093 229.206 133.888 229.259 133.708 229.366C133.528 229.473 133.386 229.623 133.283 229.816C133.18 230.009 133.128 230.233 133.128 230.486C133.128 230.863 133.238 231.156 133.458 231.366C133.678 231.573 133.966 231.676 134.323 231.676ZM140.891 235.541C140.014 235.541 139.329 235.223 138.836 234.586C138.346 233.949 138.101 233.033 138.101 231.836C138.101 231.036 138.214 230.358 138.441 229.801C138.667 229.244 138.989 228.823 139.406 228.536C139.822 228.246 140.317 228.101 140.891 228.101C141.751 228.101 142.429 228.423 142.926 229.066C143.422 229.706 143.671 230.628 143.671 231.831C143.671 233.028 143.426 233.946 142.936 234.586C142.446 235.223 141.764 235.541 140.891 235.541ZM140.891 234.346C141.321 234.346 141.636 234.154 141.836 233.771C142.036 233.384 142.136 232.739 142.136 231.836C142.136 230.913 142.034 230.251 141.831 229.851C141.627 229.451 141.312 229.251 140.886 229.251C140.459 229.251 140.141 229.453 139.931 229.856C139.724 230.259 139.621 230.919 139.621 231.836C139.621 232.736 139.724 233.379 139.931 233.766C140.137 234.153 140.457 234.346 140.891 234.346ZM144.656 235.431V234.251H145.756V235.431H144.656Z" fill="#36536B"/>
</g>
<defs>
<filter id="filter0_d_113_313" x="-52" y="-53.999" width="417.65" height="658.861" filterUnits="userSpaceOnUse" color-interpolation-filters="sRGB">
<feFlood flood-opacity="0" result="BackgroundImageFix"/>
<feColorMatrix in="SourceAlpha" type="matrix" values="0 0 0 0 0 0 0 0 0 0 0 0 0 0 0 0 0 0 127 0" result="hardAlpha"/>
<feOffset dx="25" dy="25"/>
<feGaussianBlur stdDeviation="40"/>
<feColorMatrix type="matrix" values="0 0 0 0 0.212302 0 0 0 0 0.32521 0 0 0 0 0.419299 0 0 0 0.300727 0"/>
<feBlend mode="normal" in2="BackgroundImageFix" result="effect1_dropShadow_113_313"/>
<feBlend mode="normal" in="SourceGraphic" in2="effect1_dropShadow_113_313" result="shape"/>
</filter>
<filter id="filter1_d_113_313" x="7.432" y="152.431" width="268" height="137" filterUnits="userSpaceOnUse" color-interpolation-filters="sRGB">
<feFlood flood-opacity="0" result="BackgroundImageFix"/>
<feColorMatrix in="SourceAlpha" type="matrix" values="0 0 0 0 0 0 0 0 0 0 0 0 0 0 0 0 0 0 127 0" result="hardAlpha"/>
<feOffset dx="10" dy="10"/>
<feGaussianBlur stdDeviation="12.5"/>
<feColorMatrix type="matrix" values="0 0 0 0 0.212302 0 0 0 0 0.32521 0 0 0 0 0.419299 0 0 0 0.25 0"/>
<feBlend mode="normal" in2="BackgroundImageFix" result="effect1_dropShadow_113_313"/>
<feBlend mode="normal" in="SourceGraphic" in2="effect1_dropShadow_113_313" result="shape"/>
</filter>
<linearGradient id="paint0_linear_113_313" x1="1612.1" y1="23546.7" x2="666.032" y2="23546.7" gradientUnits="userSpaceOnUse">
<stop stop-color="white" stop-opacity="0"/>
<stop offset="0.22218" stop-color="#BABABA"/>
<stop offset="0.54678" stop-color="white" stop-opacity="0"/>
<stop offset="1" stop-color="white" stop-opacity="0"/>
</linearGradient>
<linearGradient id="paint1_linear_113_313" x1="12142.5" y1="0.43103" x2="12142.5" y2="1232.83" gradientUnits="userSpaceOnUse">
<stop stop-color="#454545"/>
<stop offset="0.22628" stop-color="#999999"/>
<stop offset="1" stop-color="white"/>
</linearGradient>
<linearGradient id="paint2_linear_113_313" x1="-1348.56" y1="23546.7" x2="-400.981" y2="23546.7" gradientUnits="userSpaceOnUse">
<stop stop-color="white" stop-opacity="0"/>
<stop offset="0.22218" stop-color="#BABABA"/>
<stop offset="0.54678" stop-color="white" stop-opacity="0"/>
<stop offset="1" stop-color="white" stop-opacity="0"/>
</linearGradient>
<linearGradient id="paint3_linear_113_313" x1="11665.4" y1="12.875" x2="11665.4" y2="46150.6" gradientUnits="userSpaceOnUse">
<stop stop-color="#9CB6CD"/>
<stop offset="0.42056" stop-color="#9AB3CA"/>
<stop offset="0.71659" stop-color="#557496"/>
<stop offset="1" stop-color="#475178"/>
</linearGradient>
<clipPath id="clip0_113_313">
<rect width="263" height="500" fill="white"/>
</clipPath>
</defs>
</svg>
